<svg width="152" height="88" viewBox="0 0 152 88" fill="none" xmlns="http://www.w3.org/2000/svg">
<rect width="152" height="88" rx="12" fill="white"/>
<g clip-path="url(#clip0_2769_5841)">
<path fill-rule="evenodd" clip-rule="evenodd" d="M101.617 54.888L101.741 54.8444C102.14 54.8002 102.213 54.7411 102.213 54.3447V47.4379L101.646 47.3799L101.216 46.2188H108.15V48.005L106.718 48.4331V47.694C106.718 47.4146 106.629 47.5268 106.334 47.5268H104.015V50.3185H107.544V51.6701H104.015V54.682H106.496C106.791 54.682 106.851 54.5793 106.851 54.2856V54.165L108.283 53.7429V55.9907H101.186L101.617 54.888Z" fill="#A8899D"/>
<path fill-rule="evenodd" clip-rule="evenodd" d="M114.908 53.2871C114.908 52.3468 114.11 52.0089 113.047 51.7301C111.674 51.3773 110.241 50.8042 110.241 48.923C110.241 47.1301 111.614 46.043 113.697 46.043C114.642 46.043 115.705 46.2191 116.458 46.5719V47.9785L115.026 48.4609V48.0268C115.026 47.7773 114.997 47.6591 114.76 47.5857C114.539 47.5277 114.052 47.4686 113.711 47.4686C112.929 47.4686 112.117 47.748 112.117 48.7176C112.117 49.6579 112.914 49.9373 114.052 50.2895C115.41 50.7307 116.813 51.2006 116.813 53.1403C116.813 55.08 115.513 56.1671 113.15 56.1671C112.132 56.1671 111.039 56.0352 110.227 55.6674V54.2263L111.659 53.717V54.1689C111.659 54.4191 111.703 54.5361 111.925 54.6101C112.161 54.683 112.678 54.7421 113.092 54.7421C114.052 54.7421 114.908 54.4334 114.908 53.2871Z" fill="#A8899D"/>
<mask id="mask0_2769_5841" style="mask-type:alpha" maskUnits="userSpaceOnUse" x="28" y="24" width="96" height="40">
<path d="M28 64H124V24H28V64Z" fill="white"/>
</mask>
<g mask="url(#mask0_2769_5841)">
<path fill-rule="evenodd" clip-rule="evenodd" d="M28 64H124V24H28V64ZM29.8 62.209H122.2V25.791H29.8V62.209Z" fill="#A8899D"/>
<path fill-rule="evenodd" clip-rule="evenodd" d="M39.0579 46.2344L41.4651 52.3436H41.5089L43.7745 46.2344H46.4979L46.9293 47.3508L46.5153 47.395C46.2345 47.4242 46.0869 47.586 46.1019 47.8648L46.5453 54.8009L47.3127 54.8451L47.7441 56.0057H44.0493V54.8887L44.5215 54.8451C44.8173 54.8302 44.8617 54.6983 44.8467 54.3311L44.5659 48.82H44.5365L42.1293 54.475L40.7709 54.9036L38.4525 48.8642H38.4231L38.0979 54.8009L38.8509 54.8451V56.0057H35.1855L35.6169 54.8887L36.0597 54.8451C36.3405 54.8009 36.4443 54.7126 36.4587 54.3454L36.9315 47.4392L36.1485 47.395L36.5799 46.2344H39.0579Z" fill="#A8899D"/>
<path fill-rule="evenodd" clip-rule="evenodd" d="M52.7866 51.9787H55.5628L54.2044 47.8205H54.16L52.7866 51.9787ZM49.0918 55.9907L49.5232 54.888L49.8772 54.8444C50.2168 54.8002 50.2762 54.6385 50.3794 54.3883L52.7722 47.4677L52.0036 47.3799L52.435 46.2188H55.2232L58.2802 54.771L58.8178 54.8295L59.2492 55.9907H55.519V54.888L56.0056 54.8295C56.2864 54.8002 56.3752 54.6528 56.272 54.374L55.8586 53.2128H52.4914L51.9598 54.7853L52.7128 54.8295V55.9907H49.0918Z" fill="#A8899D"/>
<path fill-rule="evenodd" clip-rule="evenodd" d="M66.2142 54.3924V52.0557L65.4702 51.9966L65.0388 50.851H68.9106L68.6952 51.953L68.2962 51.9966C68.0454 52.0414 67.9272 52.1292 67.9272 52.4229V55.2444C67.1004 55.8175 65.8746 56.1554 64.575 56.1554C61.725 56.1554 60.1152 54.5244 60.1152 51.1154C60.1152 47.3244 62.3598 46.0312 64.9146 46.0312C66.096 46.0312 67.233 46.2808 67.8828 46.6187V47.9399L66.4506 48.4718V48.0444C66.4506 47.7942 66.4212 47.6772 66.1848 47.6038C65.904 47.5304 65.4168 47.4862 64.989 47.4862C62.9064 47.4862 61.9764 48.8527 61.9764 51.0271C61.9764 53.3632 62.7438 54.7447 64.6194 54.7447C65.1954 54.7447 65.8602 54.6127 66.2142 54.3924Z" fill="#A8899D"/>
<path fill-rule="evenodd" clip-rule="evenodd" d="M79.3828 55.5614L77.6698 55.9907L73.3282 48.8928H73.2982V54.7853L74.1106 54.8295V55.9907H70.543L70.9738 54.888L71.2312 54.8295C71.482 54.7853 71.5852 54.7268 71.5852 54.4182V47.4235L70.6018 47.3799L71.0332 46.2188H73.4314L77.6548 53.1985H77.6842V47.4235L76.8718 47.3799V46.2188H80.425L79.9942 47.3358L79.7518 47.3799C79.471 47.4235 79.3828 47.4826 79.3828 47.8205V55.5614Z" fill="#A8899D"/>
<path fill-rule="evenodd" clip-rule="evenodd" d="M84.7483 51.9787H87.5245L86.1661 47.8205H86.1217L84.7483 51.9787ZM81.2695 55.9907L81.7003 54.888L81.8389 54.8444C82.1785 54.8002 82.2379 54.6385 82.3411 54.3883L84.7339 47.4677L83.9653 47.3799L84.3967 46.2188H87.1849L90.2419 54.771L90.7795 54.8295L91.2109 55.9907H87.4801V54.888L87.9673 54.8295C88.2481 54.8002 88.3369 54.6528 88.2337 54.374L87.8203 53.2128H84.4531L83.9215 54.7853L84.6745 54.8295V55.9907H81.2695Z" fill="#A8899D"/>
<path fill-rule="evenodd" clip-rule="evenodd" d="M94.7728 47.5268H93.4138C93.1192 47.5268 93.0454 47.6587 93.0454 47.9089V48.4599L91.627 47.9782V46.2188H99.7054V47.9782L98.2726 48.4599V47.9232C98.2726 47.6731 98.2137 47.5268 97.9035 47.5268H96.5746V54.7853L97.4073 54.8295L97.8382 55.9907H93.4792L93.9105 54.888L94.3594 54.8295C94.699 54.8146 94.7728 54.7119 94.7728 54.374V47.5268Z" fill="#A8899D"/>
<path fill-rule="evenodd" clip-rule="evenodd" d="M36.3516 31.9961H42.7338V32.6242H37.038V36.2158H41.7456V36.8582H37.038V41.5555H36.3516V31.9961Z" fill="#A8899D"/>
<path fill-rule="evenodd" clip-rule="evenodd" d="M48.2598 41.5555H48.9462V31.9961H48.2598V41.5555Z" fill="#A8899D"/>
<path fill-rule="evenodd" clip-rule="evenodd" d="M55.2148 31.9961H55.8184L62.2966 40.3674V31.9961H62.983V41.5555H62.3926L55.9012 33.1704V41.5555H55.2148V31.9961Z" fill="#A8899D"/>
<path fill-rule="evenodd" clip-rule="evenodd" d="M75.3046 38.1689L72.8752 32.8298L70.432 38.1689H75.3046ZM72.5596 31.9414H73.1908L77.5282 41.5557H76.8142L75.5518 38.7701H70.1854L68.9224 41.5557H68.209L72.5596 31.9414Z" fill="#A8899D"/>
<path fill-rule="evenodd" clip-rule="evenodd" d="M82.7246 31.9961H83.3282L89.807 40.3674V31.9961H90.4928V41.5555H89.903L83.411 33.1704V41.5555H82.7246V31.9961Z" fill="#A8899D"/>
<path fill-rule="evenodd" clip-rule="evenodd" d="M96.2793 36.7753C96.2793 33.8941 98.3931 31.832 101.124 31.832C102.167 31.832 103.087 32.078 103.869 32.5831V33.3061C103.059 32.7873 102.195 32.487 101.138 32.487C98.8185 32.487 96.9795 34.2899 96.9795 36.7753C96.9795 39.2607 98.8185 41.0774 101.151 41.0774C102.304 41.0774 103.279 40.7222 104.089 40.0804V40.8314C103.293 41.4183 102.304 41.7192 101.124 41.7192C98.4063 41.7192 96.2793 39.6571 96.2793 36.7753Z" fill="#A8899D"/>
<path fill-rule="evenodd" clip-rule="evenodd" d="M109.533 31.9961H115.984V32.6242H110.22V36.0928H114.982V36.7346H110.22V40.9274H116.203V41.5555H109.533V31.9961Z" fill="#A8899D"/>
</g>
</g>
<defs>
<clipPath id="clip0_2769_5841">
<rect width="96" height="40" fill="white" transform="translate(28 24)"/>
</clipPath>
</defs>
</svg>
