<svg width="16" height="16" viewBox="0 0 16 16" fill="none" xmlns="http://www.w3.org/2000/svg">
<path d="M6.47329 7.52667C6.34776 7.40113 6.1775 7.3306 5.99996 7.3306C5.82243 7.3306 5.65216 7.40113 5.52663 7.52667C5.40109 7.6522 5.33057 7.82246 5.33057 8C5.33057 8.17753 5.40109 8.3478 5.52663 8.47333L7.52663 10.4733C7.58892 10.5351 7.6628 10.584 7.74402 10.6172C7.82525 10.6504 7.91222 10.6672 7.99996 10.6667C8.09123 10.6638 8.18092 10.6422 8.26349 10.6032C8.34606 10.5642 8.41974 10.5086 8.47996 10.44L13.1466 5.10666C13.2544 4.97288 13.3063 4.80267 13.2917 4.63152C13.277 4.46037 13.1968 4.30149 13.0678 4.188C12.9389 4.07452 12.7711 4.0152 12.5995 4.0224C12.4278 4.0296 12.2656 4.10278 12.1466 4.22666L7.99996 9.02667L6.47329 7.52667Z" fill="#482C42"/>
<path d="M13.632 7C13.4552 7 13.2857 7.07024 13.1606 7.19526C13.0356 7.32028 12.9654 7.48985 12.9654 7.66667C12.9654 9.08115 12.4035 10.4377 11.4033 11.4379C10.4031 12.4381 9.04652 13 7.63204 13C6.57876 12.9995 5.54921 12.6872 4.67321 12.1024C3.79721 11.5175 3.11399 10.6864 2.70969 9.71384C2.3054 8.74125 2.19813 7.67073 2.40143 6.63726C2.60473 5.60379 3.10948 4.65366 3.85204 3.90667C4.34584 3.40626 4.93449 3.00936 5.58354 2.73921C6.23259 2.46906 6.92901 2.33107 7.63204 2.33333C8.05834 2.336 8.48307 2.38518 8.8987 2.48C8.98568 2.5069 9.07725 2.51571 9.16776 2.50587C9.25827 2.49603 9.3458 2.46775 9.42497 2.42279C9.50413 2.37782 9.57325 2.31711 9.62805 2.24441C9.68286 2.17171 9.72219 2.08856 9.74363 2.00008C9.76506 1.91159 9.76815 1.81966 9.75269 1.72993C9.73724 1.64021 9.70357 1.55461 9.65376 1.47839C9.60396 1.40218 9.53907 1.33698 9.4631 1.28681C9.38713 1.23663 9.30168 1.20255 9.21204 1.18667C8.69414 1.06483 8.16407 1.0022 7.63204 1C6.31493 1.00684 5.02936 1.40368 3.93757 2.14043C2.84577 2.87719 1.99668 3.92084 1.49745 5.13969C0.998215 6.35853 0.871209 7.69795 1.13246 8.9889C1.39371 10.2799 2.03151 11.4645 2.96537 12.3933C4.20316 13.6317 5.88114 14.3292 7.63204 14.3333C9.40015 14.3333 11.0958 13.631 12.3461 12.3807C13.5963 11.1305 14.2987 9.43477 14.2987 7.66667C14.2987 7.48985 14.2285 7.32028 14.1034 7.19526C13.9784 7.07024 13.8088 7 13.632 7Z" fill="#482C42"/>
</svg>
