<svg width="1440" height="830" viewBox="0 0 1440 830" fill="none" xmlns="http://www.w3.org/2000/svg">
<g clip-path="url(#clip0_233_2431)">
<rect width="1440" height="830" fill="white"/>
<rect width="1440" height="1048" fill="#F3F3FF"/>
<circle cx="1138.5" cy="-101.5" r="360.5" fill="url(#paint0_radial_233_2431)"/>
<circle cx="625.5" cy="670.5" r="411.5" fill="url(#paint1_radial_233_2431)" fill-opacity="0.35"/>
<circle cx="-0.5" cy="1109.5" r="360.5" fill="url(#paint2_radial_233_2431)"/>
<circle cx="1601.5" cy="749.5" r="360.5" fill="url(#paint3_radial_233_2431)"/>
<path d="M360 139.5C360 338.599 198.599 500 -0.5 500C-199.599 500 -361 338.599 -361 139.5C-361 -59.5986 -199.599 -221 -0.5 -221C198.599 -221 360 -59.5986 360 139.5Z" fill="url(#paint4_radial_233_2431)"/>
</g>
<defs>
<radialGradient id="paint0_radial_233_2431" cx="0" cy="0" r="1" gradientUnits="userSpaceOnUse" gradientTransform="translate(1139 -139.5) rotate(90.0719) scale(398.5)">
<stop stop-color="#EEACFF"/>
<stop offset="1" stop-color="white" stop-opacity="0"/>
</radialGradient>
<radialGradient id="paint1_radial_233_2431" cx="0" cy="0" r="1" gradientUnits="userSpaceOnUse" gradientTransform="translate(626.071 627.124) rotate(90.0719) scale(454.876)">
<stop stop-color="#BDACFF"/>
<stop offset="1" stop-color="white" stop-opacity="0"/>
</radialGradient>
<radialGradient id="paint2_radial_233_2431" cx="0" cy="0" r="1" gradientUnits="userSpaceOnUse" gradientTransform="translate(1.86328e-05 1071.5) rotate(90.0719) scale(398.5)">
<stop stop-color="#FFACD4" stop-opacity="0.73"/>
<stop offset="1" stop-color="white" stop-opacity="0"/>
</radialGradient>
<radialGradient id="paint3_radial_233_2431" cx="0" cy="0" r="1" gradientUnits="userSpaceOnUse" gradientTransform="translate(1602 711.5) rotate(90.0719) scale(398.5)">
<stop stop-color="#FFACD4" stop-opacity="0.73"/>
<stop offset="1" stop-color="white" stop-opacity="0"/>
</radialGradient>
<radialGradient id="paint4_radial_233_2431" cx="0" cy="0" r="1" gradientUnits="userSpaceOnUse" gradientTransform="translate(1.86328e-05 101.5) rotate(90.0719) scale(398.5)">
<stop stop-color="#FFE8AC" stop-opacity="0.73"/>
<stop offset="1" stop-color="white" stop-opacity="0"/>
</radialGradient>
<clipPath id="clip0_233_2431">
<rect width="1440" height="830" fill="white"/>
</clipPath>
</defs>
</svg>
