<svg width="152" height="88" viewBox="0 0 152 88" fill="none" xmlns="http://www.w3.org/2000/svg">
<rect x="0.5" y="0.5" width="151" height="87" rx="15.5" fill="white" stroke="#EDDBEC"/>
<path d="M81.0299 51C81.0299 50.43 81.0742 49.917 81.1629 49.461C81.2516 49.005 81.4036 48.5807 81.6189 48.188C81.8469 47.7953 82.1509 47.428 82.5309 47.086C82.9236 46.7313 83.4176 46.3893 84.0129 46.06C84.5322 45.7813 84.9882 45.5407 85.3809 45.338C85.7736 45.1227 86.1029 44.9263 86.3689 44.749C86.6476 44.5717 86.8566 44.3943 86.9959 44.217C87.1352 44.027 87.2049 43.8117 87.2049 43.571C87.2049 43.3177 87.1352 43.0897 86.9959 42.887C86.8566 42.6717 86.6602 42.5007 86.4069 42.374C86.1536 42.2473 85.8369 42.184 85.4569 42.184C85.1529 42.184 84.8679 42.222 84.6019 42.298C84.3486 42.374 84.1079 42.4817 83.8799 42.621C83.6646 42.7603 83.4619 42.9187 83.2719 43.096C83.0819 43.2607 82.9109 43.438 82.7589 43.628L81.1439 41.766C81.3212 41.5887 81.5556 41.3987 81.8469 41.196C82.1509 40.9807 82.5056 40.7843 82.9109 40.607C83.3289 40.417 83.7849 40.265 84.2789 40.151C84.7856 40.0243 85.3239 39.961 85.8939 39.961C86.7552 39.961 87.4899 40.1003 88.0979 40.379C88.7059 40.645 89.1682 41.0187 89.4849 41.5C89.8142 41.9813 89.9789 42.545 89.9789 43.191C89.9789 43.6343 89.8966 44.027 89.7319 44.369C89.5672 44.711 89.3582 45.015 89.1049 45.281C88.8516 45.5343 88.5729 45.7623 88.2689 45.965C87.9776 46.1677 87.6926 46.345 87.4139 46.497C87.0212 46.6997 86.6666 46.8897 86.3499 47.067C86.0332 47.2317 85.7546 47.4027 85.5139 47.58C85.2732 47.7447 85.0579 47.9157 84.8679 48.093C84.6906 48.2703 84.5322 48.473 84.3929 48.701H90.1879V51H81.0299ZM97.7015 42.241H91.5645V39.923H101.71L95.0225 53.413H92.1345L97.7015 42.241ZM112.418 45.433C112.418 46.5477 112.203 47.542 111.772 48.416C111.354 49.2773 110.771 49.955 110.024 50.449C109.289 50.943 108.453 51.19 107.516 51.19C106.579 51.19 105.736 50.943 104.989 50.449C104.254 49.955 103.672 49.2773 103.241 48.416C102.823 47.542 102.614 46.5477 102.614 45.433C102.614 44.3183 102.823 43.3303 103.241 42.469C103.672 41.595 104.254 40.911 104.989 40.417C105.736 39.9103 106.579 39.657 107.516 39.657C108.453 39.657 109.289 39.9103 110.024 40.417C110.771 40.911 111.354 41.595 111.772 42.469C112.203 43.3303 112.418 44.3183 112.418 45.433ZM109.853 45.433C109.853 44.749 109.752 44.1537 109.549 43.647C109.359 43.1277 109.087 42.7223 108.732 42.431C108.377 42.1397 107.972 41.994 107.516 41.994C107.047 41.994 106.636 42.1397 106.281 42.431C105.926 42.7223 105.648 43.1277 105.445 43.647C105.255 44.1537 105.16 44.749 105.16 45.433C105.16 46.117 105.255 46.7123 105.445 47.219C105.648 47.7257 105.926 48.1247 106.281 48.416C106.636 48.7073 107.047 48.853 107.516 48.853C107.972 48.853 108.371 48.7073 108.713 48.416C109.068 48.1247 109.346 47.7257 109.549 47.219C109.752 46.6997 109.853 46.1043 109.853 45.433ZM124.089 45.433C124.089 46.5477 123.873 47.542 123.443 48.416C123.025 49.2773 122.442 49.955 121.695 50.449C120.96 50.943 120.124 51.19 119.187 51.19C118.249 51.19 117.407 50.943 116.66 50.449C115.925 49.955 115.342 49.2773 114.912 48.416C114.494 47.542 114.285 46.5477 114.285 45.433C114.285 44.3183 114.494 43.3303 114.912 42.469C115.342 41.595 115.925 40.911 116.66 40.417C117.407 39.9103 118.249 39.657 119.187 39.657C120.124 39.657 120.96 39.9103 121.695 40.417C122.442 40.911 123.025 41.595 123.443 42.469C123.873 43.3303 124.089 44.3183 124.089 45.433ZM121.524 45.433C121.524 44.749 121.422 44.1537 121.22 43.647C121.03 43.1277 120.757 42.7223 120.403 42.431C120.048 42.1397 119.643 41.994 119.187 41.994C118.718 41.994 118.306 42.1397 117.952 42.431C117.597 42.7223 117.318 43.1277 117.116 43.647C116.926 44.1537 116.831 44.749 116.831 45.433C116.831 46.117 116.926 46.7123 117.116 47.219C117.318 47.7257 117.597 48.1247 117.952 48.416C118.306 48.7073 118.718 48.853 119.187 48.853C119.643 48.853 120.042 48.7073 120.384 48.416C120.738 48.1247 121.017 47.7257 121.22 47.219C121.422 46.6997 121.524 46.1043 121.524 45.433ZM133.955 48.701V51H126.241V48.701H128.939V42.944C128.825 43.096 128.647 43.2543 128.407 43.419C128.166 43.571 127.894 43.7167 127.59 43.856C127.286 43.9953 126.982 44.1093 126.678 44.198C126.374 44.2867 126.101 44.331 125.861 44.331V41.956C126.089 41.956 126.361 41.8863 126.678 41.747C127.007 41.595 127.33 41.4177 127.647 41.215C127.976 41.0123 128.255 40.816 128.483 40.626C128.723 40.4233 128.875 40.265 128.939 40.151H131.542V48.701H133.955Z" fill="#A8899D"/>
<g clip-path="url(#clip0_2772_5420)">
<path d="M41.8406 69.6812C27.6046 69.6812 16 58.1103 16 43.8406C16 29.6046 27.6046 18 41.8406 18C56.0765 18 67.6812 29.6046 67.6812 43.8406C67.6812 58.1103 56.1103 69.6812 41.8406 69.6812ZM41.8406 20.6988C29.089 20.6988 18.6988 31.089 18.6988 43.8406C18.6988 56.5922 29.089 66.9824 41.8406 66.9824C54.5922 66.9824 64.9824 56.5922 64.9824 43.8406C64.9824 31.089 54.6259 20.6988 41.8406 20.6988Z" fill="#A8899D"/>
<path d="M28.6166 37.6992C28.5154 37.6992 28.3804 37.6992 28.2792 37.6654C27.5708 37.463 27.1323 36.7209 27.3347 36.0124C29.3925 28.2535 34.284 21.8102 40.761 18.3019C41.4019 17.9645 42.2453 18.2007 42.5826 18.8416C42.92 19.4826 42.6838 20.3259 42.0429 20.6633C36.2068 23.8343 31.7876 29.6704 29.9322 36.6871C29.7635 37.2944 29.2238 37.6992 28.6166 37.6992Z" fill="#A8899D"/>
<path d="M40.2881 69.6153C40.052 69.6153 39.8158 69.5478 39.5797 69.4129C33.8448 65.9045 29.5605 60.1022 27.5365 53.1529C27.3341 52.4445 27.7389 51.7023 28.4473 51.4662C29.1557 51.2638 29.8979 51.6686 30.134 52.377C31.9894 58.7191 35.8351 63.9479 40.9965 67.119C41.6375 67.5238 41.8399 68.3334 41.4351 68.9743C41.1989 69.4129 40.7604 69.6153 40.2881 69.6153Z" fill="#A8899D"/>
<path d="M55.234 37.7024C54.6268 37.7024 54.0871 37.2976 53.9184 36.6903C52.063 29.6736 47.6438 23.8038 41.8077 20.6665C41.1668 20.2954 40.8969 19.4858 41.268 18.8448C41.639 18.2039 42.4487 17.934 43.0896 18.3051C49.5666 21.8135 54.4919 28.2567 56.5159 36.0157C56.7183 36.7241 56.2798 37.4662 55.5714 37.6686C55.4702 37.7024 55.3352 37.7024 55.234 37.7024Z" fill="#A8899D"/>
<path d="M43.5612 69.6153C43.1226 69.6153 42.6504 69.3792 42.4142 68.9743C42.0094 68.3334 42.2118 67.5238 42.8528 67.119C48.0141 63.9479 51.8936 58.7191 53.7152 52.377C53.9177 51.6686 54.6598 51.2638 55.402 51.4662C56.1104 51.6686 56.5152 52.4107 56.3128 53.1529C54.2887 60.1359 50.0045 65.9045 44.2696 69.4129C44.0335 69.5478 43.7973 69.6153 43.5612 69.6153Z" fill="#A8899D"/>
<path d="M41.8396 37.8021C41.0975 37.8021 40.4902 37.1949 40.4902 36.4527V19.3494C40.4902 18.6072 41.0975 18 41.8396 18C42.5818 18 43.189 18.6072 43.189 19.3494V36.4527C43.189 37.1949 42.5818 37.8021 41.8396 37.8021Z" fill="#A8899D"/>
<path d="M41.74 69.614C40.9641 69.614 40.3906 69.0068 40.3906 68.2646L40.593 52.8142C40.593 52.0721 41.2003 51.4986 41.9424 51.4648C42.6846 51.4648 43.2918 52.0721 43.2918 52.8142L43.0894 68.2646C43.0894 69.0068 42.4822 69.614 41.74 69.614Z" fill="#A8899D"/>
<path d="M65.2529 38.0738H18.4295C17.6873 38.0738 17.0801 37.4665 17.0801 36.7244C17.0801 35.9822 17.6873 35.375 18.4295 35.375H65.2529C65.995 35.375 66.6023 35.9822 66.6023 36.7244C66.6023 37.4665 65.995 38.0738 65.2529 38.0738Z" fill="#A8899D"/>
<path d="M64.4422 53.8941H19.238C18.4959 53.8941 17.8887 53.2868 17.8887 52.5447C17.8887 51.8025 18.4959 51.1953 19.238 51.1953H64.4422C65.1844 51.1953 65.7916 51.8025 65.7916 52.5447C65.7916 53.2868 65.1844 53.8941 64.4422 53.8941Z" fill="#A8899D"/>
<path d="M41.8408 28.6597C36.8819 28.6597 32.0916 27.2091 28.0097 24.4429C27.4025 24.038 27.2338 23.1947 27.6386 22.5537C28.0434 21.9465 28.8868 21.7778 29.5277 22.1826C33.1711 24.6453 37.4553 25.9609 41.8746 25.9609C46.2938 25.9609 50.578 24.6453 54.2214 22.1826C54.8286 21.7778 55.672 21.9128 56.1105 22.5537C56.549 23.1947 56.3804 24.0043 55.7394 24.4429C51.5901 27.2091 46.7998 28.6597 41.8408 28.6597Z" fill="#A8899D"/>
<path d="M54.9305 65.7678C54.6607 65.7678 54.4245 65.7004 54.1884 65.5317C50.5451 63.0691 46.2608 61.7534 41.8416 61.7534C37.4224 61.7534 33.1381 63.0691 29.4948 65.5317C28.8876 65.9365 28.0442 65.8016 27.6056 65.1606C27.1671 64.5197 27.3358 63.71 27.9767 63.2715C32.0586 60.5053 36.8489 59.0547 41.8078 59.0547C46.7668 59.0547 51.5571 60.5053 55.639 63.2715C56.2462 63.6763 56.4149 64.5197 56.01 65.1606C55.8076 65.5317 55.3691 65.7678 54.9305 65.7678Z" fill="#A8899D"/>
<path d="M30.4727 49.5049V39.5195H33.2051V49.5049H30.4727Z" fill="#A8899D"/>
<path d="M40.9983 42.7943C40.6947 42.5919 40.3911 42.4569 40.1212 42.322C39.8513 42.2208 39.5815 42.0858 39.2779 42.0184C38.9742 41.9172 38.6706 41.8834 38.367 41.8834C38.1309 41.8834 37.9285 41.9172 37.7935 41.9846C37.6586 42.0521 37.5574 42.187 37.5574 42.3557C37.5574 42.5244 37.6249 42.6593 37.7935 42.7605C37.9285 42.8617 38.1646 42.9629 38.4345 43.0304C38.7044 43.0979 39.0417 43.2328 39.4128 43.334C40.02 43.5364 40.5598 43.7388 41.032 43.975C41.4706 44.2111 41.8417 44.5147 42.0778 44.9195C42.314 45.2906 42.4489 45.7966 42.4489 46.4038C42.4489 47.0111 42.3477 47.4833 42.1115 47.8882C41.9091 48.293 41.6055 48.6303 41.2345 48.8665C40.8634 49.1026 40.4586 49.2713 40.02 49.4062C39.5815 49.5074 39.1092 49.5749 38.6369 49.5749C38.1646 49.5749 37.6586 49.5411 37.1526 49.4399C36.6466 49.3387 36.1406 49.2038 35.6345 49.0351C35.1623 48.8665 34.69 48.6641 34.2852 48.4279L35.4659 46.0328C35.8369 46.2689 36.1743 46.4376 36.4779 46.5725C36.7815 46.7075 37.1188 46.8424 37.5237 46.9436C37.8947 47.0448 38.2996 47.1123 38.6706 47.1123C38.9742 47.1123 39.1766 47.0785 39.3116 47.0111C39.4128 46.9436 39.4803 46.8424 39.4803 46.7075C39.4803 46.505 39.3791 46.3701 39.1766 46.2689C38.9742 46.1677 38.7044 46.0665 38.367 45.9653C38.0297 45.8641 37.6586 45.7629 37.2538 45.628C36.6803 45.4255 36.208 45.2231 35.8032 44.9533C35.4321 44.7171 35.1623 44.4135 34.9598 44.0762C34.7912 43.7388 34.69 43.334 34.69 42.828C34.69 42.0858 34.8586 41.4786 35.196 40.9726C35.5333 40.4666 36.0056 40.0955 36.5791 39.8594C37.1526 39.5895 37.7598 39.4883 38.4008 39.4883C38.873 39.4883 39.3453 39.5557 39.8176 39.657C40.2562 39.7582 40.6947 39.9268 41.0995 40.0955C41.5043 40.2642 41.8417 40.4328 42.1453 40.5678L40.9983 42.7943Z" fill="#A8899D"/>
<path d="M48.1163 49.5735C47.3404 49.5735 46.6657 49.4385 46.0585 49.1349C45.4513 48.865 44.9115 48.4602 44.473 47.9879C44.0344 47.5157 43.6971 46.9759 43.4609 46.3687C43.2248 45.7615 43.0898 45.1205 43.0898 44.4796C43.0898 43.8049 43.2248 43.1639 43.4609 42.5904C43.7308 41.9832 44.0681 41.4435 44.5404 40.9712C44.979 40.4989 45.5187 40.1278 46.1597 39.8579C46.7669 39.5881 47.4753 39.4531 48.2175 39.4531C48.9934 39.4531 49.6681 39.5881 50.2753 39.8917C50.8825 40.1615 51.4223 40.5664 51.8608 41.0386C52.2993 41.5109 52.6367 42.0844 52.8728 42.6916C53.109 43.2989 53.2439 43.9061 53.2439 44.547C53.2439 45.188 53.109 45.8289 52.8728 46.4362C52.6367 47.0434 52.2656 47.5831 51.8271 48.0554C51.3548 48.5277 50.8488 48.8988 50.2078 49.1686C49.5669 49.4385 48.8922 49.5735 48.1163 49.5735ZM45.8561 44.5133C45.8561 44.8506 45.8898 45.188 45.991 45.4916C46.0922 45.7952 46.2271 46.0988 46.4296 46.335C46.632 46.5711 46.8681 46.7735 47.138 46.9422C47.4079 47.0771 47.7789 47.1446 48.15 47.1446C48.5548 47.1446 48.8922 47.0771 49.162 46.9084C49.4657 46.7735 49.7018 46.5711 49.8705 46.3012C50.0391 46.0313 50.1741 45.7615 50.2753 45.4579C50.3765 45.1542 50.4102 44.8169 50.4102 44.4796C50.4102 44.1422 50.3765 43.8049 50.2753 43.5013C50.1741 43.1976 50.0391 42.9278 49.8367 42.6579C49.6343 42.4218 49.3982 42.2194 49.1283 42.0844C48.8584 41.9495 48.4874 41.882 48.1163 41.882C47.7115 41.882 47.3741 41.9495 47.1042 42.1181C46.8344 42.2531 46.5645 42.4555 46.3958 42.7254C46.1934 42.9615 46.0585 43.2651 45.991 43.5687C45.8898 43.8723 45.8561 44.1759 45.8561 44.5133Z" fill="#A8899D"/>
</g>
<defs>
<clipPath id="clip0_2772_5420">
<rect width="51.6812" height="51.6812" fill="white" transform="translate(16 18)"/>
</clipPath>
</defs>
</svg>
