<svg width="152" height="88" viewBox="0 0 152 88" fill="none" xmlns="http://www.w3.org/2000/svg">
<rect x="0.5" y="0.5" width="151" height="87" rx="15.5" fill="white" stroke="#EDDBEC"/>
<path d="M101.618 34V23.35H103.688V34H101.618ZM112.255 26.14C112.185 26.07 112.055 25.975 111.865 25.855C111.685 25.735 111.46 25.62 111.19 25.51C110.93 25.4 110.645 25.305 110.335 25.225C110.025 25.135 109.71 25.09 109.39 25.09C108.83 25.09 108.405 25.195 108.115 25.405C107.835 25.615 107.695 25.91 107.695 26.29C107.695 26.58 107.785 26.81 107.965 26.98C108.145 27.15 108.415 27.295 108.775 27.415C109.135 27.535 109.585 27.665 110.125 27.805C110.825 27.975 111.43 28.185 111.94 28.435C112.46 28.675 112.855 28.995 113.125 29.395C113.405 29.785 113.545 30.305 113.545 30.955C113.545 31.525 113.44 32.015 113.23 32.425C113.02 32.825 112.73 33.15 112.36 33.4C111.99 33.65 111.57 33.835 111.1 33.955C110.63 34.065 110.13 34.12 109.6 34.12C109.07 34.12 108.54 34.065 108.01 33.955C107.48 33.845 106.97 33.69 106.48 33.49C105.99 33.28 105.54 33.03 105.13 32.74L106.045 30.955C106.135 31.045 106.295 31.165 106.525 31.315C106.755 31.455 107.035 31.6 107.365 31.75C107.695 31.89 108.055 32.01 108.445 32.11C108.835 32.21 109.23 32.26 109.63 32.26C110.19 32.26 110.615 32.165 110.905 31.975C111.195 31.785 111.34 31.515 111.34 31.165C111.34 30.845 111.225 30.595 110.995 30.415C110.765 30.235 110.445 30.08 110.035 29.95C109.625 29.81 109.14 29.66 108.58 29.5C107.91 29.31 107.35 29.1 106.9 28.87C106.45 28.63 106.115 28.33 105.895 27.97C105.675 27.61 105.565 27.16 105.565 26.62C105.565 25.89 105.735 25.28 106.075 24.79C106.425 24.29 106.895 23.915 107.485 23.665C108.075 23.405 108.73 23.275 109.45 23.275C109.95 23.275 110.42 23.33 110.86 23.44C111.31 23.55 111.73 23.695 112.12 23.875C112.51 24.055 112.86 24.25 113.17 24.46L112.255 26.14ZM119.654 34.075C118.874 34.075 118.164 33.925 117.524 33.625C116.894 33.325 116.349 32.92 115.889 32.41C115.439 31.89 115.089 31.31 114.839 30.67C114.589 30.02 114.464 29.355 114.464 28.675C114.464 27.965 114.594 27.29 114.854 26.65C115.124 26 115.489 25.425 115.949 24.925C116.419 24.415 116.969 24.015 117.599 23.725C118.239 23.425 118.939 23.275 119.699 23.275C120.469 23.275 121.169 23.43 121.799 23.74C122.439 24.05 122.984 24.465 123.434 24.985C123.884 25.505 124.234 26.085 124.484 26.725C124.734 27.365 124.859 28.025 124.859 28.705C124.859 29.405 124.729 30.08 124.469 30.73C124.209 31.37 123.844 31.945 123.374 32.455C122.914 32.955 122.364 33.35 121.724 33.64C121.094 33.93 120.404 34.075 119.654 34.075ZM116.564 28.675C116.564 29.135 116.634 29.58 116.774 30.01C116.914 30.44 117.114 30.825 117.374 31.165C117.644 31.495 117.969 31.76 118.349 31.96C118.739 32.15 119.179 32.245 119.669 32.245C120.169 32.245 120.614 32.145 121.004 31.945C121.394 31.735 121.719 31.46 121.979 31.12C122.239 30.77 122.434 30.385 122.564 29.965C122.704 29.535 122.774 29.105 122.774 28.675C122.774 28.215 122.699 27.775 122.549 27.355C122.409 26.925 122.204 26.545 121.934 26.215C121.674 25.875 121.349 25.61 120.959 25.42C120.579 25.22 120.149 25.12 119.669 25.12C119.159 25.12 118.709 25.225 118.319 25.435C117.939 25.635 117.619 25.905 117.359 26.245C117.099 26.585 116.899 26.965 116.759 27.385C116.629 27.805 116.564 28.235 116.564 28.675ZM90.373 45.46C90.793 45.53 91.158 45.69 91.468 45.94C91.778 46.18 92.018 46.49 92.188 46.87C92.368 47.25 92.458 47.67 92.458 48.13C92.458 48.75 92.298 49.29 91.978 49.75C91.658 50.21 91.203 50.565 90.613 50.815C90.033 51.075 89.348 51.205 88.558 51.205C87.798 51.205 87.123 51.08 86.533 50.83C85.953 50.59 85.468 50.235 85.078 49.765L86.218 48.34C86.478 48.66 86.788 48.91 87.148 49.09C87.518 49.28 87.968 49.375 88.498 49.375C89.108 49.375 89.573 49.25 89.893 49C90.213 48.76 90.373 48.395 90.373 47.905C90.373 47.385 90.188 46.985 89.818 46.705C89.448 46.425 88.888 46.285 88.138 46.285H87.718V44.785H88.183C88.793 44.785 89.268 44.645 89.608 44.365C89.958 44.085 90.133 43.735 90.133 43.315C90.133 43.045 90.068 42.82 89.938 42.64C89.808 42.46 89.628 42.325 89.398 42.235C89.178 42.145 88.918 42.1 88.618 42.1C88.168 42.1 87.758 42.205 87.388 42.415C87.018 42.625 86.718 42.92 86.488 43.3L85.228 41.89C85.438 41.58 85.723 41.315 86.083 41.095C86.453 40.865 86.873 40.685 87.343 40.555C87.823 40.425 88.323 40.36 88.843 40.36C89.523 40.36 90.118 40.47 90.628 40.69C91.148 40.91 91.553 41.22 91.843 41.62C92.133 42.02 92.278 42.485 92.278 43.015C92.278 43.405 92.198 43.775 92.038 44.125C91.878 44.475 91.653 44.77 91.363 45.01C91.083 45.24 90.753 45.39 90.373 45.46ZM101.497 44.605C101.497 45.485 101.327 46.27 100.987 46.96C100.657 47.64 100.197 48.175 99.6073 48.565C99.0273 48.955 98.3673 49.15 97.6273 49.15C96.8873 49.15 96.2223 48.955 95.6323 48.565C95.0523 48.175 94.5923 47.64 94.2523 46.96C93.9223 46.27 93.7573 45.485 93.7573 44.605C93.7573 43.725 93.9223 42.945 94.2523 42.265C94.5923 41.575 95.0523 41.035 95.6323 40.645C96.2223 40.245 96.8873 40.045 97.6273 40.045C98.3673 40.045 99.0273 40.245 99.6073 40.645C100.197 41.035 100.657 41.575 100.987 42.265C101.327 42.945 101.497 43.725 101.497 44.605ZM99.4723 44.605C99.4723 44.065 99.3923 43.595 99.2323 43.195C99.0823 42.785 98.8673 42.465 98.5873 42.235C98.3073 42.005 97.9873 41.89 97.6273 41.89C97.2573 41.89 96.9323 42.005 96.6523 42.235C96.3723 42.465 96.1523 42.785 95.9923 43.195C95.8423 43.595 95.7673 44.065 95.7673 44.605C95.7673 45.145 95.8423 45.615 95.9923 46.015C96.1523 46.415 96.3723 46.73 96.6523 46.96C96.9323 47.19 97.2573 47.305 97.6273 47.305C97.9873 47.305 98.3023 47.19 98.5723 46.96C98.8523 46.73 99.0723 46.415 99.2323 46.015C99.3923 45.605 99.4723 45.135 99.4723 44.605ZM109.286 47.185V49H103.196V47.185H105.326V42.64C105.236 42.76 105.096 42.885 104.906 43.015C104.716 43.135 104.501 43.25 104.261 43.36C104.021 43.47 103.781 43.56 103.541 43.63C103.301 43.7 103.086 43.735 102.896 43.735V41.86C103.076 41.86 103.291 41.805 103.541 41.695C103.801 41.575 104.056 41.435 104.306 41.275C104.566 41.115 104.786 40.96 104.966 40.81C105.156 40.65 105.276 40.525 105.326 40.435H107.381V47.185H109.286ZM118.123 44.605C118.123 45.485 117.953 46.27 117.613 46.96C117.283 47.64 116.823 48.175 116.233 48.565C115.653 48.955 114.993 49.15 114.253 49.15C113.513 49.15 112.848 48.955 112.258 48.565C111.678 48.175 111.218 47.64 110.878 46.96C110.548 46.27 110.383 45.485 110.383 44.605C110.383 43.725 110.548 42.945 110.878 42.265C111.218 41.575 111.678 41.035 112.258 40.645C112.848 40.245 113.513 40.045 114.253 40.045C114.993 40.045 115.653 40.245 116.233 40.645C116.823 41.035 117.283 41.575 117.613 42.265C117.953 42.945 118.123 43.725 118.123 44.605ZM116.098 44.605C116.098 44.065 116.018 43.595 115.858 43.195C115.708 42.785 115.493 42.465 115.213 42.235C114.933 42.005 114.613 41.89 114.253 41.89C113.883 41.89 113.558 42.005 113.278 42.235C112.998 42.465 112.778 42.785 112.618 43.195C112.468 43.595 112.393 44.065 112.393 44.605C112.393 45.145 112.468 45.615 112.618 46.015C112.778 46.415 112.998 46.73 113.278 46.96C113.558 47.19 113.883 47.305 114.253 47.305C114.613 47.305 114.928 47.19 115.198 46.96C115.478 46.73 115.698 46.415 115.858 46.015C116.018 45.605 116.098 45.135 116.098 44.605ZM124.127 42.085H119.282V40.255H127.292L122.012 50.905H119.732L124.127 42.085ZM127.818 45.79V43.975H132.363V45.79H127.818ZM138.537 45.46C138.957 45.53 139.322 45.69 139.632 45.94C139.942 46.18 140.182 46.49 140.352 46.87C140.532 47.25 140.622 47.67 140.622 48.13C140.622 48.75 140.462 49.29 140.142 49.75C139.822 50.21 139.367 50.565 138.777 50.815C138.197 51.075 137.512 51.205 136.722 51.205C135.962 51.205 135.287 51.08 134.697 50.83C134.117 50.59 133.632 50.235 133.242 49.765L134.382 48.34C134.642 48.66 134.952 48.91 135.312 49.09C135.682 49.28 136.132 49.375 136.662 49.375C137.272 49.375 137.737 49.25 138.057 49C138.377 48.76 138.537 48.395 138.537 47.905C138.537 47.385 138.352 46.985 137.982 46.705C137.612 46.425 137.052 46.285 136.302 46.285H135.882V44.785H136.347C136.957 44.785 137.432 44.645 137.772 44.365C138.122 44.085 138.297 43.735 138.297 43.315C138.297 43.045 138.232 42.82 138.102 42.64C137.972 42.46 137.792 42.325 137.562 42.235C137.342 42.145 137.082 42.1 136.782 42.1C136.332 42.1 135.922 42.205 135.552 42.415C135.182 42.625 134.882 42.92 134.652 43.3L133.392 41.89C133.602 41.58 133.887 41.315 134.247 41.095C134.617 40.865 135.037 40.685 135.507 40.555C135.987 40.425 136.487 40.36 137.007 40.36C137.687 40.36 138.282 40.47 138.792 40.69C139.312 40.91 139.717 41.22 140.007 41.62C140.297 42.02 140.442 42.485 140.442 43.015C140.442 43.405 140.362 43.775 140.202 44.125C140.042 44.475 139.817 44.77 139.527 45.01C139.247 45.24 138.917 45.39 138.537 45.46ZM89.1371 64V53.35H91.2071V62.185H96.6371V64H89.1371ZM101.288 64.15C100.658 64.15 100.088 64.045 99.5783 63.835C99.0683 63.615 98.6333 63.32 98.2733 62.95C97.9133 62.57 97.6333 62.14 97.4333 61.66C97.2433 61.17 97.1483 60.655 97.1483 60.115C97.1483 59.365 97.3133 58.68 97.6433 58.06C97.9833 57.44 98.4633 56.945 99.0833 56.575C99.7133 56.195 100.453 56.005 101.303 56.005C102.163 56.005 102.898 56.195 103.508 56.575C104.118 56.945 104.583 57.44 104.903 58.06C105.233 58.67 105.398 59.33 105.398 60.04C105.398 60.16 105.393 60.285 105.383 60.415C105.373 60.535 105.363 60.635 105.353 60.715H99.2783C99.3183 61.115 99.4333 61.465 99.6233 61.765C99.8233 62.065 100.073 62.295 100.373 62.455C100.683 62.605 101.013 62.68 101.363 62.68C101.763 62.68 102.138 62.585 102.488 62.395C102.848 62.195 103.093 61.935 103.223 61.615L104.948 62.095C104.758 62.495 104.483 62.85 104.123 63.16C103.773 63.47 103.358 63.715 102.878 63.895C102.398 64.065 101.868 64.15 101.288 64.15ZM99.2333 59.44H103.343C103.303 59.04 103.188 58.695 102.998 58.405C102.818 58.105 102.578 57.875 102.278 57.715C101.978 57.545 101.643 57.46 101.273 57.46C100.913 57.46 100.583 57.545 100.283 57.715C99.9933 57.875 99.7533 58.105 99.5633 58.405C99.3833 58.695 99.2733 59.04 99.2333 59.44ZM108.518 64L105.623 56.14H107.708L109.688 62.17L111.683 56.14H113.588L110.708 64H108.518ZM118.031 64.15C117.401 64.15 116.831 64.045 116.321 63.835C115.811 63.615 115.376 63.32 115.016 62.95C114.656 62.57 114.376 62.14 114.176 61.66C113.986 61.17 113.891 60.655 113.891 60.115C113.891 59.365 114.056 58.68 114.386 58.06C114.726 57.44 115.206 56.945 115.826 56.575C116.456 56.195 117.196 56.005 118.046 56.005C118.906 56.005 119.641 56.195 120.251 56.575C120.861 56.945 121.326 57.44 121.646 58.06C121.976 58.67 122.141 59.33 122.141 60.04C122.141 60.16 122.136 60.285 122.126 60.415C122.116 60.535 122.106 60.635 122.096 60.715H116.021C116.061 61.115 116.176 61.465 116.366 61.765C116.566 62.065 116.816 62.295 117.116 62.455C117.426 62.605 117.756 62.68 118.106 62.68C118.506 62.68 118.881 62.585 119.231 62.395C119.591 62.195 119.836 61.935 119.966 61.615L121.691 62.095C121.501 62.495 121.226 62.85 120.866 63.16C120.516 63.47 120.101 63.715 119.621 63.895C119.141 64.065 118.611 64.15 118.031 64.15ZM115.976 59.44H120.086C120.046 59.04 119.931 58.695 119.741 58.405C119.561 58.105 119.321 57.875 119.021 57.715C118.721 57.545 118.386 57.46 118.016 57.46C117.656 57.46 117.326 57.545 117.026 57.715C116.736 57.875 116.496 58.105 116.306 58.405C116.126 58.695 116.016 59.04 115.976 59.44ZM123.351 53.05H125.361V61.48C125.361 61.84 125.421 62.085 125.541 62.215C125.661 62.335 125.826 62.395 126.036 62.395C126.196 62.395 126.361 62.375 126.531 62.335C126.701 62.295 126.851 62.245 126.981 62.185L127.251 63.715C126.981 63.845 126.666 63.945 126.306 64.015C125.946 64.085 125.621 64.12 125.331 64.12C124.701 64.12 124.211 63.955 123.861 63.625C123.521 63.285 123.351 62.805 123.351 62.185V53.05ZM137.455 62.185V64H131.365V62.185H133.495V57.64C133.405 57.76 133.265 57.885 133.075 58.015C132.885 58.135 132.67 58.25 132.43 58.36C132.19 58.47 131.95 58.56 131.71 58.63C131.47 58.7 131.255 58.735 131.065 58.735V56.86C131.245 56.86 131.46 56.805 131.71 56.695C131.97 56.575 132.225 56.435 132.475 56.275C132.735 56.115 132.955 55.96 133.135 55.81C133.325 55.65 133.445 55.525 133.495 55.435H135.55V62.185H137.455Z" fill="#A8899D"/>
<g clip-path="url(#clip0_2772_5421)">
<path d="M36.9704 50.1696C36.6674 50.8159 36.4371 51.3306 36.1825 51.8213C35.7582 52.6591 34.9945 53.0421 34.1702 53.4251C33.2247 53.868 32.3276 53.5448 31.3942 53.5209C29.2971 53.473 27.1878 53.5089 25.0907 53.5089C23.7209 53.5089 22.3389 53.4969 20.9691 53.5209C20.46 53.5328 20.2539 53.3772 20.2539 52.8386C20.266 49.4036 20.2418 45.9805 20.2903 42.5455C20.2903 42.1026 20.5085 41.6239 20.7388 41.2409C21.8177 39.4815 21.9874 37.7101 21.0661 35.8669C20.9934 35.7233 20.9328 35.5797 20.86 35.436C20.7267 35.1488 20.8358 34.9812 21.1631 34.9573C21.3207 34.9453 21.4904 34.9453 21.648 34.9453C24.7755 34.9453 27.9152 34.9214 31.0427 34.9573C31.9397 34.9693 32.861 35.0052 33.7338 35.2206C35.0188 35.5318 35.9643 36.3098 36.5825 37.5425C37.2371 38.8471 37.2735 40.1398 36.8371 41.4563C36.5462 42.3301 36.0976 43.1679 35.2612 43.7304C35.0066 43.898 34.8127 44.1732 34.6551 44.3528C35.3097 44.8674 35.8552 45.3103 36.4128 45.7531C36.6553 45.035 36.8613 44.3049 37.1644 43.6107C37.9402 41.7795 39.2615 40.5587 41.2981 40.1996C41.8678 40.1039 42.4497 40.032 43.0194 40.0201C45.2863 39.9961 47.541 40.0081 49.8079 40.0081C50.5837 40.0081 50.6079 39.9842 50.6201 39.1942C50.6322 38.0931 50.6201 37.0039 50.6201 35.9028C50.6201 35.1488 50.814 34.9573 51.602 34.9573C52.2687 34.9573 52.9354 34.9573 53.6021 34.9573C54.2931 34.9573 54.4022 35.065 54.4022 35.7712C54.4022 36.9082 54.4022 38.0452 54.4022 39.1823C54.4022 39.9483 54.4628 40.0081 55.2265 40.0081C57.8934 40.0081 60.5603 39.9842 63.2272 40.0201C64.7546 40.044 66.282 40.0919 67.7973 40.2475C70.0762 40.4869 71.3127 41.6478 71.7733 43.8381C72.0037 44.9512 72.0158 46.1242 72.04 47.2612C72.0764 49.2001 72.04 51.1271 72.0643 53.066C72.0643 53.5328 71.9673 53.7363 71.4339 53.7363C68.1973 53.7124 64.9728 53.7243 61.7361 53.7004C60.1118 53.6884 58.8147 52.3958 58.4147 50.8877C58.0752 49.631 58.4025 48.5418 58.8268 47.4527C59.142 46.6747 59.8451 46.1481 60.6573 45.9087C61.324 45.7172 62.0271 45.6095 62.718 45.5856C64.2576 45.5377 65.785 45.5736 67.3245 45.5736C68.1488 45.5736 68.3549 45.2385 68.1246 44.4485C67.8457 43.491 67.1911 43.0841 66.2577 43.0721C62.5968 43.0362 58.948 43.0362 55.2871 43.0242C54.7416 43.0242 54.6083 43.3235 54.6083 43.7902C54.6204 45.5497 54.6083 47.2971 54.6083 49.0565C54.6083 50.1816 55.0568 50.6005 56.1478 50.8279C56.8145 50.9595 57.1055 51.2707 57.3479 51.8093C57.6146 52.4078 57.9055 52.9942 58.2571 53.7363C56.9964 53.7363 55.9054 53.7722 54.8022 53.7243C53.7961 53.6764 52.8263 53.4371 52.0384 52.7668C51.3595 52.1923 50.9959 51.4383 50.8383 50.5526C50.4504 48.3384 50.6807 46.1122 50.6079 43.886C50.5837 43.0482 50.5837 43.0482 49.7473 43.0482C47.541 43.0482 45.3469 43.0721 43.1407 43.0482C41.9769 43.0362 41.2132 43.503 40.7889 44.5921C40.498 45.3582 40.6314 45.6334 41.4435 45.6334C43.6013 45.6334 45.7712 45.6454 47.9289 45.6215C48.4866 45.6095 48.7048 45.813 48.6805 46.3396C48.6563 46.7824 48.6441 47.2253 48.6805 47.6562C48.7411 48.2546 48.535 48.4581 47.9047 48.4461C45.8197 48.4102 43.7468 48.4341 41.6617 48.4341C41.4799 48.4341 41.286 48.4102 41.1162 48.4581C40.8011 48.5538 40.595 48.7573 40.692 49.1283C40.9223 50.0379 41.8193 50.8758 42.7891 50.9117C44.4862 50.9835 46.1833 50.9595 47.8804 50.9835C48.6441 50.9954 48.6684 51.0074 48.6805 51.7495C48.6805 52.2641 48.6684 52.7908 48.6805 53.3054C48.6926 53.6286 48.5714 53.7722 48.232 53.7722C46.1106 53.7483 43.9771 53.8799 41.8678 53.6884C40.0374 53.5209 38.5221 52.5634 37.5402 50.9356C37.4068 50.6962 37.2371 50.5047 36.9704 50.1696ZM27.5515 42.6652C28.3394 42.6652 29.1274 42.7131 29.9153 42.6532C31.0427 42.5694 32.1579 42.4019 32.5943 41.1451C32.8125 40.5108 32.8974 39.8765 32.4852 39.2182C31.9155 38.3085 30.9578 38.1889 30.0971 38.129C28.4364 37.9974 26.7514 38.0811 25.0786 38.1051C24.6906 38.1051 24.3876 38.2846 24.3876 38.7634C24.3997 39.8645 24.3997 40.9536 24.3876 42.0548C24.3876 42.5216 24.6179 42.6891 25.0664 42.6771C25.9029 42.6532 26.7272 42.6652 27.5515 42.6652ZM27.8545 50.2653C28.788 50.2653 29.7092 50.3132 30.6426 50.2414C31.1154 50.2055 31.6124 50.014 32.0125 49.7746C32.6307 49.3916 32.9701 48.0392 32.7277 47.2971C32.4731 46.5311 31.6003 45.9207 30.6305 45.9087C28.7395 45.8848 26.8363 45.8967 24.9452 45.8967C24.4118 45.8967 24.1936 46.184 24.2057 46.6867C24.2179 47.6801 24.23 48.6735 24.1936 49.6789C24.1815 50.1217 24.3391 50.2773 24.7876 50.2773C25.8059 50.2534 26.8363 50.2653 27.8545 50.2653ZM65.3971 50.6244V50.6364C66.0274 50.6364 66.6456 50.6364 67.276 50.6364C68.2821 50.6364 68.2821 50.6364 68.2821 49.6669C68.2821 49.4634 68.2821 49.2719 68.2821 49.0685C68.27 48.3863 68.173 48.2785 67.4578 48.2785C66.6699 48.2666 65.8819 48.2666 65.094 48.2785C64.4515 48.2905 63.7969 48.2785 63.1544 48.3384C62.4998 48.3982 62.0392 48.9488 62.1119 49.5592C62.1847 50.1816 62.4756 50.6364 63.2029 50.6244C63.9424 50.6124 64.6697 50.6244 65.3971 50.6244Z" fill="#A8899D"/>
<path d="M12.0121 38.2142C11.8545 35.7367 14.1214 34.0611 16.1822 34.0012C18.3884 33.9414 20.4856 36.0838 20.3522 38.286C20.2068 40.8115 18.5824 42.3554 16.1337 42.3913C13.9881 42.4272 11.8545 40.9551 12.0121 38.2142Z" fill="#A8899D"/>
<path d="M18.425 48.4466C18.425 49.9188 18.4129 51.4029 18.4371 52.8751C18.4371 53.2581 18.3159 53.4376 17.9401 53.4496C16.7885 53.4735 15.6369 53.4855 14.4853 53.4975C14.1216 53.4975 13.9883 53.282 13.9883 52.911C14.0004 49.9427 13.9883 46.9745 14.0004 43.9943C14.0004 43.4317 14.1701 43.4437 14.7156 43.4916C15.7218 43.5873 16.74 43.5754 17.7462 43.4916C18.2674 43.4437 18.4129 43.4198 18.4129 43.9703C18.425 45.4545 18.4129 46.9506 18.425 48.4466Z" fill="#A8899D"/>
</g>
<defs>
<clipPath id="clip0_2772_5421">
<rect width="60.0414" height="19.7604" fill="white" transform="translate(12 34)"/>
</clipPath>
</defs>
</svg>
