<svg width="152" height="88" viewBox="0 0 152 88" fill="none" xmlns="http://www.w3.org/2000/svg">
<rect x="0.5" y="0.5" width="151" height="87" rx="15.5" fill="white" stroke="#EDDBEC"/>
<path d="M96.8528 42.065C96.2548 42.065 95.6872 41.9437 95.1498 41.701C94.6212 41.4583 94.1532 41.1247 93.7458 40.7C93.3472 40.2667 93.0352 39.764 92.8098 39.192C92.5845 38.62 92.4718 38.0003 92.4718 37.333C92.4718 36.7003 92.5845 36.1067 92.8098 35.552C93.0352 34.9887 93.3515 34.4947 93.7588 34.07C94.1662 33.6453 94.6428 33.3117 95.1888 33.069C95.7348 32.8263 96.3285 32.705 96.9698 32.705C97.8365 32.705 98.5775 32.8913 99.1928 33.264C99.8168 33.628 100.285 34.1133 100.597 34.72L99.2578 35.708C99.0238 35.2487 98.6945 34.8977 98.2698 34.655C97.8538 34.4123 97.3988 34.291 96.9048 34.291C96.5148 34.291 96.1595 34.3733 95.8388 34.538C95.5182 34.7027 95.2408 34.928 95.0068 35.214C94.7728 35.5 94.5908 35.8293 94.4608 36.202C94.3395 36.5747 94.2788 36.969 94.2788 37.385C94.2788 37.827 94.3438 38.2343 94.4738 38.607C94.6125 38.9797 94.8032 39.3047 95.0458 39.582C95.2972 39.8593 95.5875 40.0803 95.9168 40.245C96.2462 40.401 96.6102 40.479 97.0088 40.479C97.4768 40.479 97.9232 40.3577 98.3478 40.115C98.7812 39.8723 99.1842 39.517 99.5568 39.049V40.817C98.7855 41.649 97.8842 42.065 96.8528 42.065ZM99.4268 38.568H97.5678V37.255H100.909V42H99.4268V38.568ZM102.438 42V32.77H105.792C106.797 32.77 107.638 32.978 108.314 33.394C108.99 33.8013 109.497 34.356 109.835 35.058C110.173 35.7513 110.342 36.5227 110.342 37.372C110.342 38.308 110.155 39.1227 109.783 39.816C109.41 40.5093 108.881 41.0467 108.197 41.428C107.521 41.8093 106.719 42 105.792 42H102.438ZM108.535 37.372C108.535 36.774 108.426 36.2497 108.21 35.799C107.993 35.3397 107.681 34.9843 107.274 34.733C106.866 34.473 106.372 34.343 105.792 34.343H104.232V40.427H105.792C106.381 40.427 106.879 40.297 107.287 40.037C107.694 39.7683 108.002 39.4043 108.21 38.945C108.426 38.477 108.535 37.9527 108.535 37.372ZM111.743 42V32.77H115.656C116.081 32.77 116.471 32.8567 116.826 33.03C117.182 33.2033 117.489 33.4373 117.749 33.732C118.018 34.0267 118.226 34.356 118.373 34.72C118.521 35.084 118.594 35.4567 118.594 35.838C118.594 36.358 118.473 36.852 118.23 37.32C117.988 37.788 117.654 38.1693 117.229 38.464C116.805 38.7587 116.302 38.906 115.721 38.906H113.537V42H111.743ZM113.537 37.333H115.617C115.834 37.333 116.029 37.2723 116.202 37.151C116.376 37.0297 116.514 36.8563 116.618 36.631C116.722 36.397 116.774 36.1327 116.774 35.838C116.774 35.5173 116.714 35.2443 116.592 35.019C116.48 34.7937 116.328 34.6247 116.137 34.512C115.955 34.3993 115.756 34.343 115.539 34.343H113.537V37.333ZM119.843 42V32.77H123.925C124.35 32.77 124.74 32.8567 125.095 33.03C125.459 33.2033 125.771 33.4373 126.031 33.732C126.3 34.0267 126.503 34.356 126.642 34.72C126.789 35.084 126.863 35.4567 126.863 35.838C126.863 36.228 126.794 36.605 126.655 36.969C126.525 37.3243 126.334 37.6363 126.083 37.905C125.832 38.1737 125.537 38.3817 125.199 38.529L127.305 42H125.329L123.431 38.906H121.637V42H119.843ZM121.637 37.333H123.886C124.111 37.333 124.311 37.268 124.484 37.138C124.657 36.9993 124.796 36.8173 124.9 36.592C125.004 36.3667 125.056 36.1153 125.056 35.838C125.056 35.5433 124.995 35.2877 124.874 35.071C124.753 34.8457 124.597 34.668 124.406 34.538C124.224 34.408 124.025 34.343 123.808 34.343H121.637V37.333ZM77.7894 50.32C77.7894 49.7567 77.8891 49.2063 78.0884 48.669C78.2964 48.123 78.5954 47.629 78.9854 47.187C79.3754 46.7363 79.8521 46.381 80.4154 46.121C80.9787 45.8523 81.6201 45.718 82.3394 45.718C83.1887 45.718 83.9211 45.9043 84.5364 46.277C85.1604 46.6497 85.6241 47.135 85.9274 47.733L84.5494 48.682C84.3934 48.3353 84.1897 48.0623 83.9384 47.863C83.6871 47.655 83.4184 47.512 83.1324 47.434C82.8464 47.3473 82.5647 47.304 82.2874 47.304C81.8367 47.304 81.4424 47.395 81.1044 47.577C80.7751 47.759 80.4977 47.9973 80.2724 48.292C80.0471 48.5867 79.8781 48.916 79.7654 49.28C79.6614 49.644 79.6094 50.008 79.6094 50.372C79.6094 50.7793 79.6744 51.1737 79.8044 51.555C79.9344 51.9277 80.1164 52.2613 80.3504 52.556C80.5931 52.842 80.8791 53.0717 81.2084 53.245C81.5464 53.4097 81.9147 53.492 82.3134 53.492C82.5994 53.492 82.8897 53.4443 83.1844 53.349C83.4791 53.2537 83.7521 53.102 84.0034 52.894C84.2547 52.686 84.4497 52.4173 84.5884 52.088L86.0574 52.933C85.8754 53.3923 85.5764 53.7823 85.1604 54.103C84.7531 54.4237 84.2937 54.6663 83.7824 54.831C83.2711 54.9957 82.7641 55.078 82.2614 55.078C81.6027 55.078 81.0004 54.9437 80.4544 54.675C79.9084 54.3977 79.4361 54.0337 79.0374 53.583C78.6474 53.1237 78.3397 52.6123 78.1144 52.049C77.8977 51.477 77.7894 50.9007 77.7894 50.32ZM90.2121 55.13C89.6575 55.13 89.1591 55.039 88.7171 54.857C88.2751 54.6663 87.8981 54.4063 87.5861 54.077C87.2828 53.7477 87.0488 53.3707 86.8841 52.946C86.7195 52.5213 86.6371 52.075 86.6371 51.607C86.6371 51.1303 86.7195 50.6797 86.8841 50.255C87.0488 49.8303 87.2828 49.4533 87.5861 49.124C87.8981 48.7947 88.2751 48.539 88.7171 48.357C89.1591 48.1663 89.6575 48.071 90.2121 48.071C90.7668 48.071 91.2608 48.1663 91.6941 48.357C92.1361 48.539 92.5131 48.7947 92.8251 49.124C93.1371 49.4533 93.3711 49.8303 93.5271 50.255C93.6918 50.6797 93.7741 51.1303 93.7741 51.607C93.7741 52.075 93.6918 52.5213 93.5271 52.946C93.3711 53.3707 93.1371 53.7477 92.8251 54.077C92.5218 54.4063 92.1491 54.6663 91.7071 54.857C91.2651 55.039 90.7668 55.13 90.2121 55.13ZM88.4311 51.607C88.4311 52.0057 88.5091 52.361 88.6651 52.673C88.8211 52.9763 89.0335 53.2147 89.3021 53.388C89.5708 53.5613 89.8741 53.648 90.2121 53.648C90.5415 53.648 90.8405 53.5613 91.1091 53.388C91.3778 53.206 91.5901 52.9633 91.7461 52.66C91.9108 52.348 91.9931 51.9927 91.9931 51.594C91.9931 51.204 91.9108 50.853 91.7461 50.541C91.5901 50.229 91.3778 49.9863 91.1091 49.813C90.8405 49.6397 90.5415 49.553 90.2121 49.553C89.8741 49.553 89.5708 49.644 89.3021 49.826C89.0335 49.9993 88.8211 50.242 88.6651 50.554C88.5091 50.8573 88.4311 51.2083 88.4311 51.607ZM105.532 55H103.79V51.178C103.79 50.6407 103.695 50.2463 103.504 49.995C103.322 49.735 103.066 49.605 102.737 49.605C102.399 49.605 102.074 49.7393 101.762 50.008C101.459 50.268 101.242 50.6103 101.112 51.035V55H99.3699V51.178C99.3699 50.632 99.2746 50.2333 99.0839 49.982C98.9019 49.7307 98.6462 49.605 98.3169 49.605C97.9789 49.605 97.6539 49.735 97.3419 49.995C97.0386 50.255 96.8219 50.5973 96.6919 51.022V55H94.9499V48.188H96.5229V49.449C96.7829 49.007 97.1296 48.669 97.5629 48.435C97.9962 48.1923 98.4946 48.071 99.0579 48.071C99.6212 48.071 100.059 48.2097 100.371 48.487C100.692 48.7643 100.895 49.1067 100.982 49.514C101.259 49.046 101.61 48.6907 102.035 48.448C102.468 48.1967 102.954 48.071 103.491 48.071C103.916 48.071 104.258 48.149 104.518 48.305C104.787 48.4523 104.995 48.656 105.142 48.916C105.289 49.1673 105.389 49.4533 105.441 49.774C105.502 50.0947 105.532 50.4197 105.532 50.749V55ZM111.131 55.13C110.602 55.13 110.134 55.013 109.727 54.779C109.328 54.5363 109.016 54.2113 108.791 53.804V57.769H107.049V48.188H108.57V49.358C108.83 48.9593 109.159 48.6473 109.558 48.422C109.956 48.188 110.411 48.071 110.923 48.071C111.382 48.071 111.802 48.162 112.184 48.344C112.574 48.526 112.912 48.7817 113.198 49.111C113.484 49.4317 113.705 49.8043 113.861 50.229C114.025 50.645 114.108 51.0957 114.108 51.581C114.108 52.2397 113.978 52.8377 113.718 53.375C113.466 53.9123 113.115 54.3413 112.665 54.662C112.223 54.974 111.711 55.13 111.131 55.13ZM110.546 53.648C110.814 53.648 111.057 53.5917 111.274 53.479C111.49 53.3663 111.677 53.2147 111.833 53.024C111.997 52.8247 112.119 52.6037 112.197 52.361C112.283 52.1097 112.327 51.8497 112.327 51.581C112.327 51.295 112.279 51.0307 112.184 50.788C112.097 50.5453 111.967 50.333 111.794 50.151C111.62 49.9603 111.417 49.813 111.183 49.709C110.957 49.605 110.71 49.553 110.442 49.553C110.277 49.553 110.108 49.5833 109.935 49.644C109.77 49.696 109.61 49.774 109.454 49.878C109.298 49.982 109.159 50.1033 109.038 50.242C108.925 50.3807 108.843 50.5323 108.791 50.697V52.296C108.895 52.5473 109.033 52.777 109.207 52.985C109.389 53.193 109.597 53.3577 109.831 53.479C110.065 53.5917 110.303 53.648 110.546 53.648ZM115.275 45.51H117.017V52.816C117.017 53.128 117.069 53.3403 117.173 53.453C117.277 53.557 117.42 53.609 117.602 53.609C117.74 53.609 117.883 53.5917 118.031 53.557C118.178 53.5223 118.308 53.479 118.421 53.427L118.655 54.753C118.421 54.8657 118.148 54.9523 117.836 55.013C117.524 55.0737 117.242 55.104 116.991 55.104C116.445 55.104 116.02 54.961 115.717 54.675C115.422 54.3803 115.275 53.9643 115.275 53.427V45.51ZM119.414 55V48.188H121.156V55H119.414ZM119.414 47.239V45.51H121.156V47.239H119.414ZM122.259 52.985C122.259 52.543 122.381 52.1573 122.623 51.828C122.875 51.49 123.221 51.23 123.663 51.048C124.105 50.866 124.612 50.775 125.184 50.775C125.47 50.775 125.761 50.7967 126.055 50.84C126.35 50.8833 126.606 50.9527 126.822 51.048V50.684C126.822 50.2507 126.692 49.917 126.432 49.683C126.181 49.449 125.804 49.332 125.301 49.332C124.929 49.332 124.573 49.397 124.235 49.527C123.897 49.657 123.542 49.8477 123.169 50.099L122.61 48.955C123.061 48.6603 123.52 48.4393 123.988 48.292C124.465 48.1447 124.963 48.071 125.483 48.071C126.454 48.071 127.208 48.3137 127.745 48.799C128.291 49.2843 128.564 49.9777 128.564 50.879V53.05C128.564 53.232 128.595 53.362 128.655 53.44C128.725 53.518 128.833 53.5657 128.98 53.583V55C128.824 55.026 128.681 55.0477 128.551 55.065C128.43 55.0823 128.326 55.091 128.239 55.091C127.893 55.091 127.628 55.013 127.446 54.857C127.273 54.701 127.165 54.5103 127.121 54.285L127.082 53.934C126.788 54.3153 126.419 54.61 125.977 54.818C125.535 55.026 125.085 55.13 124.625 55.13C124.175 55.13 123.767 55.039 123.403 54.857C123.048 54.6663 122.766 54.4107 122.558 54.09C122.359 53.7607 122.259 53.3923 122.259 52.985ZM126.497 53.336C126.593 53.232 126.671 53.128 126.731 53.024C126.792 52.92 126.822 52.8247 126.822 52.738V52.049C126.614 51.9623 126.389 51.8973 126.146 51.854C125.904 51.802 125.674 51.776 125.457 51.776C125.007 51.776 124.634 51.8757 124.339 52.075C124.053 52.2657 123.91 52.5213 123.91 52.842C123.91 53.0153 123.958 53.18 124.053 53.336C124.149 53.492 124.287 53.6177 124.469 53.713C124.651 53.8083 124.868 53.856 125.119 53.856C125.379 53.856 125.635 53.8083 125.886 53.713C126.138 53.609 126.341 53.4833 126.497 53.336ZM136.523 55H134.781V51.178C134.781 50.632 134.686 50.2333 134.495 49.982C134.304 49.7307 134.04 49.605 133.702 49.605C133.468 49.605 133.23 49.6657 132.987 49.787C132.753 49.9083 132.541 50.0773 132.35 50.294C132.159 50.502 132.021 50.7447 131.934 51.022V55H130.192V48.188H131.765V49.449C131.938 49.1543 132.159 48.9073 132.428 48.708C132.697 48.5 133.004 48.344 133.351 48.24C133.706 48.1273 134.079 48.071 134.469 48.071C134.894 48.071 135.24 48.149 135.509 48.305C135.786 48.4523 135.994 48.656 136.133 48.916C136.28 49.1673 136.38 49.4533 136.432 49.774C136.493 50.0947 136.523 50.4197 136.523 50.749V55ZM142.082 54.649C141.934 54.7097 141.757 54.779 141.549 54.857C141.341 54.935 141.115 54.9957 140.873 55.039C140.639 55.091 140.4 55.117 140.158 55.117C139.837 55.117 139.542 55.0607 139.274 54.948C139.005 54.8353 138.788 54.6577 138.624 54.415C138.468 54.1637 138.39 53.8387 138.39 53.44V49.527H137.493V48.188H138.39V45.978H140.132V48.188H141.562V49.527H140.132V52.855C140.14 53.089 140.205 53.258 140.327 53.362C140.448 53.466 140.6 53.518 140.782 53.518C140.964 53.518 141.141 53.4877 141.315 53.427C141.488 53.3663 141.627 53.3143 141.731 53.271L142.082 54.649Z" fill="#A8899D"/>
<g clip-path="url(#clip0_2772_5423)">
<path d="M41.5103 15L42.2169 17.2242H44.5187L42.6499 18.5912L43.3564 20.8154L41.5103 19.4253L39.6415 20.8154L40.3708 18.5912L38.502 17.2242H40.8038L41.5103 15Z" fill="#A8899D"/>
<path d="M28.6119 18.5234L29.3184 20.7245H31.6203L29.7515 22.0915L30.458 24.3157L28.6119 22.9487L26.7431 24.3157L27.4724 22.0915L25.6035 20.7245H27.9054L28.6119 18.5234Z" fill="#A8899D"/>
<path d="M16.4644 30.1073H18.7434L19.45 27.9062L20.1565 30.1305H22.4584L20.5895 31.4975L21.296 33.7217L19.45 32.3315L17.5811 33.6985L18.3104 31.4975L16.4644 30.1073Z" fill="#A8899D"/>
<path d="M13 43.2206H15.3019L16.0084 41.0195L16.7149 43.2438H18.994L17.1479 44.6107L17.8317 46.835L15.9856 45.4448L14.1395 46.8118L14.8461 44.5876L13 43.2206Z" fill="#A8899D"/>
<path d="M17.4664 59.5774L18.1957 57.3764L16.3496 55.9862H18.6515L19.358 53.7852L20.0645 56.0094H22.3436L20.4976 57.3764L21.1813 59.6006L19.3352 58.2104L17.4664 59.5774Z" fill="#A8899D"/>
<path d="M26.9247 69.1943L27.6312 66.9701L25.7852 65.6031H28.087L28.7936 63.3789L29.5001 65.6031H31.7792L29.9331 66.9701L30.6396 69.1943L28.7936 67.8274L26.9247 69.1943Z" fill="#A8899D"/>
<path d="M39.8251 72.6907L40.5316 70.4896L38.6855 69.1227H40.9646L41.6712 66.8984L42.4005 69.0995H44.6795L42.8335 70.4896L43.54 72.6907L41.6939 71.3237L39.8251 72.6907Z" fill="#A8899D"/>
<path d="M56.0752 69.1943L54.2291 67.8274L52.383 69.1943L53.0896 66.9701L51.2207 65.6031H53.5226L54.2291 63.3789L54.9356 65.6031H57.2375L55.3686 66.9701L56.0752 69.1943Z" fill="#A8899D"/>
<path d="M65.5099 59.6006L63.6638 58.2104L61.795 59.5774L62.5243 57.3532L60.6782 55.9862H62.9801L63.6866 53.7852L64.3931 56.0094H66.6722L64.8262 57.3764L65.5099 59.6006Z" fill="#A8899D"/>
<path d="M69.9999 43.1974L68.1766 44.5876L68.9059 46.8118L67.037 45.4448L65.191 46.835L65.8747 44.6107L64.0059 43.2669L66.3077 43.2438L66.9915 41.0195L67.7208 43.2206L69.9999 43.1974Z" fill="#A8899D"/>
<path d="M66.5589 30.1073L64.7129 31.4743L65.4194 33.6985L63.5733 32.3315L61.7273 33.7217L62.411 31.4975L60.5649 30.1305H62.844L63.5505 27.9062L64.2571 30.1073H66.5589Z" fill="#A8899D"/>
<path d="M54.4107 18.5234L55.1173 20.7245L57.4191 20.7477L55.5503 22.1146L56.2568 24.3157L54.4107 22.9487L52.5419 24.3157L53.2484 22.0915L51.4023 20.7245H53.7042L54.4107 18.5234Z" fill="#A8899D"/>
<path d="M36.4825 34.9131C36.4825 32.6688 38.2609 30.8608 40.4686 30.8608H42.431C44.6387 30.8608 46.4172 32.6688 46.4172 34.9131V37.6873L48.1343 38.3731V34.9443C48.1343 31.7336 45.5586 29.1152 42.4004 29.1152H40.438C37.2797 29.1152 34.7041 31.7336 34.7041 34.9443V38.3731L36.4212 37.6873V34.9131H36.4825Z" fill="#A8899D"/>
<path d="M50.5871 40.8377V40.4324L41.4497 36.8789L32.4043 40.4324V40.8377C32.4043 43.7366 32.9869 53.649 41.2351 58.7611L41.511 58.917L41.7257 58.7923C49.9739 53.7114 50.5871 43.7677 50.5871 40.8377ZM42.2776 46.8225C42.3083 46.916 42.3389 47.0096 42.3389 47.1342V50.5319C42.3389 51.0306 41.9403 51.4047 41.4804 51.4047C40.9898 51.4047 40.6218 50.9995 40.6218 50.5319V47.1342C40.6218 47.0407 40.6525 46.916 40.6832 46.8225C39.8859 46.5108 39.3034 45.7004 39.3034 44.7652C39.3034 43.5495 40.2846 42.5521 41.4804 42.5521C42.6762 42.5521 43.6574 43.5495 43.6574 44.7652C43.6574 45.7004 43.0748 46.4796 42.2776 46.8225Z" fill="#A8899D"/>
</g>
<defs>
<clipPath id="clip0_2772_5423">
<rect width="57" height="57.6909" fill="white" transform="translate(13 15)"/>
</clipPath>
</defs>
</svg>
