<svg width="152" height="88" viewBox="0 0 152 88" fill="none" xmlns="http://www.w3.org/2000/svg">
<rect x="0.5" y="0.5" width="151" height="87" rx="15.5" fill="white" stroke="#EDDBEC"/>
<path d="M101.066 34V23.35H103.136V34H101.066ZM111.703 26.14C111.633 26.07 111.503 25.975 111.313 25.855C111.133 25.735 110.908 25.62 110.638 25.51C110.378 25.4 110.093 25.305 109.783 25.225C109.473 25.135 109.158 25.09 108.838 25.09C108.278 25.09 107.853 25.195 107.563 25.405C107.283 25.615 107.143 25.91 107.143 26.29C107.143 26.58 107.233 26.81 107.413 26.98C107.593 27.15 107.863 27.295 108.223 27.415C108.583 27.535 109.033 27.665 109.573 27.805C110.273 27.975 110.878 28.185 111.388 28.435C111.908 28.675 112.303 28.995 112.573 29.395C112.853 29.785 112.993 30.305 112.993 30.955C112.993 31.525 112.888 32.015 112.678 32.425C112.468 32.825 112.178 33.15 111.808 33.4C111.438 33.65 111.018 33.835 110.548 33.955C110.078 34.065 109.578 34.12 109.048 34.12C108.518 34.12 107.988 34.065 107.458 33.955C106.928 33.845 106.418 33.69 105.928 33.49C105.438 33.28 104.988 33.03 104.578 32.74L105.493 30.955C105.583 31.045 105.743 31.165 105.973 31.315C106.203 31.455 106.483 31.6 106.813 31.75C107.143 31.89 107.503 32.01 107.893 32.11C108.283 32.21 108.678 32.26 109.078 32.26C109.638 32.26 110.063 32.165 110.353 31.975C110.643 31.785 110.788 31.515 110.788 31.165C110.788 30.845 110.673 30.595 110.443 30.415C110.213 30.235 109.893 30.08 109.483 29.95C109.073 29.81 108.588 29.66 108.028 29.5C107.358 29.31 106.798 29.1 106.348 28.87C105.898 28.63 105.563 28.33 105.343 27.97C105.123 27.61 105.013 27.16 105.013 26.62C105.013 25.89 105.183 25.28 105.523 24.79C105.873 24.29 106.343 23.915 106.933 23.665C107.523 23.405 108.178 23.275 108.898 23.275C109.398 23.275 109.868 23.33 110.308 23.44C110.758 23.55 111.178 23.695 111.568 23.875C111.958 24.055 112.308 24.25 112.618 24.46L111.703 26.14ZM119.103 34.075C118.323 34.075 117.613 33.925 116.973 33.625C116.343 33.325 115.798 32.92 115.338 32.41C114.888 31.89 114.538 31.31 114.288 30.67C114.038 30.02 113.913 29.355 113.913 28.675C113.913 27.965 114.043 27.29 114.303 26.65C114.573 26 114.938 25.425 115.398 24.925C115.868 24.415 116.418 24.015 117.048 23.725C117.688 23.425 118.388 23.275 119.148 23.275C119.918 23.275 120.618 23.43 121.248 23.74C121.888 24.05 122.433 24.465 122.883 24.985C123.333 25.505 123.683 26.085 123.933 26.725C124.183 27.365 124.308 28.025 124.308 28.705C124.308 29.405 124.178 30.08 123.918 30.73C123.658 31.37 123.293 31.945 122.823 32.455C122.363 32.955 121.813 33.35 121.173 33.64C120.543 33.93 119.853 34.075 119.103 34.075ZM116.013 28.675C116.013 29.135 116.083 29.58 116.223 30.01C116.363 30.44 116.563 30.825 116.823 31.165C117.093 31.495 117.418 31.76 117.798 31.96C118.188 32.15 118.628 32.245 119.118 32.245C119.618 32.245 120.063 32.145 120.453 31.945C120.843 31.735 121.168 31.46 121.428 31.12C121.688 30.77 121.883 30.385 122.013 29.965C122.153 29.535 122.223 29.105 122.223 28.675C122.223 28.215 122.148 27.775 121.998 27.355C121.858 26.925 121.653 26.545 121.383 26.215C121.123 25.875 120.798 25.61 120.408 25.42C120.028 25.22 119.598 25.12 119.118 25.12C118.608 25.12 118.158 25.225 117.768 25.435C117.388 25.635 117.068 25.905 116.808 26.245C116.548 26.585 116.348 26.965 116.208 27.385C116.078 27.805 116.013 28.235 116.013 28.675ZM89.8219 45.46C90.2419 45.53 90.6069 45.69 90.9169 45.94C91.2269 46.18 91.4669 46.49 91.6369 46.87C91.8169 47.25 91.9069 47.67 91.9069 48.13C91.9069 48.75 91.7469 49.29 91.4269 49.75C91.1069 50.21 90.6519 50.565 90.0619 50.815C89.4819 51.075 88.7969 51.205 88.0069 51.205C87.2469 51.205 86.5719 51.08 85.9819 50.83C85.4019 50.59 84.9169 50.235 84.5269 49.765L85.6669 48.34C85.9269 48.66 86.2369 48.91 86.5969 49.09C86.9669 49.28 87.4169 49.375 87.9469 49.375C88.5569 49.375 89.0219 49.25 89.3419 49C89.6619 48.76 89.8219 48.395 89.8219 47.905C89.8219 47.385 89.6369 46.985 89.2669 46.705C88.8969 46.425 88.3369 46.285 87.5869 46.285H87.1669V44.785H87.6319C88.2419 44.785 88.7169 44.645 89.0569 44.365C89.4069 44.085 89.5819 43.735 89.5819 43.315C89.5819 43.045 89.5169 42.82 89.3869 42.64C89.2569 42.46 89.0769 42.325 88.8469 42.235C88.6269 42.145 88.3669 42.1 88.0669 42.1C87.6169 42.1 87.2069 42.205 86.8369 42.415C86.4669 42.625 86.1669 42.92 85.9369 43.3L84.6769 41.89C84.8869 41.58 85.1719 41.315 85.5319 41.095C85.9019 40.865 86.3219 40.685 86.7919 40.555C87.2719 40.425 87.7719 40.36 88.2919 40.36C88.9719 40.36 89.5669 40.47 90.0769 40.69C90.5969 40.91 91.0019 41.22 91.2919 41.62C91.5819 42.02 91.7269 42.485 91.7269 43.015C91.7269 43.405 91.6469 43.775 91.4869 44.125C91.3269 44.475 91.1019 44.77 90.8119 45.01C90.5319 45.24 90.2019 45.39 89.8219 45.46ZM100.946 44.605C100.946 45.485 100.776 46.27 100.436 46.96C100.106 47.64 99.6461 48.175 99.0561 48.565C98.4761 48.955 97.8161 49.15 97.0761 49.15C96.3361 49.15 95.6711 48.955 95.0811 48.565C94.5011 48.175 94.0411 47.64 93.7011 46.96C93.3711 46.27 93.2061 45.485 93.2061 44.605C93.2061 43.725 93.3711 42.945 93.7011 42.265C94.0411 41.575 94.5011 41.035 95.0811 40.645C95.6711 40.245 96.3361 40.045 97.0761 40.045C97.8161 40.045 98.4761 40.245 99.0561 40.645C99.6461 41.035 100.106 41.575 100.436 42.265C100.776 42.945 100.946 43.725 100.946 44.605ZM98.9211 44.605C98.9211 44.065 98.8411 43.595 98.6811 43.195C98.5311 42.785 98.3161 42.465 98.0361 42.235C97.7561 42.005 97.4361 41.89 97.0761 41.89C96.7061 41.89 96.3811 42.005 96.1011 42.235C95.8211 42.465 95.6011 42.785 95.4411 43.195C95.2911 43.595 95.2161 44.065 95.2161 44.605C95.2161 45.145 95.2911 45.615 95.4411 46.015C95.6011 46.415 95.8211 46.73 96.1011 46.96C96.3811 47.19 96.7061 47.305 97.0761 47.305C97.4361 47.305 97.7511 47.19 98.0211 46.96C98.3011 46.73 98.5211 46.415 98.6811 46.015C98.8411 45.605 98.9211 45.135 98.9211 44.605ZM108.735 47.185V49H102.645V47.185H104.775V42.64C104.685 42.76 104.545 42.885 104.355 43.015C104.165 43.135 103.95 43.25 103.71 43.36C103.47 43.47 103.23 43.56 102.99 43.63C102.75 43.7 102.535 43.735 102.345 43.735V41.86C102.525 41.86 102.74 41.805 102.99 41.695C103.25 41.575 103.505 41.435 103.755 41.275C104.015 41.115 104.235 40.96 104.415 40.81C104.605 40.65 104.725 40.525 104.775 40.435H106.83V47.185H108.735ZM117.572 44.605C117.572 45.485 117.402 46.27 117.062 46.96C116.732 47.64 116.272 48.175 115.682 48.565C115.102 48.955 114.442 49.15 113.702 49.15C112.962 49.15 112.297 48.955 111.707 48.565C111.127 48.175 110.667 47.64 110.327 46.96C109.997 46.27 109.832 45.485 109.832 44.605C109.832 43.725 109.997 42.945 110.327 42.265C110.667 41.575 111.127 41.035 111.707 40.645C112.297 40.245 112.962 40.045 113.702 40.045C114.442 40.045 115.102 40.245 115.682 40.645C116.272 41.035 116.732 41.575 117.062 42.265C117.402 42.945 117.572 43.725 117.572 44.605ZM115.547 44.605C115.547 44.065 115.467 43.595 115.307 43.195C115.157 42.785 114.942 42.465 114.662 42.235C114.382 42.005 114.062 41.89 113.702 41.89C113.332 41.89 113.007 42.005 112.727 42.235C112.447 42.465 112.227 42.785 112.067 43.195C111.917 43.595 111.842 44.065 111.842 44.605C111.842 45.145 111.917 45.615 112.067 46.015C112.227 46.415 112.447 46.73 112.727 46.96C113.007 47.19 113.332 47.305 113.702 47.305C114.062 47.305 114.377 47.19 114.647 46.96C114.927 46.73 115.147 46.415 115.307 46.015C115.467 45.605 115.547 45.135 115.547 44.605ZM123.576 42.085H118.731V40.255H126.741L121.461 50.905H119.181L123.576 42.085ZM127.267 45.79V43.975H131.812V45.79H127.267ZM137.986 45.46C138.406 45.53 138.771 45.69 139.081 45.94C139.391 46.18 139.631 46.49 139.801 46.87C139.981 47.25 140.071 47.67 140.071 48.13C140.071 48.75 139.911 49.29 139.591 49.75C139.271 50.21 138.816 50.565 138.226 50.815C137.646 51.075 136.961 51.205 136.171 51.205C135.411 51.205 134.736 51.08 134.146 50.83C133.566 50.59 133.081 50.235 132.691 49.765L133.831 48.34C134.091 48.66 134.401 48.91 134.761 49.09C135.131 49.28 135.581 49.375 136.111 49.375C136.721 49.375 137.186 49.25 137.506 49C137.826 48.76 137.986 48.395 137.986 47.905C137.986 47.385 137.801 46.985 137.431 46.705C137.061 46.425 136.501 46.285 135.751 46.285H135.331V44.785H135.796C136.406 44.785 136.881 44.645 137.221 44.365C137.571 44.085 137.746 43.735 137.746 43.315C137.746 43.045 137.681 42.82 137.551 42.64C137.421 42.46 137.241 42.325 137.011 42.235C136.791 42.145 136.531 42.1 136.231 42.1C135.781 42.1 135.371 42.205 135.001 42.415C134.631 42.625 134.331 42.92 134.101 43.3L132.841 41.89C133.051 41.58 133.336 41.315 133.696 41.095C134.066 40.865 134.486 40.685 134.956 40.555C135.436 40.425 135.936 40.36 136.456 40.36C137.136 40.36 137.731 40.47 138.241 40.69C138.761 40.91 139.166 41.22 139.456 41.62C139.746 42.02 139.891 42.485 139.891 43.015C139.891 43.405 139.811 43.775 139.651 44.125C139.491 44.475 139.266 44.77 138.976 45.01C138.696 45.24 138.366 45.39 137.986 45.46ZM88.0587 64V53.35H90.1287V62.185H95.5587V64H88.0587ZM100.21 64.15C99.5799 64.15 99.0099 64.045 98.4999 63.835C97.9899 63.615 97.5549 63.32 97.1949 62.95C96.8349 62.57 96.5549 62.14 96.3549 61.66C96.1649 61.17 96.0699 60.655 96.0699 60.115C96.0699 59.365 96.2349 58.68 96.5649 58.06C96.9049 57.44 97.3849 56.945 98.0049 56.575C98.6349 56.195 99.3749 56.005 100.225 56.005C101.085 56.005 101.82 56.195 102.43 56.575C103.04 56.945 103.505 57.44 103.825 58.06C104.155 58.67 104.32 59.33 104.32 60.04C104.32 60.16 104.315 60.285 104.305 60.415C104.295 60.535 104.285 60.635 104.275 60.715H98.1999C98.2399 61.115 98.3549 61.465 98.5449 61.765C98.7449 62.065 98.9949 62.295 99.2949 62.455C99.6049 62.605 99.9349 62.68 100.285 62.68C100.685 62.68 101.06 62.585 101.41 62.395C101.77 62.195 102.015 61.935 102.145 61.615L103.87 62.095C103.68 62.495 103.405 62.85 103.045 63.16C102.695 63.47 102.28 63.715 101.8 63.895C101.32 64.065 100.79 64.15 100.21 64.15ZM98.1549 59.44H102.265C102.225 59.04 102.11 58.695 101.92 58.405C101.74 58.105 101.5 57.875 101.2 57.715C100.9 57.545 100.565 57.46 100.195 57.46C99.8349 57.46 99.5049 57.545 99.2049 57.715C98.9149 57.875 98.6749 58.105 98.4849 58.405C98.3049 58.695 98.1949 59.04 98.1549 59.44ZM107.44 64L104.545 56.14H106.63L108.61 62.17L110.605 56.14H112.51L109.63 64H107.44ZM116.953 64.15C116.323 64.15 115.753 64.045 115.243 63.835C114.733 63.615 114.298 63.32 113.938 62.95C113.578 62.57 113.298 62.14 113.098 61.66C112.908 61.17 112.813 60.655 112.813 60.115C112.813 59.365 112.978 58.68 113.308 58.06C113.648 57.44 114.128 56.945 114.748 56.575C115.378 56.195 116.118 56.005 116.968 56.005C117.828 56.005 118.563 56.195 119.173 56.575C119.783 56.945 120.248 57.44 120.568 58.06C120.898 58.67 121.063 59.33 121.063 60.04C121.063 60.16 121.058 60.285 121.048 60.415C121.038 60.535 121.028 60.635 121.018 60.715H114.943C114.983 61.115 115.098 61.465 115.288 61.765C115.488 62.065 115.738 62.295 116.038 62.455C116.348 62.605 116.678 62.68 117.028 62.68C117.428 62.68 117.803 62.585 118.153 62.395C118.513 62.195 118.758 61.935 118.888 61.615L120.613 62.095C120.423 62.495 120.148 62.85 119.788 63.16C119.438 63.47 119.023 63.715 118.543 63.895C118.063 64.065 117.533 64.15 116.953 64.15ZM114.898 59.44H119.008C118.968 59.04 118.853 58.695 118.663 58.405C118.483 58.105 118.243 57.875 117.943 57.715C117.643 57.545 117.308 57.46 116.938 57.46C116.578 57.46 116.248 57.545 115.948 57.715C115.658 57.875 115.418 58.105 115.228 58.405C115.048 58.695 114.938 59.04 114.898 59.44ZM122.273 53.05H124.283V61.48C124.283 61.84 124.343 62.085 124.463 62.215C124.583 62.335 124.748 62.395 124.958 62.395C125.118 62.395 125.283 62.375 125.453 62.335C125.623 62.295 125.773 62.245 125.903 62.185L126.173 63.715C125.903 63.845 125.588 63.945 125.228 64.015C124.868 64.085 124.543 64.12 124.253 64.12C123.623 64.12 123.133 63.955 122.783 63.625C122.443 63.285 122.273 62.805 122.273 62.185V53.05ZM129.897 64C129.897 63.55 129.932 63.145 130.002 62.785C130.072 62.425 130.192 62.09 130.362 61.78C130.542 61.47 130.782 61.18 131.082 60.91C131.392 60.63 131.782 60.36 132.252 60.1C132.662 59.88 133.022 59.69 133.332 59.53C133.642 59.36 133.902 59.205 134.112 59.065C134.332 58.925 134.497 58.785 134.607 58.645C134.717 58.495 134.772 58.325 134.772 58.135C134.772 57.935 134.717 57.755 134.607 57.595C134.497 57.425 134.342 57.29 134.142 57.19C133.942 57.09 133.692 57.04 133.392 57.04C133.152 57.04 132.927 57.07 132.717 57.13C132.517 57.19 132.327 57.275 132.147 57.385C131.977 57.495 131.817 57.62 131.667 57.76C131.517 57.89 131.382 58.03 131.262 58.18L129.987 56.71C130.127 56.57 130.312 56.42 130.542 56.26C130.782 56.09 131.062 55.935 131.382 55.795C131.712 55.645 132.072 55.525 132.462 55.435C132.862 55.335 133.287 55.285 133.737 55.285C134.417 55.285 134.997 55.395 135.477 55.615C135.957 55.825 136.322 56.12 136.572 56.5C136.832 56.88 136.962 57.325 136.962 57.835C136.962 58.185 136.897 58.495 136.767 58.765C136.637 59.035 136.472 59.275 136.272 59.485C136.072 59.685 135.852 59.865 135.612 60.025C135.382 60.185 135.157 60.325 134.937 60.445C134.627 60.605 134.347 60.755 134.097 60.895C133.847 61.025 133.627 61.16 133.437 61.3C133.247 61.43 133.077 61.565 132.927 61.705C132.787 61.845 132.662 62.005 132.552 62.185H137.127V64H129.897Z" fill="#A8899D"/>
<g clip-path="url(#clip0_2772_5422)">
<path d="M37.5309 50.1696C37.2332 50.8159 37.007 51.3306 36.7569 51.8213C36.3401 52.6591 35.5899 53.0421 34.7801 53.4251C33.8513 53.868 32.9701 53.5448 32.0531 53.5209C29.993 53.473 27.9209 53.5089 25.8608 53.5089C24.5152 53.5089 23.1576 53.4969 21.812 53.5209C21.3118 53.5328 21.1094 53.3772 21.1094 52.8386C21.1213 49.4036 21.0975 45.9805 21.1451 42.5455C21.1451 42.1026 21.3594 41.6239 21.5857 41.2409C22.6455 39.4815 22.8123 37.7101 21.9072 35.8669C21.8358 35.7233 21.7762 35.5797 21.7048 35.436C21.5738 35.1488 21.681 34.9812 22.0025 34.9573C22.1573 34.9453 22.324 34.9453 22.4788 34.9453C25.5512 34.9453 28.6354 34.9214 31.7078 34.9573C32.589 34.9693 33.494 35.0052 34.3514 35.2206C35.6137 35.5318 36.5426 36.3098 37.1499 37.5425C37.7929 38.8471 37.8287 40.1398 37.4 41.4563C37.1142 42.3301 36.6735 43.1679 35.8519 43.7304C35.6018 43.898 35.4113 44.1732 35.2565 44.3528C35.8995 44.8674 36.4354 45.3103 36.9832 45.7531C37.2213 45.035 37.4238 44.3049 37.7215 43.6107C38.4836 41.7795 39.7816 40.5587 41.7822 40.1996C42.3419 40.1039 42.9135 40.032 43.4732 40.0201C45.7 39.9961 47.915 40.0081 50.1419 40.0081C50.904 40.0081 50.9278 39.9842 50.9397 39.1942C50.9516 38.0931 50.9397 37.0039 50.9397 35.9028C50.9397 35.1488 51.1302 34.9573 51.9043 34.9573C52.5592 34.9573 53.2142 34.9573 53.8692 34.9573C54.5479 34.9573 54.6551 35.065 54.6551 35.7712C54.6551 36.9082 54.6551 38.0452 54.6551 39.1823C54.6551 39.9483 54.7146 40.0081 55.4649 40.0081C58.0847 40.0081 60.7045 39.9842 63.3244 40.0201C64.8248 40.044 66.3253 40.0919 67.8138 40.2475C70.0526 40.4869 71.2672 41.6478 71.7197 43.8381C71.946 44.9512 71.9579 46.1242 71.9817 47.2612C72.0174 49.2001 71.9817 51.1271 72.0055 53.066C72.0055 53.5328 71.9103 53.7363 71.3863 53.7363C68.2068 53.7124 65.0392 53.7243 61.8596 53.7004C60.2639 53.6884 58.9897 52.3958 58.5968 50.8877C58.2633 49.631 58.5848 48.5418 59.0016 47.4527C59.3113 46.6747 60.0019 46.1481 60.7998 45.9087C61.4548 45.7172 62.1454 45.6095 62.8242 45.5856C64.3366 45.5377 65.837 45.5736 67.3494 45.5736C68.1591 45.5736 68.3616 45.2385 68.1353 44.4485C67.8614 43.491 67.2184 43.0841 66.3014 43.0721C62.7051 43.0362 59.1207 43.0362 55.5244 43.0242C54.9885 43.0242 54.8575 43.3235 54.8575 43.7902C54.8695 45.5497 54.8575 47.2971 54.8575 49.0565C54.8575 50.1816 55.2982 50.6005 56.3699 50.8279C57.0249 50.9595 57.3107 51.2707 57.5488 51.8093C57.8108 52.4078 58.0966 52.9942 58.442 53.7363C57.2035 53.7363 56.1317 53.7722 55.0481 53.7243C54.0597 53.6765 53.107 53.4371 52.333 52.7668C51.6661 52.1923 51.3089 51.4383 51.1541 50.5526C50.773 48.3384 50.9993 46.1122 50.9278 43.886C50.904 43.0482 50.904 43.0482 50.0823 43.0482C47.915 43.0482 45.7596 43.0721 43.5923 43.0482C42.4491 43.0362 41.6989 43.503 41.2821 44.5921C40.9963 45.3582 41.1273 45.6334 41.9251 45.6334C44.0448 45.6334 46.1764 45.6454 48.2961 45.6215C48.8438 45.6095 49.0582 45.813 49.0344 46.3396C49.0106 46.7824 48.9987 47.2253 49.0344 47.6562C49.0939 48.2546 48.8915 48.4581 48.2722 48.4461C46.224 48.4102 44.1877 48.4341 42.1395 48.4341C41.9608 48.4341 41.7703 48.4102 41.6036 48.4581C41.294 48.5538 41.0915 48.7573 41.1868 49.1283C41.4131 50.0379 42.2943 50.8758 43.2469 50.9117C44.9141 50.9835 46.5813 50.9595 48.2484 50.9835C48.9987 50.9954 49.0225 51.0074 49.0344 51.7495C49.0344 52.2641 49.0225 52.7908 49.0344 53.3054C49.0463 53.6286 48.9272 53.7722 48.5938 53.7722C46.5098 53.7483 44.4139 53.8799 42.3419 53.6884C40.5437 53.5209 39.0552 52.5634 38.0906 50.9356C37.9596 50.6962 37.7929 50.5047 37.5309 50.1696ZM28.2782 42.6652C29.0522 42.6652 29.8263 42.7131 30.6003 42.6532C31.7078 42.5694 32.8033 42.4019 33.232 41.1451C33.4464 40.5108 33.5297 39.8765 33.1249 39.2182C32.5652 38.3085 31.6244 38.1889 30.7789 38.129C29.1475 37.9974 27.4922 38.0811 25.8489 38.1051C25.4678 38.1051 25.1701 38.2846 25.1701 38.7634C25.182 39.8645 25.182 40.9536 25.1701 42.0548C25.1701 42.5216 25.3964 42.6891 25.837 42.6771C26.6587 42.6532 27.4684 42.6652 28.2782 42.6652ZM28.5759 50.2653C29.4928 50.2653 30.3979 50.3132 31.3148 50.2414C31.7792 50.2055 32.2675 50.014 32.6604 49.7746C33.2678 49.3916 33.6012 48.0392 33.363 47.2971C33.113 46.5311 32.2556 45.9207 31.3029 45.9087C29.4452 45.8848 27.5756 45.8967 25.7179 45.8967C25.1939 45.8967 24.9796 46.184 24.9915 46.6867C25.0034 47.6801 25.0153 48.6735 24.9796 49.6789C24.9677 50.1217 25.1225 50.2773 25.5631 50.2773C26.5634 50.2534 27.5756 50.2653 28.5759 50.2653ZM65.4559 50.6244V50.6364C66.0752 50.6364 66.6825 50.6364 67.3017 50.6364C68.2901 50.6364 68.2901 50.6364 68.2901 49.6669C68.2901 49.4634 68.2901 49.2719 68.2901 49.0685C68.2782 48.3863 68.183 48.2785 67.4804 48.2785C66.7063 48.2666 65.9323 48.2666 65.1582 48.2785C64.5271 48.2905 63.884 48.2785 63.2529 48.3384C62.6099 48.3982 62.1573 48.9488 62.2288 49.5592C62.3002 50.1816 62.586 50.6364 63.3005 50.6244C64.027 50.6124 64.7414 50.6244 65.4559 50.6244Z" fill="#A8899D"/>
<path d="M13.012 38.2142C12.8572 35.7367 15.084 34.0611 17.1084 34.0012C19.2758 33.9414 21.3359 36.0838 21.2049 38.286C21.062 40.8115 19.4663 42.3554 17.0608 42.3913C14.953 42.4272 12.8572 40.9551 13.012 38.2142Z" fill="#A8899D"/>
<path d="M19.3116 48.4466C19.3116 49.9188 19.2997 51.4029 19.3235 52.8751C19.3235 53.2581 19.2044 53.4376 18.8352 53.4496C17.7039 53.4735 16.5727 53.4855 15.4414 53.4975C15.0841 53.4975 14.9531 53.282 14.9531 52.911C14.965 49.9427 14.9531 46.9745 14.965 43.9943C14.965 43.4317 15.1317 43.4437 15.6676 43.4916C16.656 43.5873 17.6563 43.5754 18.6447 43.4916C19.1568 43.4437 19.2997 43.4198 19.2997 43.9703C19.3116 45.4545 19.2997 46.9506 19.3116 48.4466Z" fill="#A8899D"/>
</g>
<defs>
<clipPath id="clip0_2772_5422">
<rect width="58.9819" height="19.7604" fill="white" transform="translate(13 34)"/>
</clipPath>
</defs>
</svg>
