<svg width="28" height="28" viewBox="0 0 28 28" fill="none" xmlns="http://www.w3.org/2000/svg">
<path fill-rule="evenodd" clip-rule="evenodd" d="M22.3733 2.28809C23.9162 2.28809 25.1687 3.54071 25.1687 5.08355V22.3733C25.1687 23.9161 23.9161 25.1687 22.3733 25.1687H17.6154V16.5476H20.5916L21.1579 12.8554H17.6154V10.4593C17.6154 9.4492 18.1102 8.46457 19.697 8.46457H21.3076V5.32116C21.3076 5.32116 19.8459 5.07171 18.4484 5.07171C15.5307 5.07171 13.6238 6.84 13.6238 10.0413V12.8554H10.3806V16.5476H13.6238V25.1687H5.08355C3.54071 25.1687 2.28809 23.9161 2.28809 22.3733V5.08355C2.28809 3.54071 3.54067 2.28809 5.08355 2.28809H22.3733V2.28809Z" fill="#482C42"/>
</svg>
