<svg width="28" height="28" viewBox="0 0 28 28" fill="none" xmlns="http://www.w3.org/2000/svg">
<g clip-path="url(#clip0_575_10227)">
<path d="M6.90343 2.28833C4.43772 2.28833 2.41968 4.30632 2.41968 6.77208V20.686C2.41968 23.1517 4.43767 25.169 6.90343 25.169H20.8173C23.2831 25.169 25.3003 23.1517 25.3003 20.686V6.77208C25.3003 4.30637 23.2831 2.28833 20.8173 2.28833H6.90343ZM8.03116 6.0641C9.21342 6.0641 9.94164 6.84023 9.96412 7.86044C9.96412 8.85813 9.21337 9.65608 8.0083 9.65608H7.98611C6.82636 9.65608 6.07676 8.85818 6.07676 7.86044C6.07676 6.84025 6.84904 6.0641 8.03114 6.0641H8.03116ZM18.2193 10.8325C20.493 10.8325 22.1975 12.3186 22.1975 15.5121V21.474H18.7421V15.9118C18.7421 14.5141 18.242 13.5606 16.9915 13.5606C16.0369 13.5606 15.4679 14.2033 15.218 14.8242C15.1268 15.0463 15.1043 15.3565 15.1043 15.6673V21.474H11.6489C11.6489 21.474 11.6943 12.0519 11.6489 11.0763H15.105V12.5487C15.5642 11.8402 16.3856 10.8324 18.2193 10.8324V10.8325ZM6.28058 11.077H9.73599V21.474H6.28058V11.077Z" fill="#482C42"/>
</g>
<defs>
<clipPath id="clip0_575_10227">
<rect width="27.4568" height="27.4568" fill="white" transform="translate(0.131592)"/>
</clipPath>
</defs>
</svg>
