<svg width="672" height="163" viewBox="0 0 672 163" fill="none" xmlns="http://www.w3.org/2000/svg">
<path d="M57.448 117L39.716 91.58C38.972 91.6627 37.856 91.704 36.368 91.704H16.776V117H0.656006V30.2H36.368C43.8907 30.2 50.4213 31.44 55.96 33.92C61.5813 36.4 65.88 39.9547 68.856 44.584C71.832 49.2134 73.32 54.7107 73.32 61.076C73.32 67.6067 71.708 73.228 68.484 77.94C65.3427 82.652 60.796 86.1654 54.844 88.48L74.808 117H57.448ZM57.076 61.076C57.076 55.5373 55.2573 51.28 51.62 48.304C47.9827 45.328 42.6507 43.84 35.624 43.84H16.776V78.436H35.624C42.6507 78.436 47.9827 76.948 51.62 73.972C55.2573 70.9133 57.076 66.6147 57.076 61.076Z" fill="#BB5285"/>
<path d="M121.363 104.724C128.555 104.724 134.549 102.327 139.343 97.532L147.527 107.08C144.634 110.635 140.914 113.321 136.367 115.14C131.821 116.959 126.695 117.868 120.991 117.868C113.717 117.868 107.31 116.421 101.771 113.528C96.2326 110.635 91.9339 106.625 88.8752 101.5C85.8992 96.292 84.4112 90.4227 84.4112 83.892C84.4112 77.444 85.8579 71.6573 88.7512 66.532C91.7272 61.324 95.7779 57.2733 100.903 54.38C106.111 51.4867 111.981 50.04 118.511 50.04C124.711 50.04 130.333 51.404 135.375 54.132C140.501 56.7773 144.551 60.6213 147.527 65.664C150.503 70.624 151.991 76.452 151.991 83.148L101.275 93.068C102.846 96.8707 105.367 99.764 108.839 101.748C112.311 103.732 116.486 104.724 121.363 104.724ZM118.511 62.44C112.807 62.44 108.178 64.3 104.623 68.02C101.151 71.74 99.4152 76.7414 99.4152 83.024V83.148L136.863 75.956C135.789 71.9054 133.598 68.64 130.291 66.16C127.067 63.68 123.141 62.44 118.511 62.44Z" fill="#BB5285"/>
<path d="M197.263 117.868C190.401 117.868 184.243 116.421 178.787 113.528C173.331 110.635 169.073 106.625 166.015 101.5C162.956 96.292 161.427 90.4227 161.427 83.892C161.427 77.3613 162.956 71.5333 166.015 66.408C169.073 61.2827 173.289 57.2733 178.663 54.38C184.119 51.4867 190.319 50.04 197.263 50.04C203.793 50.04 209.497 51.3627 214.375 54.008C219.335 56.6534 223.055 60.456 225.535 65.416L213.631 72.36C211.729 69.3013 209.332 67.028 206.439 65.54C203.628 63.9694 200.528 63.184 197.139 63.184C191.352 63.184 186.557 65.0853 182.755 68.888C178.952 72.608 177.051 77.6093 177.051 83.892C177.051 90.1747 178.911 95.2173 182.631 99.02C186.433 102.74 191.269 104.6 197.139 104.6C200.528 104.6 203.628 103.856 206.439 102.368C209.332 100.797 211.729 98.4827 213.631 95.424L225.535 102.368C222.972 107.328 219.211 111.172 214.251 113.9C209.373 116.545 203.711 117.868 197.263 117.868Z" fill="#BB5285"/>
<path d="M267.725 117.868C261.029 117.868 254.994 116.421 249.621 113.528C244.248 110.635 240.032 106.625 236.973 101.5C233.997 96.292 232.509 90.4227 232.509 83.892C232.509 77.3613 233.997 71.5333 236.973 66.408C240.032 61.2827 244.248 57.2733 249.621 54.38C254.994 51.4867 261.029 50.04 267.725 50.04C274.504 50.04 280.58 51.4867 285.953 54.38C291.326 57.2733 295.501 61.2827 298.477 66.408C301.536 71.5333 303.065 77.3613 303.065 83.892C303.065 90.4227 301.536 96.292 298.477 101.5C295.501 106.625 291.326 110.635 285.953 113.528C280.58 116.421 274.504 117.868 267.725 117.868ZM267.725 104.6C273.429 104.6 278.141 102.699 281.861 98.896C285.581 95.0933 287.441 90.092 287.441 83.892C287.441 77.692 285.581 72.6907 281.861 68.888C278.141 65.0853 273.429 63.184 267.725 63.184C262.021 63.184 257.309 65.0853 253.589 68.888C249.952 72.6907 248.133 77.692 248.133 83.892C248.133 90.092 249.952 95.0933 253.589 98.896C257.309 102.699 262.021 104.6 267.725 104.6Z" fill="#BB5285"/>
<path d="M383.607 50.784V106.956C383.607 130.268 371.703 141.924 347.895 141.924C341.529 141.924 335.495 141.097 329.791 139.444C324.087 137.873 319.375 135.559 315.655 132.5L322.599 120.844C325.492 123.241 329.129 125.143 333.511 126.548C337.975 128.036 342.48 128.78 347.027 128.78C354.301 128.78 359.633 127.127 363.023 123.82C366.412 120.513 368.107 115.471 368.107 108.692V105.22C365.461 108.113 362.237 110.304 358.435 111.792C354.632 113.28 350.457 114.024 345.911 114.024C339.628 114.024 333.924 112.701 328.799 110.056C323.756 107.328 319.747 103.525 316.771 98.648C313.877 93.7707 312.431 88.1907 312.431 81.908C312.431 75.6253 313.877 70.0867 316.771 65.292C319.747 60.4147 323.756 56.6534 328.799 54.008C333.924 51.3627 339.628 50.04 345.911 50.04C350.705 50.04 355.045 50.8253 358.931 52.396C362.899 53.9667 366.205 56.364 368.851 59.588V50.784H383.607ZM348.267 100.88C354.136 100.88 358.931 99.144 362.651 95.672C366.453 92.1173 368.355 87.5293 368.355 81.908C368.355 76.3693 366.453 71.864 362.651 68.392C358.931 64.92 354.136 63.184 348.267 63.184C342.315 63.184 337.437 64.92 333.635 68.392C329.915 71.864 328.055 76.3693 328.055 81.908C328.055 87.5293 329.915 92.1173 333.635 95.672C337.437 99.144 342.315 100.88 348.267 100.88Z" fill="#BB5285"/>
<path d="M441.556 50.04C449.906 50.04 456.602 52.4787 461.644 57.356C466.687 62.2333 469.208 69.4667 469.208 79.056V117H453.708V81.04C453.708 75.2534 452.344 70.9133 449.616 68.02C446.888 65.044 443.003 63.556 437.96 63.556C432.256 63.556 427.751 65.292 424.444 68.764C421.138 72.1533 419.484 77.072 419.484 83.52V117H403.984V50.784H418.74V59.34C421.303 56.2813 424.527 53.9667 428.412 52.396C432.298 50.8253 436.679 50.04 441.556 50.04Z" fill="#BB5285"/>
<path d="M553.6 53.3712H564.701V114.428H553.6V53.3712ZM590.427 105.265C591.073 105.324 591.925 105.383 592.982 105.441C594.039 105.441 595.478 105.441 597.299 105.441C604.759 105.441 610.309 103.562 613.951 99.8026C617.651 95.9847 619.502 90.669 619.502 83.8556C619.502 76.9246 617.71 71.6089 614.127 67.9085C610.544 64.2081 604.994 62.3579 597.475 62.3579C594.186 62.3579 591.837 62.446 590.427 62.6222V105.265ZM631.132 83.8556C631.132 89.1419 630.309 93.7527 628.665 97.6881C627.02 101.565 624.67 104.825 621.616 107.468C618.621 110.052 614.979 111.991 610.691 113.283C606.462 114.516 601.763 115.133 596.594 115.133C594.127 115.133 591.337 115.015 588.224 114.781C585.111 114.604 582.145 114.193 579.326 113.547V54.2522C582.145 53.6061 585.141 53.1949 588.312 53.0187C591.484 52.8425 594.304 52.7544 596.77 52.7544C601.881 52.7544 606.55 53.3712 610.779 54.6046C615.008 55.7794 618.621 57.6589 621.616 60.2434C624.67 62.769 627.02 65.9996 628.665 69.9349C630.309 73.8116 631.132 78.4518 631.132 83.8556Z" fill="#BB5285"/>
<rect x="515.535" y="5.67619" width="151.504" height="151.504" rx="29.3684" stroke="#BB5285" stroke-width="9.78947" stroke-linecap="round" stroke-dasharray="39.16 39.16"/>
</svg>
