<svg width="672" height="162" viewBox="0 0 672 162" fill="none" xmlns="http://www.w3.org/2000/svg">
<path d="M56.792 111.795L39.06 86.3751C38.316 86.4578 37.2 86.4991 35.712 86.4991H16.12V111.795H0V24.9951H35.712C43.2347 24.9951 49.7653 26.2351 55.304 28.7151C60.9253 31.1951 65.224 34.7498 68.2 39.3791C71.176 44.0085 72.664 49.5058 72.664 55.8711C72.664 62.4018 71.052 68.0231 67.828 72.7351C64.6867 77.4471 60.14 80.9605 54.188 83.2751L74.152 111.795H56.792ZM56.42 55.8711C56.42 50.3324 54.6013 46.0751 50.964 43.0991C47.3267 40.1231 41.9947 38.6351 34.968 38.6351H16.12V73.2311H34.968C41.9947 73.2311 47.3267 71.7431 50.964 68.7671C54.6013 65.7085 56.42 61.4098 56.42 55.8711Z" fill="white"/>
<path d="M120.707 99.5191C127.899 99.5191 133.893 97.1218 138.687 92.3271L146.871 101.875C143.978 105.43 140.258 108.116 135.711 109.935C131.165 111.754 126.039 112.663 120.335 112.663C113.061 112.663 106.654 111.216 101.115 108.323C95.5765 105.43 91.2779 101.42 88.2192 96.2951C85.2432 91.0871 83.7552 85.2178 83.7552 78.6871C83.7552 72.2391 85.2019 66.4525 88.0952 61.3271C91.0712 56.1191 95.1219 52.0685 100.247 49.1751C105.455 46.2818 111.325 44.8351 117.855 44.8351C124.055 44.8351 129.677 46.1991 134.719 48.9271C139.845 51.5725 143.895 55.4165 146.871 60.4591C149.847 65.4191 151.335 71.2471 151.335 77.9431L100.619 87.8631C102.19 91.6658 104.711 94.5591 108.183 96.5431C111.655 98.5271 115.83 99.5191 120.707 99.5191ZM117.855 57.2351C112.151 57.2351 107.522 59.0951 103.967 62.8151C100.495 66.5351 98.7592 71.5365 98.7592 77.8191V77.9431L136.207 70.7511C135.133 66.7005 132.942 63.4351 129.635 60.9551C126.411 58.4751 122.485 57.2351 117.855 57.2351Z" fill="white"/>
<path d="M196.607 112.663C189.745 112.663 183.587 111.216 178.131 108.323C172.675 105.43 168.417 101.42 165.359 96.2951C162.3 91.0871 160.771 85.2178 160.771 78.6871C160.771 72.1564 162.3 66.3284 165.359 61.2031C168.417 56.0778 172.633 52.0685 178.007 49.1751C183.463 46.2818 189.663 44.8351 196.607 44.8351C203.137 44.8351 208.841 46.1578 213.719 48.8031C218.679 51.4485 222.399 55.2511 224.879 60.2111L212.975 67.1551C211.073 64.0965 208.676 61.8231 205.783 60.3351C202.972 58.7645 199.872 57.9791 196.483 57.9791C190.696 57.9791 185.901 59.8805 182.099 63.6831C178.296 67.4031 176.395 72.4044 176.395 78.6871C176.395 84.9698 178.255 90.0124 181.975 93.8151C185.777 97.5351 190.613 99.3951 196.483 99.3951C199.872 99.3951 202.972 98.6511 205.783 97.1631C208.676 95.5924 211.073 93.2778 212.975 90.2191L224.879 97.1631C222.316 102.123 218.555 105.967 213.595 108.695C208.717 111.34 203.055 112.663 196.607 112.663Z" fill="white"/>
<path d="M267.069 112.663C260.373 112.663 254.338 111.216 248.965 108.323C243.592 105.43 239.376 101.42 236.317 96.2951C233.341 91.0871 231.853 85.2178 231.853 78.6871C231.853 72.1564 233.341 66.3284 236.317 61.2031C239.376 56.0778 243.592 52.0685 248.965 49.1751C254.338 46.2818 260.373 44.8351 267.069 44.8351C273.848 44.8351 279.924 46.2818 285.297 49.1751C290.67 52.0685 294.845 56.0778 297.821 61.2031C300.879 66.3284 302.409 72.1564 302.409 78.6871C302.409 85.2178 300.879 91.0871 297.821 96.2951C294.845 101.42 290.67 105.43 285.297 108.323C279.924 111.216 273.848 112.663 267.069 112.663ZM267.069 99.3951C272.773 99.3951 277.485 97.4938 281.205 93.6911C284.925 89.8885 286.785 84.8871 286.785 78.6871C286.785 72.4871 284.925 67.4858 281.205 63.6831C277.485 59.8805 272.773 57.9791 267.069 57.9791C261.365 57.9791 256.653 59.8805 252.933 63.6831C249.295 67.4858 247.477 72.4871 247.477 78.6871C247.477 84.8871 249.295 89.8885 252.933 93.6911C256.653 97.4938 261.365 99.3951 267.069 99.3951Z" fill="white"/>
<path d="M382.951 45.5791V101.751C382.951 125.063 371.047 136.719 347.239 136.719C340.873 136.719 334.839 135.892 329.135 134.239C323.431 132.668 318.719 130.354 314.999 127.295L321.943 115.639C324.836 118.036 328.473 119.938 332.855 121.343C337.319 122.831 341.824 123.575 346.371 123.575C353.645 123.575 358.977 121.922 362.367 118.615C365.756 115.308 367.451 110.266 367.451 103.487V100.015C364.805 102.908 361.581 105.099 357.779 106.587C353.976 108.075 349.801 108.819 345.255 108.819C338.972 108.819 333.268 107.496 328.143 104.851C323.1 102.123 319.091 98.3204 316.115 93.4431C313.221 88.5658 311.775 82.9858 311.775 76.7031C311.775 70.4204 313.221 64.8818 316.115 60.0871C319.091 55.2098 323.1 51.4485 328.143 48.8031C333.268 46.1578 338.972 44.8351 345.255 44.8351C350.049 44.8351 354.389 45.6205 358.275 47.1911C362.243 48.7618 365.549 51.1591 368.195 54.3831V45.5791H382.951ZM347.611 95.6751C353.48 95.6751 358.275 93.9391 361.995 90.4671C365.797 86.9125 367.699 82.3244 367.699 76.7031C367.699 71.1644 365.797 66.6591 361.995 63.1871C358.275 59.7151 353.48 57.9791 347.611 57.9791C341.659 57.9791 336.781 59.7151 332.979 63.1871C329.259 66.6591 327.399 71.1644 327.399 76.7031C327.399 82.3244 329.259 86.9125 332.979 90.4671C336.781 93.9391 341.659 95.6751 347.611 95.6751Z" fill="white"/>
<path d="M440.9 44.8351C449.25 44.8351 455.946 47.2738 460.988 52.1511C466.031 57.0285 468.552 64.2618 468.552 73.8511V111.795H453.052V75.8351C453.052 70.0485 451.688 65.7085 448.96 62.8151C446.232 59.8391 442.347 58.3511 437.304 58.3511C431.6 58.3511 427.095 60.0871 423.788 63.5591C420.482 66.9485 418.828 71.8671 418.828 78.3151V111.795H403.328V45.5791H418.084V54.1351C420.647 51.0764 423.871 48.7618 427.756 47.1911C431.642 45.6205 436.023 44.8351 440.9 44.8351Z" fill="white"/>
<path d="M552.722 52.8002H563.823V113.857H552.722V52.8002ZM589.549 104.694C590.196 104.753 591.047 104.812 592.105 104.87C593.162 104.87 594.601 104.87 596.422 104.87C603.881 104.87 609.432 102.991 613.074 99.2317C616.774 95.4138 618.624 90.0981 618.624 83.2847C618.624 76.3537 616.833 71.038 613.25 67.3376C609.667 63.6372 604.116 61.787 596.598 61.787C593.309 61.787 590.959 61.8751 589.549 62.0513V104.694ZM630.254 83.2847C630.254 88.571 629.432 93.1818 627.787 97.1172C626.143 100.994 623.793 104.254 620.739 106.897C617.743 109.481 614.101 111.42 609.814 112.712C605.585 113.945 600.886 114.562 595.717 114.562C593.25 114.562 590.46 114.445 587.347 114.21C584.234 114.033 581.268 113.622 578.448 112.976V53.6813C581.268 53.0352 584.263 52.624 587.435 52.4478C590.607 52.2716 593.426 52.1835 595.893 52.1835C601.003 52.1835 605.673 52.8002 609.902 54.0337C614.131 55.2084 617.743 57.088 620.739 59.6724C623.793 62.1981 626.143 65.4287 627.787 69.364C629.432 73.2407 630.254 77.8809 630.254 83.2847Z" fill="white"/>
<rect x="514.658" y="5.10526" width="151.504" height="151.504" rx="29.3684" stroke="white" stroke-width="9.78947" stroke-linecap="round" stroke-dasharray="39.16 39.16"/>
</svg>
