<svg width="28" height="28" viewBox="0 0 28 28" fill="none" xmlns="http://www.w3.org/2000/svg">
<g clip-path="url(#clip0_575_10242)">
<path d="M9.54952 22.8807C18.1838 22.8807 22.9063 15.3976 22.9063 8.90829C22.9063 8.69577 22.9063 8.48418 22.8926 8.27354C23.8113 7.57834 24.6044 6.71765 25.2347 5.73164C24.3779 6.12877 23.469 6.38915 22.5384 6.50425C23.5182 5.89072 24.2519 4.92499 24.6022 3.78807C23.6808 4.36004 22.6726 4.7632 21.6213 4.98006C20.7337 3.99269 19.4941 3.43213 18.1985 3.43213C15.6208 3.43213 13.4997 5.651 13.4997 8.34745C13.4997 8.72153 13.5405 9.09444 13.6213 9.4588C9.8488 9.261 6.32903 7.39434 3.94649 4.32806C2.70754 6.55918 3.3486 9.45057 5.39986 10.8834C4.65288 10.8603 3.92195 10.6494 3.26923 10.2688V10.331C3.26986 12.6597 4.85331 14.6838 7.03538 15.1449C6.34431 15.342 5.61906 15.3708 4.91574 15.2291C5.52919 17.2246 7.29815 18.6 9.3015 18.6394C7.63953 20.0057 5.58532 20.7479 3.47149 20.7457C3.09798 20.7449 2.72483 20.7213 2.354 20.6748C4.50058 22.1158 6.99896 22.8804 9.54952 22.8769" fill="#482C42"/>
</g>
<defs>
<clipPath id="clip0_575_10242">
<rect width="27.4568" height="27.4568" fill="white" transform="translate(0.065918)"/>
</clipPath>
</defs>
</svg>
