<?xml version="1.0" encoding="utf-8"?>
<svg version="1.1" id="sing-in-icon" xmlns="http://www.w3.org/2000/svg" xmlns:xlink="http://www.w3.org/1999/xlink" x="0px"
	 y="0px" width="24px" height="24px" viewBox="0 0 24 24" enable-background="new 0 0 24 24" xml:space="preserve">
<path fill="#373745" d="M4,7H20c0.6,0,1-0.4,1-1s-0.4-1-1-1H4C3.5,5,3,5.4,3,6S3.5,7,4,7z M20,11H4c-0.6,0-1,0.4-1,1s0.4,1,1,1H20
	c0.6,0,1-0.4,1-1S20.5,11,20,11z M20,17H4c-0.6,0-1,0.4-1,1s0.4,1,1,1H20c0.6,0,1-0.4,1-1S20.5,17,20,17z"/>
</svg>
