<svg width="170" height="34" viewBox="0 0 170 34" fill="none" xmlns="http://www.w3.org/2000/svg">
<g clip-path="url(#clip0_619_4508)">
<path fill-rule="evenodd" clip-rule="evenodd" d="M154.031 3.18188C153.75 2.90057 153.368 2.74254 152.971 2.74254C152.573 2.74254 152.191 2.90057 151.91 3.18188L139.182 15.9098C138.901 16.1911 138.743 16.5726 138.743 16.9705C138.743 17.3683 138.901 17.7498 139.182 18.0311L151.91 30.759C152.191 31.0403 152.573 31.1984 152.971 31.1984C153.368 31.1984 153.75 31.0403 154.031 30.759L166.759 18.0311C167.04 17.7498 167.198 17.3683 167.198 16.9705C167.198 16.5726 167.04 16.1911 166.759 15.9098L154.031 3.18188ZM138.121 19.0918C137.559 18.5292 137.243 17.7661 137.243 16.9705C137.243 16.1748 137.559 15.4117 138.121 14.8491L150.849 2.12122C151.412 1.55861 152.175 1.24254 152.971 1.24254C153.766 1.24254 154.529 1.55861 155.092 2.12122L167.82 14.8491C168.382 15.4117 168.698 16.1748 168.698 16.9705C168.698 17.7661 168.382 18.5292 167.82 19.0918L155.092 31.8197C154.529 32.3823 153.766 32.6984 152.971 32.6984C152.175 32.6984 151.412 32.3823 150.849 31.8197L138.121 19.0918ZM147.667 16.2195C147.468 16.2195 147.277 16.2986 147.136 16.4395C146.995 16.5803 146.916 16.7713 146.916 16.9705C146.916 17.1696 146.995 17.3606 147.136 17.5015C147.277 17.6423 147.468 17.7214 147.667 17.7214L156.357 17.7203L153.421 20.6563C153.281 20.7969 153.202 20.9877 153.202 21.1866C153.202 21.3855 153.281 21.5763 153.421 21.7169C153.562 21.8576 153.753 21.9366 153.952 21.9366C154.151 21.9366 154.341 21.8576 154.482 21.7169L158.698 17.5008C158.839 17.3601 158.918 17.1694 158.918 16.9705C158.918 16.7715 158.839 16.5808 158.698 16.4401L154.482 12.224C154.341 12.0834 154.151 12.0043 153.952 12.0043C153.753 12.0043 153.562 12.0834 153.421 12.224C153.281 12.3647 153.202 12.5554 153.202 12.7543C153.202 12.9532 153.281 13.144 153.421 13.2847L156.357 16.2206L147.667 16.2195Z" fill="#50263A"/>
</g>
<g clip-path="url(#clip1_619_4508)">
<path fill-rule="evenodd" clip-rule="evenodd" d="M120.031 3.18188C119.75 2.90057 119.368 2.74254 118.971 2.74254C118.573 2.74254 118.191 2.90057 117.91 3.18188L105.182 15.9098C104.901 16.1911 104.743 16.5726 104.743 16.9705C104.743 17.3683 104.901 17.7498 105.182 18.0311L117.91 30.759C118.191 31.0403 118.573 31.1984 118.971 31.1984C119.368 31.1984 119.75 31.0403 120.031 30.759L132.759 18.0311C133.04 17.7498 133.198 17.3683 133.198 16.9705C133.198 16.5726 133.04 16.1911 132.759 15.9098L120.031 3.18188ZM104.121 19.0918C103.559 18.5292 103.243 17.7661 103.243 16.9705C103.243 16.1748 103.559 15.4117 104.121 14.8491L116.849 2.12122C117.412 1.55861 118.175 1.24254 118.971 1.24254C119.766 1.24254 120.529 1.55861 121.092 2.12122L133.82 14.8491C134.382 15.4117 134.698 16.1748 134.698 16.9705C134.698 17.7661 134.382 18.5292 133.82 19.0918L121.092 31.8197C120.529 32.3823 119.766 32.6984 118.971 32.6984C118.175 32.6984 117.412 32.3823 116.849 31.8197L104.121 19.0918ZM113.667 16.2195C113.468 16.2195 113.277 16.2986 113.136 16.4395C112.995 16.5803 112.916 16.7713 112.916 16.9705C112.916 17.1696 112.995 17.3606 113.136 17.5015C113.277 17.6423 113.468 17.7214 113.667 17.7214L122.357 17.7203L119.421 20.6563C119.281 20.7969 119.202 20.9877 119.202 21.1866C119.202 21.3855 119.281 21.5763 119.421 21.7169C119.562 21.8576 119.753 21.9366 119.952 21.9366C120.151 21.9366 120.341 21.8576 120.482 21.7169L124.698 17.5008C124.839 17.3601 124.918 17.1694 124.918 16.9705C124.918 16.7715 124.839 16.5808 124.698 16.4401L120.482 12.224C120.341 12.0834 120.151 12.0043 119.952 12.0043C119.753 12.0043 119.562 12.0834 119.421 12.224C119.281 12.3647 119.202 12.5554 119.202 12.7543C119.202 12.9532 119.281 13.144 119.421 13.2847L122.357 16.2206L113.667 16.2195Z" fill="#816375"/>
</g>
<g clip-path="url(#clip2_619_4508)">
<path fill-rule="evenodd" clip-rule="evenodd" d="M86.0312 3.18188C85.7499 2.90057 85.3684 2.74254 84.9706 2.74254C84.5727 2.74254 84.1912 2.90057 83.9099 3.18188L71.182 15.9098C70.9007 16.1911 70.7426 16.5726 70.7426 16.9705C70.7426 17.3683 70.9007 17.7498 71.182 18.0311L83.9099 30.759C84.1912 31.0403 84.5727 31.1984 84.9706 31.1984C85.3684 31.1984 85.7499 31.0403 86.0312 30.759L98.7591 18.0311C99.0404 17.7498 99.1985 17.3683 99.1985 16.9705C99.1985 16.5726 99.0404 16.1911 98.7591 15.9098L86.0312 3.18188ZM70.1213 19.0918C69.5587 18.5292 69.2426 17.7661 69.2426 16.9705C69.2426 16.1748 69.5587 15.4117 70.1213 14.8491L82.8492 2.12122C83.4119 1.55861 84.1749 1.24254 84.9706 1.24254C85.7662 1.24254 86.5293 1.55861 87.0919 2.12122L99.8198 14.8491C100.382 15.4117 100.698 16.1748 100.698 16.9705C100.698 17.7661 100.382 18.5292 99.8198 19.0918L87.0919 31.8197C86.5293 32.3823 85.7662 32.6984 84.9706 32.6984C84.1749 32.6984 83.4119 32.3823 82.8492 31.8197L70.1213 19.0918ZM79.6673 16.2195C79.4681 16.2195 79.2771 16.2986 79.1363 16.4395C78.9954 16.5803 78.9163 16.7713 78.9163 16.9705C78.9163 17.1696 78.9954 17.3606 79.1363 17.5015C79.2771 17.6423 79.4681 17.7214 79.6673 17.7214L88.3573 17.7203L85.4213 20.6563C85.2807 20.7969 85.2017 20.9877 85.2017 21.1866C85.2017 21.3855 85.2807 21.5763 85.4213 21.7169C85.562 21.8576 85.7528 21.9366 85.9517 21.9366C86.1506 21.9366 86.3414 21.8576 86.482 21.7169L90.6981 17.5008C90.8388 17.3601 90.9178 17.1694 90.9178 16.9705C90.9178 16.7715 90.8388 16.5808 90.6981 16.4401L86.482 12.224C86.3414 12.0834 86.1506 12.0043 85.9517 12.0043C85.7528 12.0043 85.562 12.0834 85.4213 12.224C85.2807 12.3647 85.2017 12.5554 85.2017 12.7543C85.2017 12.9532 85.2807 13.144 85.4213 13.2847L88.3573 16.2206L79.6673 16.2195Z" fill="#A18C9C"/>
</g>
<g clip-path="url(#clip3_619_4508)">
<path fill-rule="evenodd" clip-rule="evenodd" d="M52.0312 3.18188C51.7499 2.90057 51.3684 2.74254 50.9706 2.74254C50.5727 2.74254 50.1912 2.90057 49.9099 3.18188L37.182 15.9098C36.9007 16.1911 36.7426 16.5726 36.7426 16.9705C36.7426 17.3683 36.9007 17.7498 37.182 18.0311L49.9099 30.759C50.1912 31.0403 50.5727 31.1984 50.9706 31.1984C51.3684 31.1984 51.7499 31.0403 52.0312 30.759L64.7591 18.0311C65.0404 17.7498 65.1985 17.3683 65.1985 16.9705C65.1985 16.5726 65.0404 16.1911 64.7591 15.9098L52.0312 3.18188ZM36.1213 19.0918C35.5587 18.5292 35.2426 17.7661 35.2426 16.9705C35.2426 16.1748 35.5587 15.4117 36.1213 14.8491L48.8492 2.12122C49.4119 1.55861 50.1749 1.24254 50.9706 1.24254C51.7662 1.24254 52.5293 1.55861 53.0919 2.12122L65.8198 14.8491C66.3824 15.4117 66.6985 16.1748 66.6985 16.9705C66.6985 17.7661 66.3824 18.5292 65.8198 19.0918L53.0919 31.8197C52.5293 32.3823 51.7662 32.6984 50.9706 32.6984C50.1749 32.6984 49.4119 32.3823 48.8492 31.8197L36.1213 19.0918ZM45.6673 16.2195C45.4681 16.2195 45.2771 16.2986 45.1363 16.4395C44.9954 16.5803 44.9163 16.7713 44.9163 16.9705C44.9163 17.1696 44.9954 17.3606 45.1363 17.5015C45.2771 17.6423 45.4681 17.7214 45.6673 17.7214L54.3573 17.7203L51.4213 20.6563C51.2807 20.7969 51.2017 20.9877 51.2017 21.1866C51.2017 21.3855 51.2807 21.5763 51.4213 21.7169C51.562 21.8576 51.7528 21.9366 51.9517 21.9366C52.1506 21.9366 52.3414 21.8576 52.482 21.7169L56.6981 17.5008C56.8388 17.3601 56.9178 17.1694 56.9178 16.9705C56.9178 16.7715 56.8388 16.5808 56.6981 16.4401L52.482 12.224C52.3414 12.0834 52.1506 12.0043 51.9517 12.0043C51.7528 12.0043 51.562 12.0834 51.4213 12.224C51.2807 12.3647 51.2017 12.5554 51.2017 12.7543C51.2017 12.9532 51.2807 13.144 51.4213 13.2847L54.3573 16.2206L45.6673 16.2195Z" fill="#C2B5C4"/>
</g>
<g clip-path="url(#clip4_619_4508)">
<path fill-rule="evenodd" clip-rule="evenodd" d="M18.0312 3.18188C17.7499 2.90057 17.3684 2.74254 16.9706 2.74254C16.5727 2.74254 16.1912 2.90057 15.9099 3.18188L3.18198 15.9098C2.90068 16.1911 2.74264 16.5726 2.74264 16.9705C2.74264 17.3683 2.90068 17.7498 3.18198 18.0311L15.9099 30.759C16.1912 31.0403 16.5727 31.1984 16.9706 31.1984C17.3684 31.1984 17.7499 31.0403 18.0312 30.759L30.7591 18.0311C31.0404 17.7498 31.1985 17.3683 31.1985 16.9705C31.1985 16.5726 31.0404 16.1911 30.7591 15.9098L18.0312 3.18188ZM2.12132 19.0918C1.55871 18.5292 1.24264 17.7661 1.24264 16.9705C1.24264 16.1748 1.55871 15.4117 2.12132 14.8491L14.8492 2.12122C15.4119 1.55861 16.1749 1.24254 16.9706 1.24254C17.7662 1.24254 18.5293 1.55861 19.0919 2.12122L31.8198 14.8491C32.3824 15.4117 32.6985 16.1748 32.6985 16.9705C32.6985 17.7661 32.3824 18.5292 31.8198 19.0918L19.0919 31.8197C18.5293 32.3823 17.7662 32.6984 16.9706 32.6984C16.1749 32.6984 15.4119 32.3823 14.8492 31.8197L2.12132 19.0918ZM11.6673 16.2195C11.4681 16.2195 11.2771 16.2986 11.1363 16.4395C10.9954 16.5803 10.9163 16.7713 10.9163 16.9705C10.9163 17.1696 10.9954 17.3606 11.1363 17.5015C11.2771 17.6423 11.4681 17.7214 11.6673 17.7214L20.3573 17.7203L17.4213 20.6563C17.2807 20.7969 17.2017 20.9877 17.2017 21.1866C17.2017 21.3855 17.2807 21.5763 17.4213 21.7169C17.562 21.8576 17.7528 21.9366 17.9517 21.9366C18.1506 21.9366 18.3414 21.8576 18.482 21.7169L22.6981 17.5008C22.8388 17.3601 22.9178 17.1694 22.9178 16.9705C22.9178 16.7715 22.8388 16.5808 22.6981 16.4401L18.482 12.224C18.3414 12.0834 18.1506 12.0043 17.9517 12.0043C17.7528 12.0043 17.562 12.0834 17.4213 12.224C17.2807 12.3647 17.2017 12.5554 17.2017 12.7543C17.2017 12.9532 17.2807 13.144 17.4213 13.2847L20.3573 16.2206L11.6673 16.2195Z" fill="#DBD4E1"/>
</g>
<defs>
<clipPath id="clip0_619_4508">
<rect width="24" height="24" fill="white" transform="translate(136 16.9705) rotate(-45)"/>
</clipPath>
<clipPath id="clip1_619_4508">
<rect width="24" height="24" fill="white" transform="translate(102 16.9705) rotate(-45)"/>
</clipPath>
<clipPath id="clip2_619_4508">
<rect width="24" height="24" fill="white" transform="translate(68 16.9705) rotate(-45)"/>
</clipPath>
<clipPath id="clip3_619_4508">
<rect width="24" height="24" fill="white" transform="translate(34 16.9705) rotate(-45)"/>
</clipPath>
<clipPath id="clip4_619_4508">
<rect width="24" height="24" fill="white" transform="translate(0 16.9705) rotate(-45)"/>
</clipPath>
</defs>
</svg>
