<svg width="48" height="48" viewBox="0 0 48 48" fill="none" xmlns="http://www.w3.org/2000/svg">
<g clip-path="url(#clip0_1180_6579)">
<path d="M14.624 18H11.376L7 30H10.214L11.106 27.548H14.894L15.786 30H19L14.624 18ZM11.836 25.548L13 22.36L14.164 25.55L11.836 25.548ZM29.488 18H22.488V30H25.488V26H29.488C29.884 26.0073 30.2774 25.9348 30.6447 25.7866C31.0119 25.6384 31.3456 25.4177 31.6256 25.1377C31.9057 24.8576 32.1264 24.524 32.2746 24.1567C32.4227 23.7894 32.4953 23.396 32.488 23V21C32.4953 20.604 32.4227 20.2106 32.2746 19.8434C32.1264 19.4761 31.9057 19.1424 31.6256 18.8624C31.3456 18.5823 31.0119 18.3616 30.6447 18.2135C30.2774 18.0653 29.884 17.9927 29.488 18ZM29.488 23H25.488C25.488 23 25.1387 21.6986 25.488 21C26.1866 19.6028 29.488 21 29.488 21V23ZM36 18H39V30H36V18Z" fill="#482C42"/>
<path d="M44.3077 11.0769V36.9231H3.69231V11.0769H44.3077ZM44 8H4C2.93913 8 1.92172 8.42143 1.17157 9.17157C0.421427 9.92172 0 10.9391 0 12L0 36C0 37.0609 0.421427 38.0783 1.17157 38.8284C1.92172 39.5786 2.93913 40 4 40H44C45.0609 40 46.0783 39.5786 46.8284 38.8284C47.5786 38.0783 48 37.0609 48 36V12C48 10.9391 47.5786 9.92172 46.8284 9.17157C46.0783 8.42143 45.0609 8 44 8Z" fill="#482C42"/>
</g>
<defs>
<clipPath id="clip0_1180_6579">
<rect width="48" height="48" fill="white"/>
</clipPath>
</defs>
</svg>
