<svg width="48" height="48" viewBox="0 0 48 48" fill="none" xmlns="http://www.w3.org/2000/svg">
<path fill-rule="evenodd" clip-rule="evenodd" d="M6.05898 6.93892C5.23326 6.93892 4.56389 7.61149 4.56389 8.44115V32.4769C4.56389 33.3066 5.23326 33.9792 6.05898 33.9792H41.9409C42.7667 33.9792 43.436 33.3066 43.436 32.4769V8.44115C43.436 7.61149 42.7667 6.93892 41.9409 6.93892H6.05898ZM1.57373 8.44115C1.57373 5.95217 3.58184 3.93445 6.05898 3.93445H41.9409C44.4181 3.93445 46.4262 5.95217 46.4262 8.44115V32.4769C46.4262 34.9659 44.4181 36.9836 41.9409 36.9836H6.05898C3.58184 36.9836 1.57373 34.9659 1.57373 32.4769V8.44115Z" fill="#482C42"/>
<path d="M28.3279 41.7049L27.6065 34.6229H20.3934L19.6721 41.7049H28.3279Z" fill="#482C42"/>
<path fill-rule="evenodd" clip-rule="evenodd" d="M18.8475 35.0997C18.9398 34.3778 19.5674 33.8361 20.3115 33.8361H27.6885C28.4326 33.8361 29.0603 34.3778 29.1526 35.0997L29.8903 40.8702C29.9428 41.2808 29.8124 41.6937 29.5323 42.0039C29.2523 42.3141 28.8494 42.4918 28.4262 42.4918H19.5738C19.1506 42.4918 18.7478 42.3141 18.4677 42.0039C18.1877 41.6937 18.0573 41.2808 18.1098 40.8702L18.8475 35.0997ZM21.614 36.7213L21.2451 39.6065H26.7549L26.3861 36.7213H21.614Z" fill="#482C42"/>
<path fill-rule="evenodd" clip-rule="evenodd" d="M11.8032 40.918C11.8032 40.0488 12.4858 39.3442 13.3278 39.3442H34.6721C35.5141 39.3442 36.1967 40.0488 36.1967 40.918C36.1967 41.7872 35.5141 42.4918 34.6721 42.4918H13.3278C12.4858 42.4918 11.8032 41.7872 11.8032 40.918Z" fill="#482C42"/>
<path d="M3.14746 27.541V31.7901C3.14967 32.5408 3.46423 33.2601 4.02241 33.7909C4.58059 34.3217 5.337 34.6208 6.12638 34.6229H41.8735C42.6628 34.6208 43.4193 34.3217 43.9774 33.7909C44.5356 33.2601 44.8502 32.5408 44.8524 31.7901V27.541H3.14746ZM23.9999 33.2065C23.7053 33.2065 23.4174 33.1235 23.1724 32.9678C22.9275 32.8122 22.7366 32.591 22.6238 32.3322C22.5111 32.0734 22.4816 31.7886 22.5391 31.5138C22.5965 31.2391 22.7384 30.9867 22.9467 30.7886C23.155 30.5905 23.4204 30.4556 23.7093 30.401C23.9983 30.3463 24.2977 30.3744 24.5699 30.4816C24.8421 30.5888 25.0747 30.7703 25.2384 31.0032C25.402 31.2362 25.4894 31.51 25.4894 31.7901C25.4894 32.1658 25.3325 32.5261 25.0531 32.7917C24.7738 33.0573 24.3949 33.2065 23.9999 33.2065Z" fill="#482C42"/>
</svg>
