<svg width="48" height="48" viewBox="0 0 48 48" fill="none" xmlns="http://www.w3.org/2000/svg">
<path d="M34.8889 2.22217H13.1111C12.286 2.22217 11.4947 2.54994 10.9112 3.13339C10.3278 3.71684 10 4.50816 10 5.33328V42.6666C10 43.4917 10.3278 44.283 10.9112 44.8665C11.4947 45.4499 12.286 45.7777 13.1111 45.7777H34.8889C35.714 45.7777 36.5053 45.4499 37.0888 44.8665C37.6722 44.283 38 43.4917 38 42.6666V5.33328C38 4.50816 37.6722 3.71684 37.0888 3.13339C36.5053 2.54994 35.714 2.22217 34.8889 2.22217ZM25.5556 42.6666H22.4444V39.5555H25.5556V42.6666ZM13.1111 36.4444V5.33328H34.8889V36.4444H13.1111Z" fill="#482C42"/>
</svg>
