<svg width="48" height="48" viewBox="0 0 48 48" fill="none" xmlns="http://www.w3.org/2000/svg">
<path d="M6.5448 7.99919C4.7376 7.99919 3.2736 9.43199 3.2736 11.2008V36.7992C3.2736 38.568 4.7376 40.0008 6.5448 40.0008H41.4552C43.2624 40.0008 44.7264 38.568 44.7264 36.7992V11.2008C44.7264 9.43199 43.2624 7.99919 41.4552 7.99919H6.5448ZM41.4552 4.79999C45.0696 4.79999 48 7.66559 48 11.2008V36.7992C48 40.3344 45.0696 43.2 41.4552 43.2H6.5448C2.9304 43.2 0 40.3344 0 36.7992V11.2008C0 7.66559 2.9304 4.79999 6.5448 4.79999H41.4552ZM33 12.7992C29.3424 12.7992 26.364 15.6576 26.364 19.2C26.364 21.0552 27.18 22.7232 28.4856 23.892C26.0136 25.3512 24.3648 27.9792 24.3648 30.9816C24.3648 31.8384 24.4992 32.6808 24.7608 33.4848C25.0368 34.3248 25.9584 34.7904 26.8176 34.5216C27.0204 34.4608 27.209 34.3603 27.3725 34.2258C27.536 34.0914 27.6711 33.9257 27.7698 33.7385C27.8686 33.5512 27.929 33.3462 27.9477 33.1354C27.9663 32.9245 27.9428 32.712 27.8784 32.5104C27.718 32.0167 27.637 31.5007 27.6384 30.9816C27.6384 28.1616 30.0312 25.8624 33 25.8624C35.9688 25.8624 38.364 28.1616 38.364 30.9816C38.364 31.3968 38.3136 31.8024 38.2128 32.196C38.1622 32.4017 38.153 32.6154 38.1858 32.8247C38.2185 33.034 38.2925 33.2347 38.4035 33.4151C38.5145 33.5956 38.6602 33.7522 38.8323 33.8758C39.0043 33.9994 39.1992 34.0876 39.4056 34.1352C39.823 34.2399 40.2648 34.1763 40.6357 33.958C41.0066 33.7398 41.2768 33.3845 41.388 32.9688C41.5536 32.3208 41.6352 31.656 41.6352 30.9816C41.6352 27.9792 39.9864 25.3512 37.5144 23.8872C38.82 22.7232 39.636 21.0552 39.636 19.2C39.636 15.6576 36.66 12.7992 33 12.7992ZM33 16.0008C34.8648 16.0008 36.3648 17.4408 36.3648 19.2C36.3648 20.9616 34.8648 22.3992 33 22.3992C31.1352 22.3992 29.6352 20.9592 29.6352 19.2C29.6352 17.4384 31.1352 16.0008 33 16.0008Z" fill="#482C42"/>
<path d="M10.9558 29.0628L10.9573 29.0643C11.0979 29.2035 11.2646 29.3137 11.4479 29.3885C11.6312 29.4632 11.8274 29.5011 12.0253 29.5L12.0253 29.5001L12.0383 29.4997C12.2441 29.4932 12.4465 29.4445 12.6328 29.3567C12.8191 29.2688 12.9854 29.1436 13.1214 28.9889L13.1218 28.9884L20.1539 20.9621L20.1606 20.9544L20.167 20.9465C20.4103 20.6448 20.5276 20.2609 20.4945 19.8748C20.4613 19.4887 20.2802 19.1304 19.9891 18.8745L19.6643 19.2442L19.9891 18.8745C19.6981 18.6187 19.3195 18.4851 18.9324 18.5013C18.5452 18.5175 18.1791 18.6824 17.9105 18.9617L17.9014 18.9712L17.8928 18.9812L11.9926 25.8021L10.0736 23.9191C9.79075 23.6375 9.40781 23.4795 9.00869 23.4795C8.60877 23.4795 8.2251 23.6381 7.94211 23.9207C7.65911 24.2034 7.5 24.5869 7.5 24.9869C7.5 25.3869 7.65911 25.7703 7.94211 26.053L10.9558 29.0628Z" fill="#482C42" stroke="#482C42"/>
</svg>
