<svg width="160" height="49" viewBox="0 0 160 49" fill="none" xmlns="http://www.w3.org/2000/svg">
<path d="M16.139 21.9797C15.7795 21.9797 15.4199 22.1001 15.1802 22.3411C14.9405 22.582 14.5809 22.8229 14.2214 23.3047C13.8618 23.6661 13.6221 23.907 13.3824 24.1479C13.1427 24.3888 12.7831 24.6297 12.5434 24.7501C12.3037 24.8706 11.9442 24.9911 11.5846 25.1115C11.2251 25.232 10.8655 25.232 10.5059 25.232C9.54712 25.232 8.828 24.9911 8.10888 24.6297C7.50962 24.2683 6.91035 23.7865 6.55079 23.1842C6.07138 22.582 5.83168 21.8592 5.59197 20.8956C5.35226 20.0524 5.35226 19.0888 5.35226 18.1251C5.35226 17.1615 5.47212 16.3183 5.59197 15.4751C5.83168 14.632 6.07138 13.9092 6.55079 13.307C6.7905 12.5842 7.38976 12.1024 7.98903 11.7411C8.58829 11.3797 9.42726 11.1388 10.2662 11.1388C11.1052 11.1388 11.7045 11.2592 12.3037 11.6206C12.903 11.8615 13.3824 12.3433 13.9817 13.0661C14.3412 13.4274 14.5809 13.6683 14.8206 13.9092C15.0604 14.1501 15.4199 14.2706 15.8993 14.2706C16.4986 14.2706 16.8581 14.1501 17.2177 13.7888C17.5773 13.4274 17.6971 13.0661 17.6971 12.4638C17.6971 12.1024 17.5773 11.7411 17.4574 11.3797C17.2177 11.0183 16.978 10.657 16.7383 10.4161C16.3787 10.0547 16.0192 9.81378 15.6596 9.45242C15.1802 9.21151 14.8206 8.85015 14.2214 8.60924C13.742 8.36833 13.1427 8.24787 12.4236 8.00697C11.8243 7.88651 11.1052 7.76606 10.3861 7.76606C8.70815 7.76606 7.26991 8.00697 6.07138 8.60924C4.87285 9.21151 3.91403 9.93424 3.07506 10.8979C2.35594 11.8615 1.75668 12.9456 1.39712 14.2706C1.03756 15.4751 0.797852 16.8001 0.797852 18.2456C0.797852 19.5706 0.917704 20.7751 1.27726 21.9797C1.63682 23.1842 2.11623 24.2683 2.83535 25.232C3.55447 26.1956 4.51329 26.9183 5.71182 27.5206C6.91035 28.1229 8.34859 28.3638 10.0265 28.3638C11.7045 28.3638 13.0229 28.1229 14.2214 27.6411C15.3001 27.1592 16.2589 26.557 16.8581 25.9547C17.5773 25.232 17.9368 24.5092 17.9368 23.7865C17.9368 23.3047 17.6971 22.9433 17.3376 22.582C17.0979 22.2206 16.6184 21.9797 16.139 21.9797ZM29.4427 13.6683C29.3229 13.4274 29.0831 13.307 28.8434 13.1865C28.6037 13.0661 28.2442 12.9456 27.8846 12.9456C27.0456 12.9456 26.4464 13.1865 25.8471 13.5479C25.2479 14.0297 24.7684 14.5115 24.4089 15.1138V14.5115C24.4089 14.0297 24.289 13.6683 23.9295 13.5479C23.5699 13.307 23.2104 13.307 22.6111 13.307C21.892 13.307 21.4126 13.4274 21.1729 13.7888C20.9331 14.1501 20.8133 14.5115 20.8133 14.8729V26.557C20.8133 27.6411 21.4126 28.2433 22.7309 28.2433C23.4501 28.2433 23.9295 28.1229 24.1692 27.882C24.4089 27.6411 24.6486 27.1592 24.6486 26.557V21.0161C24.6486 20.1729 24.7684 19.3297 24.8883 18.7274C25.0081 18.1251 25.3677 17.6433 25.967 17.282C26.4464 17.0411 26.8059 16.9206 27.1655 16.8001C27.5251 16.6797 27.8846 16.6797 28.2442 16.5592C28.6037 16.5592 28.8434 16.4388 29.0831 16.3183C29.3229 16.1979 29.4427 16.0774 29.5626 15.8365C29.6824 15.7161 29.8023 15.4751 29.8023 15.2342C29.8023 14.9933 29.8023 14.8729 29.8023 14.632C29.8023 14.5115 29.8023 14.2706 29.8023 14.0297C29.6824 14.0297 29.5626 13.7888 29.4427 13.6683ZM37.8324 12.9456C36.514 12.9456 35.4354 13.1865 34.4765 13.6683C33.5177 14.1501 32.7986 14.7524 32.1993 15.4751C31.6001 16.1979 31.1206 17.0411 30.8809 18.0047C30.6412 18.9683 30.4015 19.932 30.4015 20.8956C30.4015 22.2206 30.5214 23.3047 30.8809 24.2683C31.2405 25.232 31.7199 25.9547 32.439 26.6774C33.0383 27.2797 33.8773 27.7615 34.8361 28.0024C35.7949 28.2433 36.8736 28.4842 37.9523 28.4842C38.7912 28.4842 39.6302 28.3638 40.4692 28.2433C41.3081 28.0024 42.0273 27.7615 42.6265 27.4001C43.1059 27.1592 43.3456 26.7979 43.5854 26.557C43.8251 26.3161 43.8251 25.9547 43.8251 25.7138C43.8251 25.232 43.7052 24.8706 43.3456 24.3888C42.9861 24.0274 42.6265 23.7865 42.267 23.7865C41.9074 23.7865 41.6677 23.907 41.428 24.0274C41.1883 24.1479 40.9486 24.2683 40.589 24.5092C40.2295 24.6297 39.9898 24.8706 39.5104 24.9911C39.1508 25.232 38.5515 25.232 37.9523 25.232C35.6751 25.232 34.3567 24.0274 34.2368 21.7388H42.3868C42.9861 21.7388 43.4655 21.6183 43.8251 21.3774C44.1846 21.1365 44.3045 20.7751 44.3045 20.2933C44.3045 17.8842 43.7052 16.0774 42.5067 14.8729C41.5479 13.5479 39.8699 12.9456 37.8324 12.9456ZM34.5964 18.8479C34.7162 17.8842 35.0758 17.1615 35.6751 16.6797C36.2743 16.1979 36.9934 15.957 37.7126 15.957C38.192 15.957 38.6714 16.0774 39.0309 16.1979C39.3905 16.3183 39.6302 16.5592 39.8699 16.9206C40.1096 17.1615 40.2295 17.5229 40.3493 17.8842C40.4692 18.2456 40.4692 18.607 40.4692 18.9683H34.5964V18.8479ZM59.1662 8.12742C58.6868 8.12742 58.2074 8.24787 57.8479 8.36833C57.4883 8.60924 57.2486 8.9706 57.2486 9.57287V14.9933C57.1287 14.7524 56.889 14.5115 56.7692 14.2706C56.5295 14.0297 56.2898 13.7888 55.9302 13.5479C55.5706 13.307 55.2111 13.1865 54.7317 13.0661C54.2523 12.9456 53.7729 12.8251 53.1736 12.8251C52.2148 12.8251 51.2559 13.0661 50.417 13.4274C49.578 13.7888 48.9787 14.3911 48.3795 14.9933C47.7802 15.7161 47.4206 16.4388 47.1809 17.4024C46.9412 18.3661 46.7015 19.3297 46.7015 20.5342C46.7015 21.6183 46.8214 22.7024 47.1809 23.6661C47.4206 24.6297 47.9001 25.4729 48.3795 26.0751C48.8589 26.7979 49.578 27.2797 50.417 27.6411C51.2559 28.0024 52.0949 28.2433 53.1736 28.2433C53.8927 28.2433 54.6118 28.1229 55.0912 28.0024C55.5706 27.7615 56.0501 27.6411 56.4096 27.2797C56.7692 27.0388 57.1287 26.6774 57.3684 26.3161V26.557C57.3684 27.1592 57.4883 27.5206 57.8479 27.7615C58.0876 28.0024 58.6868 28.1229 59.2861 28.1229C60.4846 28.1229 61.0839 27.6411 61.0839 26.557V9.69333C61.0839 9.21151 60.964 8.85015 60.6045 8.48878C60.2449 8.24787 59.7655 8.12742 59.1662 8.12742ZM56.5295 24.0274C55.9302 24.8706 55.2111 25.232 54.1324 25.232C53.0537 25.232 52.2148 24.7501 51.6155 23.907C51.0162 23.0638 50.7765 21.9797 50.7765 20.6547C50.7765 20.0524 50.8964 19.4501 51.0162 18.8479C51.1361 18.2456 51.3758 17.8842 51.6155 17.4024C51.8552 17.0411 52.2148 16.6797 52.6942 16.4388C53.1736 16.1979 53.653 16.0774 54.1324 16.0774C54.6118 16.0774 55.0912 16.1979 55.5706 16.4388C55.9302 16.6797 56.2898 16.9206 56.5295 17.4024C56.7692 17.7638 57.0089 18.2456 57.1287 18.8479C57.2486 19.4501 57.3684 19.932 57.3684 20.6547C57.3684 22.1001 57.0089 23.1842 56.5295 24.0274ZM66.9567 13.1865C66.2376 13.1865 65.7581 13.307 65.3986 13.6683C65.039 14.0297 64.9192 14.3911 64.9192 14.9933V26.557C64.9192 27.5206 65.6383 28.1229 66.9567 28.1229C67.5559 28.1229 68.0354 28.0024 68.3949 27.7615C68.7545 27.5206 68.8743 27.1592 68.8743 26.557V14.8729C68.8743 14.2706 68.7545 13.9092 68.3949 13.6683C68.0354 13.4274 67.5559 13.1865 66.9567 13.1865ZM68.5148 8.00697C68.0354 7.6456 67.5559 7.52515 66.9567 7.52515C66.3574 7.52515 65.7581 7.76606 65.3986 8.12742C65.039 8.48878 64.7993 8.9706 64.7993 9.57287C64.7993 10.1751 65.039 10.7774 65.3986 11.1388C65.7581 11.5001 66.3574 11.7411 66.9567 11.7411C67.5559 11.7411 68.1552 11.5001 68.5148 11.1388C68.8743 10.7774 69.114 10.2956 69.114 9.57287C69.114 8.85015 68.9942 8.36833 68.5148 8.00697ZM80.9795 24.9911C80.7398 24.6297 80.3802 24.3888 79.9008 24.3888C79.6611 24.3888 79.5412 24.3888 79.4214 24.5092L78.942 24.7501C78.8221 24.7501 78.5824 24.8706 78.4626 24.9911C78.3427 25.1115 78.103 25.1115 77.8633 25.1115C77.5037 25.1115 77.264 24.9911 77.1442 24.8706C77.0243 24.7501 76.9045 24.3888 76.9045 23.907V16.3183H79.1817C79.9008 16.3183 80.2604 15.8365 80.2604 14.8729C80.2604 14.5115 80.1405 14.1501 80.0206 13.9092C79.9008 13.6683 79.6611 13.5479 79.1817 13.5479H76.9045V10.2956C76.9045 9.93424 76.7846 9.69333 76.6648 9.45242C76.4251 9.21151 76.1854 9.09106 75.5861 9.09106C75.3464 9.09106 74.9868 9.09106 74.7471 9.21151C74.5074 9.33197 74.1479 9.33196 73.9081 9.57287C73.6684 9.69333 73.4287 9.93424 73.3089 10.1751C73.189 10.4161 73.0692 10.657 73.0692 11.0183V13.6683H71.8707C71.5111 13.6683 71.2714 13.7888 71.1515 14.1501C71.0317 14.1501 70.9118 14.5115 70.9118 14.8729C70.9118 15.2342 71.0317 15.4751 71.1515 15.8365C71.2714 16.1979 71.5111 16.3183 71.8707 16.3183H73.0692V24.2683C73.0692 25.7138 73.4287 26.6774 74.1479 27.4001C74.867 28.1229 75.8258 28.3638 77.1442 28.3638C77.9831 28.3638 78.5824 28.2433 79.1817 28.1229C79.7809 28.0024 80.2604 27.7615 80.6199 27.5206C80.8596 27.4001 81.0993 27.1592 81.2192 26.9183C81.339 26.6774 81.339 26.4365 81.339 26.0751C81.2192 25.8342 81.2192 25.3524 80.9795 24.9911Z" fill="#A8899D"/>
<path fill-rule="evenodd" clip-rule="evenodd" d="M159.483 27.7615C159.244 28.0024 158.764 28.1229 158.045 28.1229C157.446 28.1229 157.086 28.0024 156.727 27.7615C156.367 27.5206 156.247 27.1592 156.247 26.5569V26.0751C156.008 26.316 155.768 26.5569 155.528 26.9183C155.288 27.1592 154.929 27.4001 154.569 27.641C154.21 27.8819 153.73 28.0024 153.251 28.1229C152.771 28.2433 152.172 28.3638 151.573 28.3638C150.135 28.3638 148.936 28.0024 148.097 27.1592C147.258 26.4365 146.779 25.3524 146.779 24.0274C146.779 23.3047 146.899 22.5819 147.138 22.1001C147.378 21.6183 147.738 21.1365 148.217 20.7751C148.696 20.4138 149.176 20.1729 149.775 19.9319C150.374 19.691 150.974 19.5706 151.693 19.4501C152.412 19.3297 153.131 19.2092 153.85 19.0888C154.569 18.9683 155.408 18.9683 156.247 18.8479V18.366C156.247 18.1251 156.247 17.7638 156.127 17.5229C156.008 17.2819 155.888 17.041 155.768 16.8001C155.648 16.5592 155.288 16.4388 155.049 16.3183C154.689 16.1979 154.33 16.0774 153.85 16.0774C153.491 16.0774 153.251 16.0774 153.011 16.0774C152.771 16.0774 152.532 16.1979 152.292 16.3183C152.052 16.4388 151.813 16.5592 151.573 16.6797C151.333 16.8001 151.094 17.041 150.734 17.1615C150.494 17.2819 150.255 17.5229 150.015 17.6433C149.775 17.7638 149.535 17.7638 149.176 17.7638C148.696 17.7638 148.337 17.6433 147.977 17.2819C147.618 16.9206 147.498 16.5592 147.498 16.0774C147.498 15.716 147.618 15.3547 147.858 14.9933C148.097 14.6319 148.577 14.2706 149.056 14.0297C149.535 13.6683 150.255 13.4274 150.974 13.3069C151.693 13.066 152.652 12.9456 153.73 12.9456C155.888 12.9456 157.446 13.4274 158.405 14.2706C159.363 15.1138 159.843 16.4388 159.843 18.2456V26.6774C159.963 27.1592 159.843 27.5206 159.483 27.7615ZM156.247 21.2569C155.528 21.3774 154.809 21.3774 154.21 21.4979C153.61 21.6183 153.131 21.6183 152.771 21.7388C151.933 21.9797 151.333 22.2206 150.974 22.5819C150.734 22.9433 150.614 23.3047 150.614 23.666C150.614 24.1479 150.734 24.5092 151.094 24.7501C151.333 24.991 151.933 25.1115 152.652 25.1115C153.85 25.1115 154.689 24.8706 155.288 24.2683C155.888 23.7865 156.247 23.0638 156.247 22.2206V21.2569V21.2569ZM138.389 18.7274L139.827 18.9683C141.505 19.3297 142.704 19.8115 143.543 20.5342C144.262 21.2569 144.621 22.2206 144.621 23.666C144.621 25.2319 144.022 26.4365 142.944 27.2797C141.745 28.1229 140.307 28.4842 138.269 28.4842C137.191 28.4842 136.112 28.3638 135.273 28.1229C134.434 27.8819 133.715 27.5206 133.116 27.1592C132.876 27.0388 132.636 26.7979 132.516 26.5569C132.396 26.316 132.277 26.0751 132.277 25.9547C132.277 25.5933 132.396 25.2319 132.516 24.8706C132.636 24.6297 132.876 24.3888 133.116 24.1479C133.355 23.9069 133.595 23.9069 133.955 23.9069C134.194 23.9069 134.554 24.0274 134.794 24.1479C135.033 24.2683 135.393 24.5092 135.633 24.7501C135.992 24.991 136.352 25.1115 136.711 25.3524C137.191 25.4729 137.67 25.5933 138.389 25.5933C139.228 25.5933 139.827 25.4729 140.187 25.2319C140.546 24.991 140.666 24.6297 140.666 24.1479C140.666 23.7865 140.546 23.5456 140.307 23.1842C140.067 22.9433 139.588 22.7024 138.749 22.5819L137.071 22.341C136.352 22.2206 135.752 22.1001 135.153 21.8592C134.554 21.6183 134.074 21.3774 133.715 21.016C133.355 20.6547 132.996 20.2933 132.756 19.691C132.516 19.2092 132.396 18.6069 132.396 17.8842C132.396 17.1615 132.516 16.4388 132.876 15.8365C133.116 15.2342 133.595 14.7524 134.194 14.391C134.794 14.0297 135.393 13.6683 136.112 13.4274C136.831 13.1865 137.67 13.066 138.629 13.066C139.947 13.066 141.026 13.1865 141.865 13.5479C142.704 13.9092 143.303 14.1501 143.663 14.5115C143.902 14.7524 144.022 14.8729 144.142 15.1138C144.262 15.3547 144.262 15.4751 144.262 15.716C144.262 16.1979 144.142 16.5592 143.902 16.9206C143.783 17.1615 143.543 17.2819 143.423 17.4024C143.303 17.5229 143.063 17.5229 142.824 17.5229C142.584 17.5229 142.464 17.5229 142.224 17.4024C141.985 17.2819 141.865 17.2819 141.625 17.1615C141.146 16.9206 140.666 16.5592 140.187 16.4388C139.708 16.1979 139.108 16.1979 138.389 16.1979C137.67 16.1979 137.071 16.3183 136.831 16.5592C136.471 16.8001 136.352 17.1615 136.352 17.5229C136.352 17.8842 136.471 18.1251 136.711 18.366C136.951 18.366 137.55 18.6069 138.389 18.7274ZM127.483 28.1229C126.883 28.1229 126.524 28.0024 126.164 27.7615C125.805 27.5206 125.685 27.1592 125.685 26.5569V26.0751C125.445 26.316 125.205 26.5569 124.966 26.9183C124.726 27.1592 124.366 27.4001 124.007 27.641C123.647 27.8819 123.168 28.0024 122.688 28.1229C122.209 28.2433 121.61 28.3638 121.01 28.3638C119.572 28.3638 118.374 28.0024 117.535 27.1592C116.696 26.4365 116.216 25.3524 116.216 24.0274C116.216 23.3047 116.336 22.5819 116.576 22.1001C116.816 21.6183 117.175 21.1365 117.655 20.7751C118.134 20.4138 118.613 20.1729 119.213 19.9319C119.812 19.691 120.411 19.5706 121.13 19.4501C121.849 19.3297 122.569 19.2092 123.288 19.0888C124.007 18.9683 124.846 18.9683 125.685 18.8479V18.366C125.685 18.1251 125.685 17.7638 125.565 17.5229C125.445 17.2819 125.325 17.041 125.205 16.8001C125.085 16.5592 124.726 16.4388 124.486 16.3183C124.127 16.1979 123.767 16.0774 123.288 16.0774C122.928 16.0774 122.688 16.0774 122.449 16.0774C122.209 16.0774 121.969 16.1979 121.73 16.3183C121.49 16.4388 121.25 16.5592 121.01 16.6797C120.771 16.8001 120.531 17.041 120.171 17.1615C119.932 17.2819 119.692 17.5229 119.452 17.6433C119.213 17.7638 118.973 17.7638 118.613 17.7638C118.134 17.7638 117.774 17.6433 117.415 17.2819C117.055 16.9206 116.935 16.5592 116.935 16.0774C116.935 15.716 117.055 15.3547 117.295 14.9933C117.535 14.6319 118.014 14.2706 118.494 14.0297C118.973 13.6683 119.692 13.4274 120.411 13.3069C121.13 13.066 122.089 12.9456 123.168 12.9456C125.325 12.9456 126.883 13.4274 127.842 14.2706C128.801 15.1138 129.28 16.4388 129.28 18.2456V26.6774C129.28 27.2797 129.16 27.641 128.921 27.8819C128.681 28.0024 128.202 28.1229 127.483 28.1229ZM125.685 21.2569C124.966 21.3774 124.246 21.3774 123.647 21.4979C123.048 21.6183 122.569 21.6183 122.209 21.7388C121.37 21.9797 120.771 22.2206 120.411 22.5819C120.171 22.9433 120.052 23.3047 120.052 23.666C120.052 24.1479 120.171 24.5092 120.531 24.7501C120.771 24.991 121.37 25.1115 122.089 25.1115C123.288 25.1115 124.127 24.8706 124.726 24.2683C125.325 23.7865 125.685 23.0638 125.685 22.2206V21.2569ZM104.351 28.7251L101.714 24.8706L103.033 22.9433L105.549 26.5569C106.628 28.1229 108.186 28.3638 109.265 27.5206C110.344 26.6774 110.583 25.2319 109.505 23.666L105.909 18.6069L107.347 16.5592L112.021 23.3047C113.34 25.1115 112.741 28.1229 110.583 29.5683C108.666 31.1342 105.669 30.6524 104.351 28.7251ZM99.9163 24.8706V20.7751L109.624 6.8024C110.703 5.23649 110.463 3.67058 109.385 2.94785C108.306 2.10467 106.748 2.34558 105.669 3.91149L99.9163 12.1024V8.24785L104.471 1.74331C105.789 -0.0635122 108.666 -0.665785 110.823 0.900124C112.98 2.46603 113.46 5.35694 112.261 7.16376L99.9163 24.8706ZM93.5641 30.5319C91.2869 30.5319 89.2494 28.8456 88.8899 26.9183C88.77 26.5569 88.77 26.1956 88.77 25.5933C88.77 25.4729 88.77 24.991 88.8899 24.5092V4.39331C88.8899 2.10467 91.0472 0.0569423 93.5641 0.0569423C96.2009 0.0569423 98.2384 2.10467 98.2384 4.39331V26.1956C98.3583 28.4842 96.2009 30.5319 93.5641 30.5319ZM95.9612 5.4774C95.9612 3.55012 94.8825 2.46603 93.5641 2.46603C92.2458 2.46603 91.0472 3.55012 91.0472 5.4774V24.8706C91.0472 26.7979 92.1259 28.0024 93.5641 28.0024C94.8825 28.0024 95.9612 26.7979 95.9612 24.8706V5.4774Z" fill="#A8899D"/>
<path d="M4.99274 35.8321C3.67436 35.8321 2.95524 36.3139 2.59569 37.0366V36.7957C2.59569 36.3139 2.23613 35.9525 1.87657 35.9525C1.51701 35.9525 1.0376 36.1934 1.0376 36.7957V47.2752C1.0376 47.7571 1.39716 48.1184 1.75672 48.1184C2.11627 48.1184 2.59569 47.7571 2.59569 47.2752V43.782C2.95524 44.5048 3.79422 44.9866 4.99274 44.9866C6.43098 44.9866 7.50966 44.1434 7.98907 42.8184C8.22877 42.0957 8.34863 41.4934 8.34863 40.4093C8.34863 39.4457 8.22877 38.723 7.98907 38.0002C7.50966 36.6752 6.55083 35.8321 4.99274 35.8321ZM6.55083 42.0957C6.31113 42.9389 5.59201 43.4207 4.63319 43.4207C3.67436 43.4207 3.0751 42.9389 2.71554 42.0957C2.59569 41.6139 2.59569 41.1321 2.59569 40.4093C2.59569 39.6866 2.59569 39.0843 2.83539 38.6025C3.0751 37.7593 3.79422 37.2775 4.75304 37.2775C5.71186 37.2775 6.31113 37.7593 6.67069 38.6025C6.79054 39.0843 6.91039 39.5661 6.91039 40.4093C6.79054 41.1321 6.67069 41.6139 6.55083 42.0957ZM16.2589 36.1934C16.0192 36.073 15.5398 35.8321 14.9405 35.8321C13.8619 35.8321 13.1427 36.3139 12.7832 37.157V36.7957C12.7832 36.3139 12.4236 35.9525 12.0641 35.9525C11.7045 35.9525 11.345 36.3139 11.345 36.7957V44.023C11.345 44.5048 11.7045 44.8661 12.0641 44.8661C12.4236 44.8661 12.7832 44.5048 12.7832 44.023V39.8071C12.7832 38.3616 13.2626 37.2775 14.581 37.2775C14.9405 37.2775 15.3001 37.398 15.5398 37.5184C15.6597 37.5184 15.7795 37.6389 15.8994 37.6389C16.3788 37.6389 16.6185 37.2775 16.6185 36.9161C16.6185 36.5548 16.4986 36.3139 16.2589 36.1934ZM21.892 35.8321C20.2141 35.8321 19.0155 36.6752 18.5361 38.1207C18.2964 38.723 18.2964 39.3252 18.2964 40.2889C18.2964 41.2525 18.4163 41.8548 18.5361 42.4571C19.0155 43.9025 20.2141 44.7457 21.892 44.7457C23.5699 44.7457 24.7685 43.9025 25.2479 42.4571C25.4876 41.8548 25.4876 41.2525 25.4876 40.2889C25.4876 39.3252 25.3677 38.723 25.2479 38.1207C24.7685 36.6752 23.5699 35.8321 21.892 35.8321ZM23.8097 42.0957C23.57 42.9389 22.8508 43.4207 21.892 43.4207C20.9332 43.4207 20.2141 42.9389 19.9744 42.0957C19.8545 41.6139 19.7347 41.1321 19.7347 40.2889C19.7347 39.4457 19.7347 38.9639 19.9744 38.4821C20.2141 37.6389 20.9332 37.157 21.892 37.157C22.8508 37.157 23.57 37.6389 23.8097 38.4821C23.9295 38.9639 24.0494 39.4457 24.0494 40.2889C24.0494 41.1321 23.9295 41.6139 23.8097 42.0957ZM37.2332 35.8321C35.9148 35.8321 35.1957 36.3139 34.8361 37.0366V36.7957C34.8361 36.3139 34.4766 35.9525 34.117 35.9525C33.7574 35.9525 33.3979 36.3139 33.3979 36.7957V47.2752C33.3979 47.7571 33.7574 48.1184 34.117 48.1184C34.4766 48.1184 34.8361 47.7571 34.8361 47.2752V43.782C35.1957 44.5048 36.0347 44.9866 37.2332 44.9866C38.6714 44.9866 39.7501 44.1434 40.2295 42.8184C40.4692 42.0957 40.5891 41.4934 40.5891 40.4093C40.5891 39.4457 40.4692 38.723 40.2295 38.0002C39.7501 36.6752 38.6714 35.8321 37.2332 35.8321ZM38.7913 42.0957C38.5516 42.9389 37.8325 43.4207 36.8736 43.4207C35.9148 43.4207 35.3155 42.9389 34.956 42.0957C34.8361 41.6139 34.7163 41.1321 34.7163 40.2889C34.7163 39.5661 34.7163 38.9639 34.956 38.4821C35.1957 37.6389 35.9148 37.157 36.8736 37.157C37.8325 37.157 38.4317 37.6389 38.7913 38.4821C38.9111 38.9639 39.031 39.4457 39.031 40.2889C39.031 41.1321 38.9111 41.6139 38.7913 42.0957ZM46.5817 35.8321C44.9038 35.8321 43.7052 36.6752 43.2258 38.1207C42.9861 38.723 42.9861 39.3252 42.9861 40.2889C42.9861 41.2525 43.106 41.8548 43.2258 42.4571C43.7052 43.9025 44.9038 44.7457 46.5817 44.7457C48.2597 44.7457 49.4582 43.9025 49.9376 42.4571C50.1773 41.8548 50.1773 41.2525 50.1773 40.2889C50.1773 39.3252 50.0574 38.723 49.9376 38.1207C49.578 36.6752 48.2597 35.8321 46.5817 35.8321ZM48.6192 42.0957C48.3795 42.9389 47.6604 43.4207 46.7016 43.4207C45.7427 43.4207 45.0236 42.9389 44.7839 42.0957C44.6641 41.6139 44.5442 41.1321 44.5442 40.2889C44.5442 39.4457 44.5442 38.9639 44.7839 38.4821C45.0236 37.6389 45.7427 37.157 46.7016 37.157C47.6604 37.157 48.3795 37.6389 48.6192 38.4821C48.7391 38.9639 48.8589 39.4457 48.8589 40.2889C48.7391 41.1321 48.7391 41.6139 48.6192 42.0957ZM59.1663 32.3389C58.6869 32.3389 58.4472 32.7002 58.4472 33.182V37.0366C58.0876 36.3139 57.2486 35.8321 56.0501 35.8321C54.6119 35.8321 53.5332 36.6752 53.0538 38.0002C52.8141 38.723 52.6942 39.3252 52.6942 40.2889C52.6942 41.2525 52.8141 41.9752 53.0538 42.698C53.5332 44.023 54.6119 44.8661 56.0501 44.8661C57.3685 44.8661 58.0876 44.3843 58.4472 43.6616V43.9025C58.4472 44.3843 58.8067 44.7457 59.1663 44.7457C59.6457 44.7457 59.8854 44.3843 59.8854 43.9025V33.0616C59.8854 32.5798 59.6457 32.3389 59.1663 32.3389ZM58.2075 42.0957C57.9677 42.9389 57.2486 43.4207 56.2898 43.4207C55.331 43.4207 54.7317 42.9389 54.3722 42.0957C54.2523 41.6139 54.1324 41.1321 54.1324 40.2889C54.1324 39.5661 54.1324 38.9639 54.3722 38.4821C54.6119 37.6389 55.331 37.157 56.2898 37.157C57.2486 37.157 57.9677 37.6389 58.2075 38.4821C58.3273 38.9639 58.4472 39.4457 58.4472 40.2889C58.4472 41.1321 58.4472 41.6139 58.2075 42.0957ZM67.3163 35.8321C66.1177 35.8321 65.2788 36.3139 64.9192 37.0366V36.7957C64.9192 36.3139 64.5597 35.9525 64.2001 35.9525C63.8405 35.9525 63.481 36.3139 63.481 36.7957V44.023C63.481 44.5048 63.8405 44.8661 64.2001 44.8661C64.5597 44.8661 64.9192 44.5048 64.9192 44.023V39.4457C64.9192 38.1207 65.7582 37.2775 66.8369 37.2775C68.1552 37.2775 68.7545 38.1207 68.7545 39.4457V43.9025C68.7545 44.3843 69.1141 44.7457 69.4736 44.7457C69.953 44.7457 70.1927 44.3843 70.1927 43.9025V39.0843C70.3126 37.1571 69.2339 35.8321 67.3163 35.8321ZM74.3876 35.9525C73.9082 35.9525 73.6685 36.3139 73.6685 36.7957V44.023C73.6685 44.5048 74.028 44.8661 74.3876 44.8661C74.7472 44.8661 75.1067 44.5048 75.1067 44.023V36.7957C75.1067 36.1934 74.867 35.9525 74.3876 35.9525ZM74.3876 32.3389C73.9082 32.3389 73.4288 32.8207 73.4288 33.3025C73.4288 33.9048 73.9082 34.2661 74.3876 34.2661C74.9869 34.2661 75.3464 33.7843 75.3464 33.3025C75.3464 32.7002 74.9869 32.3389 74.3876 32.3389ZM82.6575 39.3252L84.695 37.157C84.8148 37.0366 84.9347 36.7957 84.9347 36.6752C84.9347 36.3139 84.6949 36.073 84.3354 36.073C84.0957 36.073 83.9758 36.1934 83.7361 36.3139L80.2604 40.2889V33.182C80.2604 32.7002 79.9008 32.3389 79.5413 32.3389C79.1817 32.3389 78.8222 32.7002 78.8222 33.182V44.023C78.8222 44.5048 79.1817 44.8661 79.5413 44.8661C79.9008 44.8661 80.2604 44.5048 80.2604 44.023V42.0957L81.8185 40.4093L84.2155 44.3843C84.3354 44.6252 84.5751 44.8661 84.9347 44.8661C85.2942 44.8661 85.6538 44.5048 85.6538 44.1434C85.6538 44.023 85.6538 43.7821 85.5339 43.6616L82.6575 39.3252ZM94.7626 43.0593C94.6427 42.8184 94.6427 42.5775 94.6427 42.2161V39.0843C94.6427 36.9161 93.5641 35.8321 91.2869 35.8321C90.0883 35.8321 89.2494 36.073 88.6501 36.4343C88.4104 36.5548 88.2905 36.7957 88.2905 37.0366C88.2905 37.398 88.5302 37.6389 88.8898 37.6389C89.0097 37.6389 89.1295 37.6389 89.3692 37.5184C89.7288 37.2775 90.4479 37.0366 91.167 37.0366C92.7251 37.0366 93.2045 37.7593 93.2045 38.9639V39.3252C93.2045 39.4457 93.2045 39.4457 93.0847 39.4457H91.167C89.0097 39.4457 87.8111 40.2889 87.8111 42.0957C87.8111 43.7821 88.8898 44.7457 90.8074 44.7457C92.006 44.7457 92.845 44.3843 93.4442 43.6616L93.8038 44.2639C93.9236 44.5048 94.1633 44.6252 94.5229 44.6252C95.0023 44.6252 95.242 44.2639 95.242 43.9025C95.242 43.7821 95.242 43.5411 95.1222 43.4207L94.7626 43.0593ZM93.2045 41.8548C93.2045 42.9389 92.3655 43.5411 91.0472 43.5411C89.8486 43.5411 89.2494 43.0593 89.2494 42.2161C89.2494 41.2525 89.9685 40.7707 91.4067 40.7707H93.0847C93.2045 40.7707 93.2045 40.7707 93.2045 40.8911V41.8548ZM99.7964 37.2775H100.875C101.235 37.2775 101.474 37.0366 101.474 36.6752C101.474 36.3139 101.235 36.073 100.875 36.073H99.7964C99.6766 36.073 99.6766 36.073 99.6766 35.9525V34.0252C99.6766 33.5434 99.317 33.182 98.9575 33.182C98.478 33.182 98.2383 33.5434 98.2383 34.0252V35.9525C98.2383 36.073 98.2383 36.073 98.1185 36.073H97.6391C97.2795 36.073 97.0398 36.3139 97.0398 36.6752C97.0398 37.0366 97.2795 37.2775 97.6391 37.2775H98.1185C98.2383 37.2775 98.2383 37.2775 98.2383 37.398V42.2161C98.2383 44.023 98.8376 44.7457 100.635 44.7457H100.875C101.355 44.7457 101.714 44.5048 101.714 44.023C101.714 43.6616 101.474 43.3002 100.995 43.3002C100.036 43.3002 99.7964 43.0593 99.7964 42.0957V37.2775C99.6766 37.2775 99.6766 37.2775 99.7964 37.2775ZM107.347 35.8321C105.669 35.8321 104.471 36.6752 103.991 38.1207C103.871 38.6025 103.752 39.3252 103.752 40.2889C103.752 41.373 103.871 41.9752 103.991 42.4571C104.471 44.023 105.669 44.8661 107.467 44.8661C108.785 44.8661 109.864 44.3843 110.583 43.6616C110.703 43.5411 110.823 43.3002 110.823 43.1798C110.823 42.8184 110.583 42.5775 110.224 42.5775C110.104 42.5775 109.864 42.698 109.744 42.8184C109.145 43.3002 108.546 43.5411 107.707 43.5411C106.628 43.5411 105.909 43.0593 105.549 42.0957C105.43 41.7343 105.43 41.4934 105.43 41.0116C105.43 40.8911 105.43 40.8911 105.549 40.8911H110.583C110.943 40.8911 111.182 40.6502 111.182 40.2889C111.182 39.4457 111.063 38.723 110.943 38.2411C110.224 36.6752 109.025 35.8321 107.347 35.8321ZM109.265 39.5661H105.31C105.19 39.5661 105.19 39.5661 105.19 39.4457C105.19 39.0843 105.19 38.723 105.31 38.4821C105.549 37.6389 106.268 37.157 107.227 37.157C108.186 37.157 108.905 37.6389 109.145 38.4821C109.385 38.8434 109.385 39.0843 109.265 39.5661C109.385 39.5661 109.385 39.5661 109.265 39.5661ZM116.216 43.4207C115.617 43.4207 115.377 43.1798 115.377 42.4571V33.182C115.377 32.7002 115.018 32.3389 114.658 32.3389C114.179 32.3389 113.939 32.7002 113.939 33.182V42.5775C113.939 44.1434 114.538 44.8661 116.096 44.8661H116.216C116.696 44.8661 116.935 44.6252 116.935 44.1434C116.935 43.6616 116.576 43.4207 116.216 43.4207ZM125.565 40.7707C125.924 40.7707 126.164 40.5298 126.164 40.1684C126.164 39.3252 126.044 38.6025 125.924 38.1207C125.445 36.6752 124.246 35.8321 122.568 35.8321C120.891 35.8321 119.692 36.6752 119.213 38.1207C119.093 38.6025 118.973 39.3252 118.973 40.2889C118.973 41.373 119.093 41.9752 119.213 42.4571C119.692 44.023 120.891 44.8661 122.688 44.8661C124.007 44.8661 125.085 44.3843 125.805 43.6616C125.924 43.5411 126.044 43.3002 126.044 43.1798C126.044 42.8184 125.805 42.5775 125.445 42.5775C125.325 42.5775 125.085 42.698 124.966 42.8184C124.366 43.3002 123.767 43.5411 122.928 43.5411C121.849 43.5411 121.13 43.0593 120.771 42.0957C120.651 41.7343 120.651 41.4934 120.651 41.0116C120.651 40.8911 120.651 40.8911 120.771 40.8911H125.565V40.7707ZM120.531 38.4821C120.771 37.6389 121.49 37.157 122.449 37.157C123.407 37.157 124.127 37.6389 124.366 38.4821C124.486 38.723 124.486 39.0843 124.486 39.4457C124.486 39.5661 124.486 39.5661 124.366 39.5661H120.411C120.291 39.5661 120.291 39.5661 120.291 39.4457C120.411 39.0843 120.411 38.8434 120.531 38.4821Z" fill="#A8899D"/>
</svg>
