<svg width="188" height="47" viewBox="0 0 188 47" fill="none" xmlns="http://www.w3.org/2000/svg">
<g clip-path="url(#clip0_619_4375)">
<path d="M72.6265 31.8351C72.426 32.7469 71.8077 33.1986 70.7632 33.1986C70.053 33.1986 69.5433 33.0145 69.2174 32.6381C69.0085 32.3705 68.8749 32.0443 68.8414 31.7013C68.7997 31.1911 68.7829 30.6809 68.7913 30.179V25.4614H62.5998V30.2208C62.6165 30.8314 62.5748 31.4337 62.4494 32.0275C62.2238 32.8222 61.6222 33.2069 60.653 33.2069C59.9261 33.2069 59.3997 33.0062 59.0821 32.5963C58.8816 32.3287 58.7646 32.0108 58.7312 31.6762C58.6811 31.1827 58.656 30.6976 58.6727 30.2041V16.5114C58.6727 16.1518 58.7479 15.7921 58.9067 15.4742C59.1991 14.872 59.7924 14.5625 60.7031 14.5625C61.4301 14.5625 61.9565 14.8051 62.274 15.2902C62.4912 15.6248 62.5998 16.386 62.5998 17.5653V22.0487H68.7913V17.5653C68.7913 16.5783 68.8581 15.9008 69.0002 15.5579C69.2676 14.8971 69.8608 14.5709 70.7966 14.5709C71.5069 14.5709 72.0165 14.7883 72.3424 15.2233C72.4928 15.4324 72.5931 15.6833 72.6349 15.9343C72.6933 16.478 72.7184 17.0217 72.6933 17.5653V30.1957C72.7101 30.7394 72.685 31.2915 72.6181 31.8268H72.6265V31.8351ZM87.5412 29.1752C86.8226 31.8686 85.0011 33.2237 82.0683 33.2237C78.208 33.2237 76.2779 30.8398 76.2779 26.0804C76.2445 24.7421 76.4533 23.4038 76.8878 22.1324C77.3056 20.9111 78.2247 19.9241 79.4112 19.4055C80.2885 19.0291 81.2327 18.8367 82.1853 18.8535C84.4162 18.8535 85.9954 19.6481 86.9229 21.2457C87.5412 22.3247 87.8503 23.9307 87.8503 26.0637C87.867 27.1176 87.7751 28.1548 87.5412 29.1752ZM83.6057 22.8768C83.2798 22.3833 82.72 22.0905 82.1351 22.1156C81.6589 22.1073 81.1993 22.2745 80.8484 22.5924C80.4974 22.927 80.2718 23.3536 80.1883 23.8303C80.0462 24.5748 79.9877 25.3276 79.9961 26.0804C79.9961 27.31 80.1047 28.1966 80.3303 28.757C80.5977 29.4931 81.3163 29.9615 82.1017 29.903C82.9957 29.903 83.589 29.4345 83.8981 28.4894C84.0653 27.9875 84.1488 27.1343 84.1488 25.9298C84.1488 24.4326 83.9733 23.4121 83.6141 22.8852H83.6057V22.8768ZM98.9883 21.6807C98.7376 22.1491 98.2363 22.4251 97.7015 22.4C97.4926 22.3917 97.2921 22.3666 97.0916 22.3247C96.8827 22.2913 96.6738 22.2746 96.4733 22.2662C96.0471 22.2327 95.6377 22.4167 95.3703 22.7513C95.2032 22.9939 95.0946 23.2699 95.0612 23.5627C95.0361 23.7802 95.0277 24.2235 95.0277 24.901V30.3714C95.0528 30.9652 95.011 31.5591 94.8857 32.1446C94.6852 32.8473 94.117 33.1902 93.1728 33.1902C92.3707 33.1902 91.8443 32.9476 91.5602 32.4708C91.3931 32.1781 91.3095 31.4838 91.3095 30.3714V21.4297C91.2845 20.9028 91.3179 20.3674 91.4181 19.8489C91.6605 19.1462 92.2036 18.7949 93.0475 18.7949C93.6825 18.7949 94.117 18.9789 94.3593 19.3553C94.493 19.6146 94.5682 19.9074 94.5682 20.2085C95.1865 19.2801 96.2393 18.7447 97.3506 18.7698C98.6457 18.7698 99.2974 19.3135 99.2974 20.3925C99.3141 20.8442 99.2055 21.2875 98.9883 21.6807ZM112.524 32.0443C112.407 32.8305 111.864 33.2237 110.903 33.2237C110.26 33.2237 109.809 33.0396 109.55 32.6883C109.399 32.4374 109.316 32.153 109.291 31.8686C108.447 32.772 107.31 33.232 105.873 33.232C105.171 33.2404 104.478 33.1066 103.826 32.8473C102.849 32.4625 102.055 31.7013 101.645 30.731C101.361 30.1121 101.219 29.4429 101.219 28.757C101.202 27.8286 101.487 26.9168 102.046 26.1724C102.723 25.2523 103.818 24.6584 105.33 24.3824C106.207 24.2486 107.093 24.1817 107.979 24.1984H109.082V23.5292C109.098 23.1528 108.956 22.7848 108.689 22.5171C108.296 22.1574 107.77 21.9734 107.244 22.0153C106.333 22.0153 105.447 22.3917 104.595 23.1361C104.336 23.4038 104.002 23.571 103.634 23.6045C103.241 23.6045 102.857 23.4539 102.573 23.1779C102.214 22.8684 102.005 22.4167 102.013 21.94C102.013 21.4297 102.28 20.9446 102.815 20.4678C103.325 20.0161 103.918 19.6648 104.561 19.4306C105.539 19.0542 106.583 18.8702 107.628 18.8786C109.149 18.8786 110.352 19.2048 111.238 19.8656C111.923 20.3842 112.374 21.1621 112.482 22.0153C112.566 22.6342 112.608 23.2616 112.591 23.8889V30.6474C112.599 31.1158 112.574 31.5926 112.533 32.061L112.524 32.0443ZM109.065 27.0507C108.104 27.0088 107.135 27.1092 106.199 27.3267C105.422 27.5609 105.038 28.0042 105.038 28.6483C105.029 29.0581 105.205 29.4513 105.522 29.7106C105.873 29.9866 106.308 30.1204 106.742 30.0953C107.795 30.0953 108.505 29.6771 108.865 28.8323C109.023 28.4392 109.098 28.0126 109.09 27.586L109.065 27.0507Z" fill="#A8899D"/>
<path d="M36.5305 5.78828C35.9205 6.80874 34.851 6.18977 34.3079 6.03921C33.7648 5.88865 31.4754 4.62561 27.4146 4.59215C23.3538 4.5587 18.7248 6.78365 18.7248 6.78365C18.7248 6.78365 16.051 5.60426 12.8592 7.51136C11.2299 8.79112 10.3358 10.7902 10.4779 12.8563C9.36658 14.5961 8.58951 16.5283 8.1968 18.5525C7.37796 22.5172 8.14667 26.6493 10.3358 30.062C10.3358 30.062 11.4889 31.4338 10.0434 32.2786C8.74827 33.0314 7.82916 31.4338 7.82916 31.4338C6.86827 30.062 6.03271 28.5982 5.33084 27.0759C4.17778 24.5582 4.35324 21.7059 3.39236 20.6101C2.36462 19.4307 0.325867 20.0915 0.325867 20.0915C0.325867 20.0915 2.21422 3.44622 19.5854 0.368094C29.6288 -1.40518 36.1796 3.85608 36.1796 3.85608C36.1796 3.85608 37.341 4.44159 36.5305 5.78828ZM16.4855 17.348C13.7783 17.348 11.5808 15.1481 11.5892 12.438C11.5975 9.72795 13.7783 7.52809 16.4855 7.52809C19.1927 7.52809 21.3902 9.72795 21.3819 12.438C21.3902 15.1481 19.1927 17.348 16.4855 17.348Z" fill="#A8899D"/>
<path d="M45.4292 31.4339C42.0201 41.1283 34.216 44.3235 34.216 44.3235C34.216 44.3235 33.1381 45.0512 32.3694 43.6795C31.7762 42.6506 32.8541 42.0149 33.2551 41.6134C33.6562 41.2119 35.8788 39.8151 37.9092 36.2602C39.9396 32.7053 40.2654 27.5444 40.2654 27.5444C40.2654 27.5444 42.6217 25.7711 42.5298 22.0322C41.8948 18.4438 39.0539 17.3314 39.0539 17.3314C38.093 15.5079 36.7979 13.8852 35.2437 12.5552C32.194 9.89533 28.2251 8.54865 24.1893 8.79959C24.1893 8.79959 22.418 9.14253 22.418 7.46127C22.418 5.95566 24.2395 5.9222 24.2395 5.9222C25.9022 5.74655 27.5817 5.72982 29.2528 5.85529C32.0018 6.08113 34.3998 7.62856 35.8286 7.32744C37.3744 6.99286 37.8005 4.88501 37.8005 4.88501C37.8005 4.88501 51.3449 14.6798 45.4626 31.459L45.4292 31.4339ZM40.7083 25.2107C39.363 27.5527 36.3801 28.3641 34.0322 27.0258C31.6926 25.6791 30.8821 22.693 32.219 20.3426C33.5559 18.0089 36.5138 17.1975 38.8533 18.5107C41.218 19.8407 42.0452 22.8435 40.7083 25.2107C40.7083 25.2023 40.7083 25.2023 40.7083 25.2107Z" fill="#A8899D"/>
<path d="M38.2768 33.0146C37.5916 34.5453 36.7645 36.0175 35.8119 37.3976C34.2411 39.6644 31.6843 40.9692 31.2498 42.3577C30.7652 43.8634 32.3778 45.2937 32.3778 45.2937C32.3778 45.2937 17.1122 52.094 5.58151 38.577C-1.08622 30.7479 0.0835578 22.3917 0.0835578 22.3917C0.0835578 22.3917 -0.00835334 21.0952 1.55414 21.112C2.73227 21.112 2.75734 22.3666 2.90774 22.9103C3.05814 23.454 3.15005 26.0888 5.19716 29.627C7.24427 33.1652 11.539 36.0593 11.539 36.0593C11.539 36.0593 11.89 38.9869 15.1653 40.7769C18.5911 42.0315 20.9724 40.1244 20.9724 40.1244C23.0279 40.2081 25.075 39.907 27.0219 39.2211C30.8487 37.9162 34.0071 35.1476 35.8119 31.5258C35.8119 31.5258 36.4052 29.8278 37.8757 30.6391C39.1876 31.3836 38.2852 32.9979 38.2852 32.9979L38.2768 33.0146ZM20.045 39.3884C17.7138 40.7936 14.6807 40.0408 13.2686 37.7071C11.8649 35.3734 12.6169 32.3371 14.9481 30.9235C17.2793 29.5099 20.3124 30.2711 21.7244 32.6048C21.7328 32.6131 21.7412 32.6299 21.7495 32.6382C23.1365 34.9719 22.3762 37.9915 20.045 39.3884Z" fill="#A8899D"/>
<path d="M129.294 20.4511C128.868 20.7523 128.358 20.9196 127.832 20.9112C127.489 20.9196 127.146 20.8192 126.871 20.6184C126.545 20.3257 126.269 19.9827 126.06 19.598C125.793 19.1212 125.425 18.7113 124.999 18.3768C124.548 18.0756 124.005 17.9251 123.462 17.9418C122.693 17.9167 121.949 18.2011 121.398 18.7281C120.763 19.3387 120.37 20.3675 120.236 21.8229C120.17 22.5172 120.136 23.2198 120.136 23.9224C120.136 25.5618 120.27 26.8165 120.546 27.6781C121.014 29.1418 122.025 29.8779 123.579 29.8779C124.297 29.903 124.999 29.6688 125.559 29.2171C125.968 28.824 126.294 28.3472 126.495 27.8119C126.846 27.0424 127.18 26.5739 127.514 26.4318C127.748 26.323 128.007 26.2728 128.266 26.2728C128.592 26.2728 128.918 26.3481 129.219 26.4819C129.804 26.691 130.188 27.2598 130.163 27.8788C130.138 28.4894 129.987 29.0833 129.712 29.627C128.642 32.0192 126.578 33.2153 123.52 33.2153C121.749 33.2153 120.328 32.864 119.242 32.1531C117.863 31.2581 116.969 29.8863 116.543 28.0461C116.251 26.6827 116.109 25.3025 116.125 23.9057C116.125 20.677 116.752 18.3182 118.005 16.821C119.317 15.2652 121.164 14.4873 123.545 14.4873C125.968 14.4873 127.781 15.2903 129.001 16.8962C129.62 17.716 129.921 18.5022 129.921 19.255C129.929 19.7318 129.678 20.1835 129.269 20.4344L129.294 20.4511ZM140.841 21.6807C140.591 22.1491 140.089 22.4252 139.554 22.4001C139.346 22.3917 139.145 22.3666 138.945 22.3248C138.736 22.2913 138.527 22.2746 138.318 22.2662C137.892 22.2328 137.482 22.4168 137.223 22.7514C137.056 22.9939 136.948 23.27 136.914 23.5627C136.889 23.7802 136.872 24.2235 136.872 24.9011V30.3714C136.897 30.9653 136.856 31.5592 136.739 32.1447C136.538 32.8473 135.97 33.1902 135.026 33.1902C134.224 33.1902 133.689 32.9477 133.413 32.4709C133.246 32.1781 133.162 31.4839 133.162 30.3714V21.4298C133.137 20.9028 133.171 20.3675 133.271 19.8489C133.513 19.1547 134.057 18.8033 134.909 18.795C135.535 18.795 135.978 18.979 136.221 19.3554C136.354 19.6147 136.43 19.9075 136.43 20.2086C137.048 19.2801 138.101 18.7448 139.212 18.7699C140.507 18.7699 141.159 19.3136 141.159 20.3926C141.175 20.8443 141.067 21.2876 140.841 21.6807ZM154.645 26.758C154.503 26.9169 154.31 27.0173 154.093 27.0507C153.742 27.0925 153.391 27.1093 153.04 27.1009H147.191C147.217 27.9875 147.35 28.64 147.601 29.0247C147.994 29.6437 148.679 29.9532 149.648 29.9448C150.199 29.9699 150.751 29.8194 151.219 29.5182C151.419 29.3593 151.595 29.1837 151.745 28.9829C152.138 28.5061 152.547 28.2719 152.982 28.2719C153.224 28.2719 153.458 28.3138 153.684 28.3974C153.985 28.5145 154.244 28.7236 154.436 28.9913C154.645 29.2422 154.753 29.5517 154.762 29.8779C154.737 30.4132 154.528 30.9235 154.168 31.325C153.166 32.588 151.637 33.2237 149.573 33.2237C147.76 33.2237 146.348 32.7637 145.345 31.8352C144.083 30.6725 143.448 28.7487 143.448 26.0804C143.423 24.7923 143.615 23.5042 144.041 22.283C144.459 21.0283 145.37 19.9995 146.565 19.439C147.434 19.0459 148.37 18.8535 149.322 18.8786C151.311 18.8786 152.79 19.5143 153.742 20.7857C154.553 21.8564 154.954 23.3453 154.954 25.2691C154.954 26.0219 154.854 26.5154 154.661 26.7663L154.645 26.758ZM150.467 22.2997C150.108 22.0655 149.681 21.9484 149.255 21.9568C147.877 21.9568 147.191 22.7179 147.191 24.2319H151.185C151.185 23.2532 150.943 22.6092 150.467 22.2997ZM168.415 32.9979C168.089 33.1568 167.738 33.2321 167.378 33.2237C166.66 33.2237 166.159 32.9895 165.883 32.5211C165.766 32.2952 165.674 32.061 165.624 31.8101C165.54 31.969 165.432 32.1112 165.298 32.2367C164.671 32.8975 163.811 33.2237 162.708 33.2237C162.023 33.2321 161.354 33.0899 160.727 32.8222C159.775 32.4374 158.998 31.7181 158.53 30.8064C157.962 29.7106 157.678 28.1297 157.678 26.0637C157.678 23.2867 158.237 21.3461 159.357 20.2337C160.276 19.3219 161.521 18.8284 162.816 18.8703C163.769 18.8703 164.521 19.071 165.064 19.4809C165.239 19.6063 165.39 19.7653 165.498 19.9409V17.0635C165.482 16.6119 165.515 16.1518 165.599 15.7001C165.741 15.1983 166.133 14.8051 166.635 14.6462C166.877 14.5626 167.128 14.5207 167.387 14.5207C167.688 14.5207 167.988 14.5793 168.273 14.6797C168.598 14.7884 168.874 15.0226 169.033 15.3321C169.158 15.5579 169.225 16.1434 169.225 17.0803V31.1828C169.225 32.1112 168.966 32.7135 168.44 32.9811H168.415V32.9979ZM165.148 23.0609C165.005 22.7597 164.772 22.5172 164.479 22.3582C164.203 22.191 163.877 22.1073 163.56 22.1073C163.192 22.099 162.833 22.2077 162.524 22.4001C161.872 22.8183 161.555 23.9224 161.555 25.7124C161.555 27.1176 161.655 28.1214 161.847 28.7069C161.939 29.008 162.114 29.2757 162.357 29.4848C162.674 29.7608 163.084 29.903 163.51 29.8946C164.212 29.8946 164.721 29.6521 165.022 29.1586C165.331 28.5229 165.49 27.8203 165.482 27.1093C165.498 26.7914 165.507 26.2728 165.507 25.5618C165.507 24.3992 165.39 23.5627 165.156 23.0692V23.0609H165.148ZM175.041 18.1175C174.497 18.1426 173.971 17.9418 173.595 17.557C173.244 17.1388 173.06 16.5951 173.094 16.0431C173.094 15.2066 173.378 14.6211 173.946 14.2949C174.289 14.1025 174.673 14.0105 175.066 14.0189C175.592 13.9854 176.102 14.1945 176.461 14.5793C176.795 15.0059 176.954 15.5412 176.921 16.0765C176.929 17.4399 176.302 18.1175 175.041 18.1175ZM175.041 18.8703C175.951 18.8703 176.511 19.2132 176.728 19.8907C176.845 20.493 176.895 21.1119 176.862 21.7225V31.1911C176.862 32.5378 176.252 33.2153 175.032 33.2153C174.715 33.2237 174.406 33.1652 174.113 33.0397C173.837 32.9309 173.612 32.7302 173.461 32.4793C173.278 32.1029 173.177 31.6846 173.186 31.2581V21.6975C173.186 20.6937 173.244 20.058 173.361 19.7904C173.645 19.1797 174.205 18.8703 175.041 18.8703ZM185.101 29.7859C185.176 30.0787 185.393 30.2125 185.786 30.2125C185.919 30.2125 186.053 30.1958 186.187 30.1623C186.379 30.1205 186.58 30.087 186.78 30.087C186.956 30.0787 187.123 30.1205 187.281 30.1874C187.524 30.338 187.708 30.5638 187.816 30.8231C187.941 31.074 188.008 31.3501 188.017 31.6345C188.017 32.1029 187.741 32.5295 187.315 32.7218C186.588 33.0815 185.777 33.2488 184.975 33.207C183.538 33.207 182.527 32.8055 181.951 31.9941C181.666 31.5675 181.483 31.074 181.433 30.5554C181.382 30.0536 181.357 29.5433 181.374 29.0331V22.3833H180.889C180.004 22.3833 179.578 21.8397 179.578 20.7523C179.578 19.7318 180.012 19.2132 180.889 19.2132H181.374V17.4316C181.357 17.0217 181.382 16.6035 181.433 16.1936C181.633 15.4157 182.235 15.0142 183.254 15.0142C183.605 15.0059 183.956 15.0728 184.273 15.2233C184.624 15.4157 184.883 15.7419 184.975 16.1351C185.059 16.5617 185.092 16.9883 185.076 17.4232V19.2048H186.17C187.198 19.2048 187.708 19.7151 187.708 20.7439C187.716 21.0367 187.666 21.3211 187.565 21.5971C187.482 21.8229 187.34 22.0237 187.139 22.1659C186.839 22.3248 186.504 22.3917 186.17 22.375H185.076V29.0917C185.067 29.3175 185.076 29.5433 185.109 29.7692L185.101 29.7859Z" fill="#A8899D"/>
</g>
<defs>
<clipPath id="clip0_619_4375">
<rect width="188" height="47" fill="white"/>
</clipPath>
</defs>
</svg>
