<svg width="91" height="55" viewBox="0 0 91 55" fill="none" xmlns="http://www.w3.org/2000/svg">
<path d="M53.7651 35.2562C53.0814 34.2376 44.4397 12.3268 44.4397 12.3268C44.4397 12.3268 44.0876 10.5902 44.9097 9.38258C45.2943 8.81765 45.4263 8.44007 46.3198 8.44116C47.2598 8.44232 48.5416 9.26764 49.2253 9.94635C49.9089 10.6251 59.4802 34.5771 59.4802 34.5771C59.4802 34.5771 59.1384 35.2562 58.4547 35.2562C57.7711 35.2562 56.3361 34.9797 55.0364 34.5771C53.4965 34.1002 54.4487 36.2748 53.7651 35.2562Z" fill="#A8899D"/>
<path fill-rule="evenodd" clip-rule="evenodd" d="M45.1956 8.42014C45.5 8.15937 45.8788 8.0477 46.3972 8.04834C46.9853 8.04907 47.6245 8.30089 48.1735 8.60695C48.733 8.91885 49.259 9.32107 49.6324 9.69234C49.7029 9.76241 49.7603 9.85732 49.7965 9.91932C49.8415 9.99637 49.8926 10.0925 49.9484 10.203C50.0605 10.4247 50.2015 10.7242 50.366 11.0868C50.6955 11.8132 51.1272 12.8103 51.6243 13.9835C52.6188 16.331 53.88 19.3955 55.1191 22.4368C56.3584 25.4786 57.5762 28.499 58.4841 30.7587C58.9381 31.8887 59.3146 32.8285 59.5777 33.4859L59.99 34.5173C59.99 34.5175 59.9904 34.5184 59.5541 34.6933C59.9738 34.9053 59.9737 34.9055 59.9736 34.9056L59.973 34.9068L59.9721 34.9085L59.97 34.9127L59.964 34.924C59.9593 34.9328 59.9531 34.9441 59.9453 34.9576C59.9298 34.9846 59.9081 35.0204 59.8801 35.0623C59.8245 35.1452 59.7412 35.2559 59.6288 35.3678C59.4063 35.5891 59.0379 35.8445 58.5288 35.8445C57.7743 35.8445 56.2861 35.551 54.9724 35.1434C54.7817 35.0842 54.696 35.0922 54.667 35.0999C54.6594 35.1136 54.6359 35.1625 54.6218 35.2892C54.6159 35.3419 54.6132 35.3874 54.6102 35.4395C54.6089 35.4621 54.6075 35.486 54.6057 35.5122C54.6032 35.549 54.5995 35.5976 54.5919 35.6453C54.5863 35.6811 54.5707 35.7745 54.5168 35.8674C54.4866 35.9193 54.4317 35.9936 54.3378 36.0497C54.2362 36.1104 54.1241 36.1287 54.0218 36.1161C53.8537 36.0953 53.7438 35.9955 53.7102 35.9645C53.6214 35.8829 53.5338 35.7609 53.4502 35.6361C53.3832 35.5362 53.2941 35.3552 53.197 35.1465C53.0936 34.9241 52.9638 34.6317 52.8122 34.2812C52.509 33.5798 52.1142 32.636 51.6608 31.5349C50.7537 29.3321 49.609 26.4919 48.4861 23.6849C47.3632 20.8776 46.2616 18.1023 45.4408 16.029C45.0304 14.9923 44.6902 14.131 44.4526 13.5289L44.0803 12.5847C44.0802 12.5845 44.0799 12.5837 44.517 12.4107C44.0564 12.5044 44.0564 12.5043 44.0564 12.5041L44.0562 12.503L44.0558 12.501L44.0546 12.495L44.051 12.4756C44.048 12.4595 44.0441 12.4369 44.0395 12.4085C44.0304 12.3518 44.0188 12.2715 44.0078 12.1721C43.9858 11.9739 43.9659 11.6969 43.9739 11.3781C43.9897 10.7513 44.1146 9.90904 44.5985 9.19696C44.6294 9.15153 44.6678 9.09299 44.7075 9.03258C44.7609 8.9512 44.8165 8.86641 44.8589 8.80569C44.9486 8.67741 45.0555 8.54021 45.1956 8.42014ZM44.517 12.4107L44.0564 12.5041L44.0647 12.5451L44.0799 12.5837L44.517 12.4107ZM44.971 12.2808L45.3265 13.1822C45.564 13.7841 45.9041 14.645 46.3144 15.6814C47.1349 17.7541 48.236 20.5283 49.3584 23.3342C50.481 26.1403 51.6243 28.977 52.5295 31.1754C52.9822 32.2748 53.3745 33.2126 53.6745 33.9065C53.7729 34.1341 53.861 34.3343 53.9376 34.5047C53.9704 34.4636 54.0076 34.4241 54.0498 34.3871C54.3654 34.11 54.795 34.102 55.2502 34.2433C56.5352 34.642 57.9163 34.9023 58.5288 34.9023C58.7033 34.9023 58.8475 34.8176 58.9668 34.699C58.988 34.6779 59.0074 34.6566 59.025 34.6359L58.7055 33.8367C58.4425 33.1797 58.0662 32.2403 57.6124 31.1108C56.7047 28.8518 55.4875 25.833 54.2491 22.7931C53.0104 19.7528 51.7512 16.6932 50.7593 14.3519C50.2631 13.1808 49.8351 12.1924 49.5105 11.4769C49.348 11.1186 49.2133 10.833 49.1101 10.6287C49.0582 10.5262 49.0168 10.449 48.9855 10.3954C48.9696 10.3681 48.9595 10.3528 48.955 10.3459C48.6453 10.0413 48.1959 9.69751 47.7168 9.43044C47.2192 9.15303 46.7477 8.99101 46.396 8.99058C46.0211 8.99012 45.8873 9.06697 45.8062 9.13643C45.7537 9.18147 45.6996 9.24481 45.6285 9.34652C45.5834 9.411 45.5492 9.46373 45.5099 9.52421C45.4735 9.58019 45.4328 9.6428 45.3752 9.72753C45.0372 10.2248 44.9272 10.8568 44.9135 11.4019C44.9067 11.669 44.9235 11.9024 44.9418 12.0681C44.951 12.1506 44.9605 12.2156 44.9674 12.2587C44.9687 12.2669 44.9699 12.2742 44.971 12.2808ZM54.6549 35.1049C54.6547 35.1046 54.6568 35.1032 54.662 35.1014C54.6577 35.1044 54.6551 35.1052 54.6549 35.1049ZM59.5541 34.6933L59.9736 34.9056L60.0691 34.7156L59.9904 34.5184L59.5541 34.6933Z" fill="#A8899D"/>
<path d="M48.697 45.5354C49.1652 44.3649 54.315 33.0518 54.315 33.0518C54.315 33.0518 55.1695 30.2727 56.6561 30.0855C57.3515 29.9979 57.7023 32.357 58.3369 33.0518C59.0045 33.7827 59.4195 34.2402 59.3988 35.2354C59.3781 36.2305 50.5037 52.09 50.5037 52.09C50.5037 52.09 49.5854 54.0255 49.0992 53.4945C48.613 52.9635 48.0407 51.6175 47.7607 50.2172C47.2925 47.8763 48.2289 46.7058 48.697 45.5354Z" fill="#A8899D"/>
<path fill-rule="evenodd" clip-rule="evenodd" d="M58.3366 32.1021C58.4685 32.4168 58.5837 32.6274 58.683 32.7361L58.7005 32.7552C59.0185 33.1033 59.3228 33.4364 59.5351 33.816C59.7634 34.2244 59.8793 34.6708 59.8673 35.2452C59.8653 35.3415 59.8406 35.4368 59.8211 35.5033C59.7986 35.5798 59.7681 35.6658 59.7325 35.7577C59.6612 35.9421 59.5601 36.1737 59.436 36.4419C59.1873 36.9795 58.8356 37.6873 58.4172 38.5025C57.5797 40.1343 56.4664 42.2138 55.3553 44.2593C54.2439 46.3055 53.1333 48.3203 52.3006 49.8233C51.8843 50.5749 51.5374 51.1986 51.2945 51.6345C51.1731 51.8524 51.0777 52.0234 51.0126 52.1399L50.9197 52.3061L50.9146 52.3167C50.907 52.3323 50.8961 52.3545 50.8821 52.3823C50.8543 52.4377 50.8143 52.5155 50.7648 52.6069C50.6668 52.7881 50.5275 53.0301 50.3686 53.2587C50.2174 53.476 50.0176 53.7271 49.7904 53.8842C49.6753 53.9638 49.5113 54.0488 49.3133 54.0546C49.0912 54.0612 48.8968 53.9663 48.7543 53.8107C48.4558 53.4846 48.1662 52.9554 47.9204 52.3607C47.67 51.7548 47.448 51.0391 47.302 50.309C46.8908 48.2528 47.5054 46.9724 47.9788 45.986C48.0849 45.7649 48.184 45.5586 48.2628 45.3615C48.5019 44.7636 49.9133 41.6279 51.2555 38.6617C51.9286 37.1741 52.587 35.7232 53.0772 34.6442C53.3223 34.1047 53.5253 33.6581 53.667 33.3464L53.8777 32.8833L53.8801 32.8761C53.8875 32.8532 53.8982 32.8207 53.9123 32.7798C53.9404 32.698 53.9819 32.5824 54.0363 32.4437C54.1446 32.1675 54.3065 31.794 54.5193 31.4113C54.7307 31.0313 55.0018 30.6251 55.3338 30.2956C55.6645 29.9676 56.0868 29.6854 56.598 29.621C57.0739 29.5611 57.3717 29.9339 57.5176 30.162C57.6873 30.4271 57.8309 30.7775 57.9572 31.1084C58.0022 31.2263 58.0451 31.3423 58.0873 31.456C58.1706 31.6808 58.2507 31.8968 58.3366 32.1021ZM54.3154 33.0519C54.7415 33.2458 54.7415 33.2459 54.7415 33.2459L54.5194 33.7341C54.3777 34.0456 54.1747 34.4921 53.9297 35.0315C53.4397 36.1102 52.7814 37.5607 52.1086 39.0477C50.7588 42.0307 49.3612 45.1368 49.1322 45.7093C49.0297 45.9656 48.9135 46.2104 48.797 46.4559C48.3385 47.4224 47.875 48.3993 48.2202 50.1254C48.3543 50.7957 48.5585 51.4531 48.7858 52.0031C48.9755 52.4621 49.1703 52.8194 49.3377 53.0465C49.4107 52.9754 49.5006 52.8667 49.5998 52.7241C49.7312 52.5352 49.8519 52.3265 49.9413 52.1613C49.9855 52.0796 50.0211 52.0104 50.0454 51.962C50.0575 51.9379 50.0668 51.919 50.0729 51.9065L50.0795 51.8927L50.081 51.8897L50.0879 51.8751L50.0956 51.8614L50.5042 52.09C50.0956 51.8614 50.0955 51.8615 50.0956 51.8614L50.1951 51.6834C50.26 51.5671 50.3553 51.3964 50.4765 51.1787C50.7191 50.7434 51.0656 50.1203 51.4816 49.3695C52.3135 47.8678 53.4228 45.8555 54.5325 43.8124C55.6426 41.7687 56.7518 39.6968 57.5841 38.075C58.0006 37.2635 58.3455 36.569 58.5862 36.0488C58.7068 35.7881 58.7984 35.577 58.8593 35.4196C58.8899 35.3407 58.9104 35.2812 58.9227 35.2393C58.9274 35.2234 58.9301 35.2127 58.9315 35.2066C58.9375 34.7963 58.8565 34.5211 58.7178 34.2731C58.5648 33.9994 58.335 33.7435 57.9917 33.3676C57.7736 33.1289 57.6071 32.7841 57.473 32.4638C57.3796 32.2409 57.2874 31.9923 57.2 31.7567C57.1596 31.6478 57.1203 31.5417 57.0823 31.4422C56.9546 31.1074 56.8405 30.841 56.7289 30.6667C56.6946 30.6131 56.6686 30.5802 56.6509 30.5607C56.4385 30.605 56.2183 30.7372 55.9933 30.9604C55.747 31.2047 55.5257 31.5283 55.3376 31.8665C55.151 32.2019 55.0063 32.5349 54.908 32.7856C54.8591 32.9104 54.8222 33.0134 54.7977 33.0844C54.7856 33.1198 54.7765 33.1472 54.7707 33.1651L54.7644 33.1848L54.763 33.1891L54.754 33.2183L54.7415 33.2459L54.3154 33.0519ZM56.6231 30.5352C56.6231 30.5349 56.625 30.536 56.6288 30.5391C56.625 30.537 56.623 30.5355 56.6231 30.5352ZM49.235 53.1279C49.235 53.1278 49.2355 53.1276 49.2367 53.1271L49.235 53.1279Z" fill="#A8899D"/>
<path d="M57.5172 25.8961L60.2481 32.9791L73.4167 0.429267C73.4167 0.429267 73.4645 0.362516 72.949 0.409087C72.2919 0.468454 71.6964 0.641152 71.0785 0.880837C70.3719 1.15493 69.8603 1.32906 69.208 1.82537C68.6278 2.26678 67.4544 3.18244 67.4544 3.18244C67.4544 3.18244 66.6193 3.99427 66.1294 4.55903C65.5749 5.19829 65.7982 4.90264 64.8044 6.27976C63.8107 7.65689 57.5172 25.8961 57.5172 25.8961Z" fill="#A8899D"/>
<path fill-rule="evenodd" clip-rule="evenodd" d="M72.8365 0.986426C72.3397 1.05828 71.8675 1.20045 71.365 1.39419C71.306 1.41695 71.2488 1.43885 71.1932 1.46015C70.5716 1.69826 70.1494 1.85999 69.6066 2.27054C69.3183 2.48856 68.8811 2.82479 68.5148 3.10748C68.3319 3.24862 68.1672 3.37607 68.0481 3.46823L67.8763 3.60131L67.8587 3.61845C67.8353 3.6412 67.8012 3.67445 67.7588 3.71616C67.6738 3.79962 67.5554 3.91674 67.422 4.05113C67.153 4.32194 66.8303 4.65549 66.5956 4.92449C66.5086 5.02413 66.4419 5.09975 66.3877 5.16123C66.2616 5.30406 66.203 5.37057 66.1142 5.4847C66.0086 5.62045 65.8685 5.81363 65.5577 6.24226C65.4813 6.34758 65.3946 6.46711 65.2956 6.6035C65.2602 6.65222 65.1928 6.76985 65.0925 6.9771C64.9963 7.1758 64.8809 7.43338 64.7487 7.74357C64.4844 8.36347 64.159 9.17882 63.7945 10.1237C63.0659 12.0128 62.1866 14.4056 61.3374 16.7584C60.4884 19.1107 59.6703 21.4204 59.0645 23.1423C58.7616 24.0031 58.5117 24.7169 58.3377 25.2155C58.2506 25.4648 58.1825 25.6602 58.1362 25.7933L58.1222 25.8335L60.3672 31.6211L72.8365 0.986426ZM57.6233 25.8424C57.1813 25.6878 57.1814 25.6877 57.1814 25.6876L57.2524 25.4833C57.2989 25.35 57.3671 25.1542 57.4542 24.9046C57.6285 24.4055 57.8786 23.691 58.1818 22.8293C58.7882 21.106 59.6071 18.7938 60.4573 16.4383C61.3072 14.0835 62.1892 11.6831 62.9215 9.78446C63.2875 8.83557 63.6174 8.00852 63.888 7.37385C64.0232 7.05675 64.1452 6.78399 64.2505 6.56638C64.3517 6.3573 64.4501 6.17261 64.539 6.05008C64.6349 5.91807 64.7197 5.80116 64.7951 5.69711C65.1075 5.26624 65.2602 5.05572 65.3763 4.90643C65.4839 4.76808 65.5662 4.6748 65.7043 4.51829C65.757 4.45852 65.8179 4.38953 65.8914 4.30529C66.147 4.01243 66.4874 3.66123 66.759 3.38774C66.8958 3.24999 67.017 3.13007 67.1041 3.04454C67.1476 3.00175 67.1827 2.96752 67.2069 2.94389L67.235 2.91667L67.2443 2.90761L67.245 2.90695L67.5697 3.24537L67.2835 2.87357L67.4764 2.72411C67.5958 2.63175 67.7609 2.50401 67.9443 2.36252C68.3104 2.07994 68.7509 1.74113 69.0433 1.52001C69.6954 1.02679 70.2322 0.821714 70.8502 0.585643C70.9091 0.563129 70.9688 0.540334 71.0293 0.51698C71.6721 0.269164 72.3124 0.0825187 73.0277 0.0182838C73.285 -0.00482253 73.4641 -0.007464 73.591 0.0186542C73.6273 0.0261423 73.6776 0.0394319 73.7312 0.0657352C73.783 0.0912014 73.8656 0.14252 73.929 0.240099C74.0002 0.349683 74.0189 0.474337 73.9996 0.584748C73.9921 0.627263 73.9799 0.663479 73.9673 0.692621L60.3463 34.157L57.1245 25.8514L57.1814 25.6876L57.6233 25.8424ZM67.5697 3.24537L67.2835 2.87357L67.2634 2.88918L67.245 2.90695L67.5697 3.24537Z" fill="#A8899D"/>
<path d="M83.7664 29.9784H74.3388L72.5403 34.3532H67.725L76.7755 13.9375H81.4168L90.4963 34.3532H85.5649L83.7664 29.9784ZM82.287 26.391L79.0671 18.5748L75.8472 26.391H82.287Z" fill="#A8899D"/>
<path d="M30.9179 34.5495C28.8136 34.5495 26.9119 34.0992 25.213 33.1987C23.5334 32.2981 22.211 31.0623 21.2457 29.4911C20.2997 27.9008 19.8267 26.1189 19.8267 24.1453C19.8267 22.1718 20.2997 20.3995 21.2457 18.8283C22.211 17.238 23.5334 15.9926 25.213 15.092C26.9119 14.1915 28.8136 13.7412 30.9179 13.7412C33.0222 13.7412 34.9142 14.1915 36.5938 15.092C38.2734 15.9926 39.5959 17.238 40.5612 18.8283C41.5265 20.3995 42.0091 22.1718 42.0091 24.1453C42.0091 26.1189 41.5265 27.9008 40.5612 29.4911C39.5959 31.0623 38.2734 32.2981 36.5938 33.1987C34.9142 34.0992 33.0222 34.5495 30.9179 34.5495ZM30.9179 30.5833C32.1149 30.5833 33.196 30.315 34.1613 29.7785C35.1266 29.2229 35.8795 28.4564 36.4201 27.4793C36.9799 26.5021 37.2599 25.3908 37.2599 24.1453C37.2599 22.8999 36.9799 21.7886 36.4201 20.8114C35.8795 19.8342 35.1266 19.0774 34.1613 18.5409C33.196 17.9853 32.1149 17.7074 30.9179 17.7074C29.7209 17.7074 28.6398 17.9853 27.6745 18.5409C26.7092 19.0774 25.9467 19.8342 25.3868 20.8114C24.8462 21.7886 24.5759 22.8999 24.5759 24.1453C24.5759 25.3908 24.8462 26.5021 25.3868 27.4793C25.9467 28.4564 26.7092 29.2229 27.6745 29.7785C28.6398 30.315 29.7209 30.5833 30.9179 30.5833Z" fill="#A8899D"/>
<path d="M6.55978 16.8059H0V12.9561H17.8637V16.8059H11.3039V33.3717H6.55978V16.8059Z" fill="#A8899D"/>
</svg>
