<svg width="169" height="37" viewBox="0 0 169 37" fill="none" xmlns="http://www.w3.org/2000/svg">
<path d="M10.5635 34.806C9.87107 33.9419 1.0423 16.3182 0.869197 12.6897C0.696102 9.06126 3.81208 4.22335 3.81208 4.22335C3.81208 4.22335 4.94945 2.09908 6.23567 1.45881C7.74815 0.705909 9.09841 0.617692 10.5635 1.45881C11.5615 2.03176 12.4677 3.70499 12.4677 3.70499C12.4677 3.70499 13.268 5.39751 13.3332 6.29675C13.4205 7.50025 8.63939 17.4908 8.48616 18.0461C8.33293 18.6013 8.35361 18.8021 8.48616 19.2554C8.77007 20.2272 9.55273 20.729 10.5635 20.8106C11.3522 20.8742 11.9293 20.572 12.4677 20.1194C13.0061 19.6669 20.2509 2.84086 21.1234 2.32273C21.8705 1.50024 22.9625 0.964122 24.3558 1.00024C25.6183 1.03298 27.0091 1.45902 27.7016 2.32273C28.3941 3.18643 28.5524 10.2828 31.3222 10.9591C34.092 11.6353 35.1965 5.12807 36.0111 3.70499C36.7034 2.49529 37.0359 1.93738 38.2734 1.50024C39.7646 0.9735 41.1844 0.857253 42.747 1.50024C43.8598 1.95818 44.4209 2.65899 45.0129 3.70499C45.7776 5.05624 45.0129 7.67903 45.0129 7.67903C45.0129 7.67903 32.7889 34.1118 32.5488 34.806C32.3087 35.5002 31.1811 36.0027 30.4715 36.0155C29.2142 36.0383 27.495 35.7211 26.4898 34.806C25.4846 33.891 24.9731 33.0532 24.9318 31.696C24.902 30.7139 25.6243 29.2769 25.6243 29.2769C25.6243 29.2769 29.779 18.7369 29.779 18.0461C29.779 17.3551 29.1509 16.39 28.3323 16.0002C27.4157 15.5639 26.3168 15.6272 25.6243 16.3182C24.9318 17.0091 18.2342 33.2447 16.6224 34.806C15.9058 35.5002 14.6998 36.0966 13.3332 36.0155C12.1547 35.9455 11.2559 35.6701 10.5635 34.806Z" fill="#A8899D" stroke="#A8899D"/>
<path d="M69.846 13.6101L66.5155 23.5424L63.2223 13.6101H60.9896L57.6219 23.4867L54.3845 13.6101H51.8728L56.1893 26.6056H58.7755L62.0501 16.989L65.2689 26.6056H67.8365L72.1531 13.6101H69.846ZM76.5422 24.582V20.999H82.831V19.0125H76.5422V15.6337H83.631V13.6101H74.1235V26.6056H83.8915V24.582H76.5422ZM95.8161 19.848C96.8215 19.3096 97.4906 18.3256 97.4906 16.989C97.4906 14.9283 95.8161 13.6101 92.6905 13.6101H86.5875V26.6056H93.0629C96.4119 26.6056 98.1605 25.3061 98.1605 23.0782C98.1605 21.3889 97.2121 20.2935 95.8161 19.848ZM92.4301 15.5037C94.1045 15.5037 95.0539 16.0978 95.0539 17.3045C95.0539 18.4927 94.1045 19.0868 92.4301 19.0868H89.0069V15.5037H92.4301ZM92.9138 24.712H89.0069V20.9618H92.9138C94.7374 20.9618 95.723 21.5374 95.723 22.8369C95.723 24.1364 94.7374 24.712 92.9138 24.712ZM110.141 13.6101L105.768 23.6352L101.433 13.6101H98.809L104.502 26.6056H106.884L112.559 13.6101H110.141ZM123.265 26.6056H125.796L119.916 13.6101H117.534L111.674 26.6056H114.166L115.45 23.598H121.962L123.265 26.6056ZM116.269 21.7044L118.706 16.0235L121.163 21.7044H116.269ZM137.388 13.6101H135.006L131.154 19.9408L127.34 13.6101H124.754L129.87 22.0572V26.6056H132.289V22.02L137.388 13.6101Z" fill="#A8899D"/>
<path d="M139.498 26.7407C140.335 26.7407 141.023 26.0907 141.023 25.1993C141.023 24.2706 140.335 23.6578 139.498 23.6578C138.661 23.6578 137.973 24.2706 137.973 25.1993C137.973 26.0907 138.661 26.7407 139.498 26.7407ZM153.008 13.6101L148.635 23.6392L144.301 13.6101H141.677L147.37 26.6107H149.752L155.426 13.6101H153.008ZM165.972 13.6101V22.4134L158.792 13.6101H156.801V26.6107H159.2V17.8075L166.382 26.6107H168.373V13.6101H165.972Z" fill="#A8899D"/>
</svg>
