<svg width="182" height="42" viewBox="0 0 182 42" fill="none" xmlns="http://www.w3.org/2000/svg">
<path d="M20.5735 12.0273C19.7696 15.762 16.768 18.4178 11.0915 18.4178C4.52698 18.4178 1.23204 14.2328 1.23204 9.19624C1.23204 4.36035 4.47624 0 11.3182 0C17.3293 0 20.147 3.10754 20.5989 6.28934H14.8145C14.6307 5.5247 14.1685 4.85527 13.5176 4.41075C12.8667 3.96622 12.0733 3.77825 11.2913 3.88324C8.5957 3.88324 7.29231 5.98917 7.29231 9.07143C7.29231 11.8772 8.34834 14.484 11.3166 14.484C12.104 14.5771 12.8983 14.3782 13.5479 13.9251C14.1975 13.4719 14.6568 12.7964 14.8383 12.0273H20.5735Z" fill="#A8899D"/>
<path d="M42.804 9.17096C42.804 14.1332 39.4837 18.4178 32.5419 18.4178C26.1549 18.4178 22.6333 14.3576 22.6333 9.19624C22.6333 4.33508 26.0535 0 32.794 0C39.1825 0 42.804 4.15971 42.804 9.17096ZM28.6919 9.09671C28.6919 12.179 29.924 14.4334 32.8146 14.4334C35.8082 14.4334 36.739 11.8519 36.739 9.19624C36.739 6.13925 35.6576 3.88324 32.6639 3.88324C29.8257 3.88324 28.6951 6.2135 28.6951 9.09671H28.6919Z" fill="#A8899D"/>
<path d="M62.5451 12.078C62.5451 9.27216 62.6196 5.88815 62.7465 3.83436H62.6957C61.8411 7.24207 60.709 11.7778 58.9235 18.0181H54.219C52.8125 12.2296 51.682 7.34318 50.7988 3.78538H50.748C50.8733 5.83917 51.0763 9.24846 51.0763 12.2802V18.0197H45.9452V0.401367H54.1698C55.302 4.36044 56.4325 8.69552 56.9352 11.653H56.9605C57.6392 8.54543 58.7729 4.43627 59.9542 0.401367H68.1535V18.0166H62.5451V12.078Z" fill="#A8899D"/>
<path d="M72.3268 0.401367H82.2608C86.5119 0.401367 89.4833 2.50887 89.4833 6.1425C89.4833 9.87724 86.691 12.0306 82.2909 12.0306H78.0351V18.0197H72.3268V0.401367ZM78.0351 8.16943H81.3808C82.9157 8.16943 83.8211 7.5375 83.8211 6.18989C83.8211 5.06189 83.1424 4.25933 81.3808 4.25933H78.0351V8.16943Z" fill="#A8899D"/>
<path d="M92.0933 0.401367H97.8539V13.9327H107.336L106.657 18.0166H92.0933V0.401367Z" fill="#A8899D"/>
<path d="M111.156 18.0166V11.9026C111.156 11.6543 111.067 11.4141 110.904 11.2264L103.787 0.401367H110.528C111.955 2.92911 113.445 5.58798 114.3 7.46798C115.155 5.66381 116.713 3.05866 118.148 0.401367H124.332L117.062 11.4018C116.957 11.5834 116.913 11.7938 116.937 12.0021V18.0166H111.156Z" fill="#A8899D"/>
<path d="M6.89273 38.3174L5.76059 41.5971H0L6.68977 23.9819H14.185L21.3013 41.5971H15.1412L13.9345 38.3142L6.89273 38.3174ZM12.601 34.2335C11.4435 31.0517 10.7648 29.0469 10.3367 27.5982H10.2368C9.85944 29.0516 9.07931 31.5573 8.12317 34.2335H12.601Z" fill="#A8899D"/>
<path d="M23.212 23.9836H32.1613C38.5482 23.9836 41.7686 27.8669 41.7686 32.5037C41.7686 37.9415 37.7697 41.6004 32.1106 41.6004H23.212V23.9836ZM28.9472 37.6477H31.4367C34.2781 37.6477 35.7179 35.943 35.7179 32.6364C35.7179 29.9302 34.5857 27.9506 31.4367 27.9253H28.9472V37.6477Z" fill="#A8899D"/>
<path d="M49.2877 41.5971L42.3981 23.9819H48.6598L51.2507 31.8811C51.8941 33.7473 52.4393 35.6457 52.8839 37.5685H52.9346C53.4334 35.5588 54.0378 33.5765 54.7454 31.6299L57.1603 23.9867H63.3221L56.3088 41.5971H49.2877Z" fill="#A8899D"/>
<path d="M68.228 38.3174L67.099 41.5971H61.3369L68.0266 23.9819H75.5219L82.6382 41.5971H76.4764L75.2698 38.3142L68.228 38.3174ZM73.9363 34.2335C72.7788 31.0517 72.1001 29.0469 71.672 27.5982H71.5721C71.1947 29.0516 70.4146 31.5573 69.4584 34.2335H73.9363Z" fill="#A8899D"/>
<path d="M84.5489 41.5973V23.9836H91.2402C95.1631 30.303 96.4728 32.578 97.6287 34.8577H97.7286C97.5526 33.1799 97.578 29.9965 97.578 27.0896V23.9836H102.733V41.5973H96.4205C95.0362 39.1406 90.6868 31.6443 89.6292 29.4941H89.5547C89.7132 31.4989 89.7307 33.8545 89.7307 37.3127V41.5973H84.5489Z" fill="#A8899D"/>
<path d="M111.048 28.0422H105.181V23.9836H122.587V28.0422H116.788V41.5973H111.048V28.0422Z" fill="#A8899D"/>
<path d="M127.779 38.3174L126.652 41.5971H120.891L127.581 23.9819H135.077L142.191 41.5971H136.029L134.821 38.3142L127.779 38.3174ZM133.488 34.2335C132.33 31.0517 131.652 29.0469 131.223 27.5982H131.124C130.746 29.0516 129.966 31.5573 129.011 34.2335H133.488Z" fill="#A8899D"/>
<path d="M162.081 41.5986H158.133C157.98 41.072 157.862 40.5358 157.781 39.9935C156.649 41.2463 155.165 41.9983 151.914 41.9983C150.702 42.0793 149.487 41.9007 148.35 41.4744C147.212 41.0481 146.18 40.384 145.322 39.5269C144.465 38.6698 143.801 37.6395 143.376 36.5054C142.952 35.3713 142.776 34.1597 142.86 32.9522C142.86 27.9409 146.055 23.5806 153.021 23.5806C158.629 23.5806 161.572 26.4116 162.1 29.3691H156.352C156.117 28.6971 155.655 28.1274 155.045 27.7574C154.434 27.3874 153.714 27.2401 153.007 27.3406C150.015 27.3406 148.933 29.7972 148.933 32.6536C148.933 35.7611 150.165 38.1404 153.134 38.1404C155.648 38.1404 156.554 36.7185 156.554 35.3598V35.1829H153.083V31.3249H162.086L162.081 41.5986Z" fill="#A8899D"/>
<path d="M180.893 34.5828H171.437V37.5402H182L181.345 41.5973H165.774V23.9836H181.393V28.0422H171.433V30.4989H180.89L180.893 34.5828Z" fill="#A8899D"/>
</svg>
