<svg width="314" height="47" viewBox="0 0 314 47" fill="none" xmlns="http://www.w3.org/2000/svg">
<path d="M31.6349 18.6764C31.6349 13.8303 28.0109 9.88916 23.5531 9.88916C19.0953 9.88916 15.4747 13.8337 15.4747 18.6764C15.4747 21.6158 16.8079 24.2202 18.8507 25.8195C18.3857 26.3514 17.9309 26.9662 17.49 27.6536C17.9447 27.702 18.3857 27.8678 18.7681 28.1475C19.147 27.5776 19.5328 27.0699 19.929 26.6277C21.0486 27.2391 22.2923 27.5638 23.5531 27.5638C24.814 27.5638 26.0541 27.2391 27.1772 26.6277C27.5596 27.0561 27.9316 27.5465 28.2968 28.0888L28.3002 28.0854C28.3037 28.0888 28.3037 28.0888 28.3071 28.0923L29.2097 27.0526C28.8962 26.607 28.5793 26.196 28.252 25.8229C30.3018 24.2237 31.6349 21.6193 31.6349 18.6764ZM16.8148 18.6764C16.8148 14.5729 19.8394 11.2328 23.5531 11.2328C27.2702 11.2328 30.2914 14.5729 30.2914 18.6764C30.2914 22.7799 27.2668 26.12 23.5531 26.12C19.8394 26.1234 16.8148 22.7799 16.8148 18.6764Z" fill="#A8899D"/>
<path d="M23.5669 38.9036C23.1259 38.9036 22.7056 38.7136 22.4163 38.3786L16.0535 31.0662C15.4988 30.4307 15.5643 29.4635 16.2016 28.9074C16.8389 28.3513 17.8035 28.4169 18.3547 29.0559L23.5669 35.0454L35.2521 21.5985C35.8068 20.9595 36.7714 20.8939 37.4052 21.45C38.0425 22.0061 38.108 22.9733 37.5534 23.6088L24.7175 38.382C24.4316 38.7136 24.0113 38.9036 23.5669 38.9036C23.5703 38.9036 23.5703 38.9036 23.5669 38.9036Z" fill="#A8899D"/>
<path d="M23.5841 5.51611C13.3905 5.51611 5.12952 13.7991 5.12952 24.0163C5.12952 34.237 13.3905 42.5199 23.5841 42.5199C33.7743 42.5199 42.0352 34.237 42.0352 24.0163C42.0352 13.7991 33.7743 5.51611 23.5841 5.51611ZM33.8638 37.7222C33.2644 35.5737 32.603 33.6153 31.8899 31.8778L30.9115 33.0142C31.5523 34.6619 32.1517 36.5098 32.6994 38.527C30.0572 40.2022 26.9326 41.1694 23.5841 41.1694C20.2081 41.1694 17.0525 40.185 14.3999 38.4821C14.9511 36.4718 15.5436 34.6273 16.1878 32.9866L15.2198 31.8606C14.5101 33.5876 13.8521 35.5392 13.2493 37.6773C9.12911 34.541 6.46961 29.5843 6.46961 24.0163C6.46961 14.5555 14.1449 6.85976 23.5841 6.85976C33.0198 6.85976 40.6952 14.5555 40.6952 24.0163C40.6952 29.6085 38.0081 34.5893 33.8638 37.7222Z" fill="#A8899D"/>
<path d="M67.4555 19.191H61.7472V39.0245H58.3505V19.191H54.3406V17.6505L58.3505 16.4208V15.1704C58.3505 9.64732 60.7585 6.88403 65.5711 6.88403C66.7562 6.88403 68.1479 7.12237 69.743 7.60249L68.8645 10.3312C67.5554 9.90637 66.4358 9.69567 65.5091 9.69567C64.2276 9.69567 63.2802 10.124 62.667 10.9771C62.0538 11.8303 61.7472 13.2016 61.7472 15.0875V16.5452H67.4555V19.191Z" fill="#A8899D"/>
<path d="M83.1128 39.0244L82.4376 35.8259H82.2722C81.1526 37.2352 80.0399 38.1885 78.9272 38.6859C77.8145 39.1833 76.4296 39.4354 74.7657 39.4354C72.5437 39.4354 70.8005 38.8621 69.5397 37.7118C68.2788 36.5616 67.6484 34.9313 67.6484 32.8105C67.6484 28.2718 71.2691 25.8919 78.5103 25.6743L82.3136 25.5499V24.1545C82.3136 22.3894 81.9346 21.0872 81.1767 20.2479C80.4188 19.4085 79.2097 18.9871 77.5458 18.9871C75.6786 18.9871 73.5634 19.5605 71.2036 20.7107L70.1598 18.1063C71.2656 17.5053 72.4748 17.0321 73.7908 16.6902C75.1067 16.3482 76.4261 16.179 77.749 16.179C80.4223 16.179 82.4031 16.7731 83.6915 17.9647C84.9799 19.1529 85.6242 21.0631 85.6242 23.6882V39.0279H83.1128V39.0244ZM75.4409 36.6238C77.5561 36.6238 79.2166 36.0435 80.4223 34.8795C81.628 33.7189 82.2343 32.0886 82.2343 29.9988V27.9678L78.8376 28.1129C76.1368 28.2096 74.1904 28.6275 72.9984 29.3736C71.8065 30.1197 71.2071 31.2768 71.2071 32.8485C71.2071 34.0781 71.5791 35.0142 72.3232 35.6567C73.0673 36.3026 74.1043 36.6238 75.4409 36.6238Z" fill="#A8899D"/>
<path d="M98.5255 39.432C95.2803 39.432 92.769 38.4303 90.9879 36.4269C89.2069 34.4236 88.3181 31.5912 88.3181 27.9264C88.3181 24.1649 89.2207 21.26 91.0293 19.2082C92.8379 17.1565 95.4112 16.1306 98.7494 16.1306C99.8276 16.1306 100.902 16.2481 101.981 16.4795C103.059 16.7109 103.903 16.9872 104.516 17.3016L103.472 20.1926C102.721 19.8921 101.905 19.6434 101.016 19.4431C100.131 19.2462 99.3454 19.146 98.6633 19.146C94.109 19.146 91.8319 22.0579 91.8319 27.8815C91.8319 30.6448 92.3866 32.7621 93.4993 34.2405C94.612 35.7188 96.2587 36.4546 98.4393 36.4546C100.306 36.4546 102.222 36.0504 104.186 35.2456V38.2611C102.69 39.0417 100.803 39.432 98.5255 39.432Z" fill="#A8899D"/>
<path d="M116.76 39.432C113.446 39.432 110.831 38.4199 108.915 36.3958C107 34.3717 106.042 31.5635 106.042 27.9678C106.042 24.3444 106.931 21.4672 108.712 19.3325C110.493 17.1979 112.881 16.134 115.881 16.134C118.689 16.134 120.914 17.0597 122.551 18.9146C124.187 20.766 125.007 23.2115 125.007 26.2477V28.3996H109.563C109.632 31.0385 110.297 33.0419 111.558 34.4097C112.819 35.7775 114.596 36.4614 116.887 36.4614C119.302 36.4614 121.686 35.9571 124.046 34.9451V37.9812C122.847 38.5028 121.71 38.8724 120.639 39.1004C119.567 39.3214 118.275 39.432 116.76 39.432ZM115.84 18.9837C114.038 18.9837 112.605 19.5709 111.534 20.7487C110.462 21.9266 109.832 23.5534 109.642 25.6294H121.362C121.362 23.4844 120.883 21.8402 119.929 20.6969C118.978 19.5571 117.614 18.9837 115.84 18.9837Z" fill="#A8899D"/>
<path d="M135.814 36.6239C136.413 36.6239 136.992 36.579 137.553 36.4892C138.111 36.3994 138.556 36.3096 138.883 36.2129V38.8173C138.514 38.9969 137.974 39.142 137.257 39.2594C136.54 39.3768 135.896 39.4321 135.324 39.4321C130.987 39.4321 128.82 37.142 128.82 32.5619V19.1911H125.61V17.5504L128.82 16.1342L130.253 11.3364H132.217V16.5452H138.721V19.1911H132.217V32.4203C132.217 33.7743 132.537 34.814 133.178 35.5393C133.816 36.2612 134.694 36.6239 135.814 36.6239Z" fill="#A8899D"/>
<path d="M150.613 39.432C147.299 39.432 144.684 38.4199 142.769 36.3958C140.854 34.3717 139.896 31.5635 139.896 27.9678C139.896 24.3444 140.785 21.4672 142.566 19.3325C144.347 17.1979 146.734 16.134 149.735 16.134C152.542 16.134 154.768 17.0597 156.404 18.9146C158.04 20.766 158.86 23.2115 158.86 26.2477V28.3996H143.413C143.482 31.0385 144.147 33.0419 145.408 34.4097C146.669 35.7775 148.446 36.4614 150.737 36.4614C153.152 36.4614 155.536 35.9571 157.896 34.9451V37.9812C156.697 38.5028 155.56 38.8724 154.489 39.1004C153.417 39.3214 152.125 39.432 150.613 39.432ZM149.69 18.9837C147.888 18.9837 146.455 19.5709 145.384 20.7487C144.312 21.9266 143.682 23.5534 143.492 25.6294H155.212C155.212 23.4844 154.733 21.8402 153.779 20.6969C152.828 19.5571 151.464 18.9837 149.69 18.9837Z" fill="#A8899D"/>
<path d="M171.383 39.432C168.138 39.432 165.626 38.4303 163.845 36.4269C162.064 34.4236 161.175 31.5912 161.175 27.9264C161.175 24.1649 162.078 21.26 163.886 19.2082C165.695 17.1565 168.268 16.1306 171.607 16.1306C172.685 16.1306 173.76 16.2481 174.838 16.4795C175.916 16.7109 176.76 16.9872 177.373 17.3016L176.33 20.1926C175.579 19.8921 174.762 19.6434 173.873 19.4431C172.988 19.2462 172.203 19.146 171.52 19.146C166.966 19.146 164.689 22.0579 164.689 27.8815C164.689 30.6448 165.244 32.7621 166.357 34.2405C167.469 35.7188 169.116 36.4546 171.297 36.4546C173.164 36.4546 175.083 36.0504 177.046 35.2456V38.2611C175.548 39.0417 173.66 39.432 171.383 39.432Z" fill="#A8899D"/>
<path d="M193.038 34.0469L193.017 34.0158C192.7 34.42 192.328 34.6859 191.901 34.8137C191.474 34.9415 190.96 35.0072 190.368 35.0072C189.255 35.0072 188.58 34.8068 188.335 34.4061C188.191 34.1402 188.146 33.7671 188.208 33.2836C188.339 32.8138 188.47 32.3993 188.604 32.047C188.735 31.6912 188.907 31.3562 189.117 31.0418C189.327 30.7275 189.589 30.4616 189.906 30.2508C190.43 29.9158 191.198 29.75 192.218 29.75C192.676 29.75 193.124 29.7984 193.561 29.8951C194.037 30.0609 194.243 30.3027 194.188 30.6239H194.254L194.798 29.1179C194.888 28.8105 194.95 28.5791 194.977 28.4202C195.063 27.947 194.939 27.6499 194.605 27.5221C194.274 27.3943 193.826 27.3321 193.265 27.3321C192.614 27.3321 192.135 27.4392 191.822 27.6568C191.629 27.7881 191.484 27.9331 191.391 28.0955C191.298 28.2544 191.205 28.4893 191.112 28.7932H189.985C190.285 27.8399 190.757 27.1525 191.398 26.7346C191.711 26.5446 192.059 26.4237 192.442 26.3719C192.824 26.3201 193.255 26.2959 193.727 26.2959C194.364 26.2959 194.877 26.3443 195.26 26.4375C195.645 26.5342 195.911 26.7173 196.055 26.9902C196.19 27.2561 196.21 27.6568 196.114 28.1887C196.052 28.5273 195.966 28.8623 195.849 29.1939L193.809 34.9035H192.714L193.038 34.0469ZM190.271 31.1904C190.047 31.3907 189.879 31.629 189.768 31.9019C189.658 32.1748 189.538 32.5444 189.41 33.0107C189.407 33.1316 189.41 33.2766 189.414 33.4459C189.465 33.6635 189.596 33.8086 189.806 33.8811C190.016 33.9502 190.361 33.9847 190.836 33.9847C191.37 33.9847 191.804 33.9433 192.138 33.8569C192.473 33.7706 192.779 33.591 193.058 33.3181C193.403 32.983 193.63 32.496 193.747 31.8536C193.799 31.5669 193.799 31.3665 193.744 31.2491C193.665 31.0384 193.485 30.9071 193.213 30.8553C192.938 30.807 192.538 30.7793 192.008 30.7793C191.556 30.7793 191.201 30.8001 190.94 30.845C190.674 30.8933 190.454 31.0073 190.271 31.1904Z" fill="#A8899D"/>
<path d="M199.438 27.4323H199.466C199.786 26.9729 200.176 26.6689 200.63 26.5204C201.085 26.3719 201.578 26.2959 202.112 26.2959C203.093 26.2959 203.707 26.5066 203.948 26.928C204.123 27.1698 204.161 27.5705 204.061 28.1266C204.013 28.4029 203.924 28.731 203.8 29.1179L201.719 34.907H200.647L202.701 29.149C202.807 28.7587 202.869 28.5169 202.887 28.4202C202.962 27.9884 202.907 27.7017 202.714 27.5532C202.522 27.4047 202.16 27.3321 201.629 27.3321C201.216 27.3321 200.868 27.3632 200.585 27.4254C200.306 27.4876 200.024 27.6257 199.741 27.8364C199.342 28.1611 198.949 28.8278 198.56 29.8329L196.731 34.9104H195.663L198.753 26.3961H199.824L199.438 27.4323Z" fill="#A8899D"/>
<path d="M210.452 29.1662C210.576 28.8933 210.658 28.6343 210.703 28.3856C210.758 28.0713 210.72 27.8364 210.586 27.6844C210.452 27.529 210.28 27.4323 210.066 27.3943C209.852 27.3563 209.594 27.3355 209.291 27.3355C208.84 27.3355 208.474 27.3701 208.195 27.4357C207.916 27.5013 207.661 27.6257 207.434 27.8088C207.238 27.978 207.062 28.1956 206.907 28.465C206.748 28.7345 206.614 29.0142 206.497 29.3044C206.38 29.5945 206.232 29.9987 206.042 30.5168C205.66 31.5185 205.426 32.2196 205.336 32.6238C205.291 33.0314 205.312 33.3181 205.398 33.4873C205.512 33.7049 205.712 33.8465 205.994 33.9018C206.277 33.9605 206.628 33.9882 207.048 33.9882C207.468 33.9882 207.796 33.9571 208.027 33.8983C208.261 33.8362 208.474 33.7325 208.671 33.5806C209.005 33.325 209.315 32.7447 209.601 31.8466H210.696C210.324 33.0175 209.832 33.8396 209.212 34.3094C208.616 34.7757 207.723 35.0106 206.535 35.0106C205.918 35.0106 205.415 34.9518 205.029 34.8344C204.644 34.717 204.378 34.5097 204.237 34.2161C204.113 33.8776 204.082 33.4666 204.144 32.983C204.258 32.4718 204.492 31.7292 204.847 30.7586C205.198 29.7327 205.501 28.9797 205.756 28.503C206.011 28.0264 206.328 27.605 206.7 27.2423C207.355 26.6136 208.268 26.2993 209.449 26.2993C209.994 26.2993 210.459 26.3373 210.845 26.4133C211.23 26.4893 211.509 26.6413 211.678 26.8658C211.878 27.1283 211.923 27.5532 211.819 28.1334C211.761 28.4547 211.664 28.8001 211.527 29.1697H210.452V29.1662Z" fill="#A8899D"/>
<path d="M214.048 29.7846L212.181 34.9105H211.113L215.506 22.7451H216.573L214.896 27.4358H214.923C215.244 26.9626 215.63 26.6552 216.084 26.5135C216.539 26.3719 217.042 26.2994 217.593 26.2994C218.561 26.2994 219.178 26.5205 219.45 26.966C219.584 27.232 219.605 27.6223 219.515 28.1335C219.467 28.3995 219.364 28.7656 219.209 29.2354L217.173 34.9139H216.101L218.155 29.1559C218.244 28.8554 218.303 28.624 218.334 28.4582C218.416 27.9954 218.341 27.6948 218.103 27.5498C217.865 27.4082 217.517 27.3356 217.056 27.3356C216.239 27.3356 215.609 27.5152 215.161 27.871C214.772 28.2095 214.403 28.8485 214.048 29.7846Z" fill="#A8899D"/>
<path d="M225.114 26.2925C225.744 26.2925 226.247 26.3443 226.619 26.4479C226.991 26.5515 227.249 26.7415 227.398 27.0213C227.546 27.308 227.563 27.7743 227.446 28.4202C227.367 28.8623 227.125 29.643 226.726 30.7517C226.416 31.6291 226.116 32.3613 225.823 32.952C225.53 33.5426 225.151 34.0159 224.686 34.3716C224.318 34.6514 223.918 34.8276 223.494 34.8967C223.067 34.9692 222.561 35.0037 221.968 35.0037C221.297 35.0037 220.759 34.9416 220.359 34.8207C219.956 34.6998 219.719 34.42 219.643 33.9813C219.619 33.819 219.633 33.4805 219.688 32.9762C219.819 32.4097 220.015 31.7327 220.273 30.9486C220.583 30.0644 220.887 29.301 221.186 28.662C221.483 28.023 221.803 27.536 222.141 27.1975C222.544 26.8244 222.991 26.5792 223.487 26.4617C223.977 26.3512 224.521 26.2925 225.114 26.2925ZM224.748 27.3322H224.528C224.18 27.3322 223.873 27.3633 223.608 27.422C223.343 27.4807 223.105 27.6085 222.892 27.8054C222.661 28.0126 222.447 28.3339 222.247 28.7656C222.051 29.1974 221.799 29.8191 221.493 30.6274C221.4 30.9141 221.307 31.2042 221.207 31.4978C221.107 31.7914 221.028 32.0401 220.966 32.2508C220.904 32.4581 220.849 32.6584 220.807 32.8484C220.797 33.0487 220.79 33.2283 220.794 33.3838C220.835 33.6463 220.969 33.8017 221.193 33.8535C221.417 33.9053 221.799 33.9502 222.344 33.9848C222.606 33.9848 222.84 33.9779 223.043 33.9606C223.246 33.9433 223.463 33.9019 223.687 33.8293C223.911 33.7568 224.101 33.6532 224.252 33.5116C224.518 33.2525 224.748 32.8967 224.945 32.4477C225.141 31.9987 225.375 31.3907 225.647 30.6239C225.982 29.6775 226.192 28.9763 226.271 28.5273C226.333 28.1853 226.34 27.9401 226.292 27.7985C226.209 27.5912 226.037 27.4634 225.768 27.4082C225.503 27.3598 225.162 27.3322 224.748 27.3322Z" fill="#A8899D"/>
<path d="M230.429 27.4634L230.436 27.4945C230.808 27.0178 231.194 26.7069 231.59 26.555C231.986 26.403 232.42 26.3166 232.885 26.2959C233.364 26.2959 233.736 26.4341 234.001 26.7069C234.263 26.9798 234.349 27.3805 234.256 27.9055C234.205 28.1887 234.057 28.662 233.809 29.3321H232.796C232.982 28.7967 233.099 28.4167 233.137 28.1957C233.24 27.6223 232.937 27.3356 232.234 27.3356C231.707 27.3356 231.259 27.4772 230.887 27.7604C230.656 27.9193 230.46 28.1266 230.295 28.3856C230.129 28.6447 229.933 29.0695 229.709 29.6567L227.832 34.9104H226.733L229.812 26.3961H230.856L230.429 27.4634Z" fill="#A8899D"/>
<path d="M235.996 26.3927H237.067L234.001 34.9071H232.903L235.996 26.3927ZM237.298 22.7417H238.366L237.867 24.1682H236.795L237.298 22.7417Z" fill="#A8899D"/>
<path d="M239.665 27.4323H239.692C240.013 26.9729 240.402 26.6689 240.857 26.5204C241.312 26.3719 241.804 26.2959 242.338 26.2959C243.32 26.2959 243.933 26.5066 244.174 26.928C244.35 27.1698 244.388 27.5705 244.288 28.1266C244.24 28.4029 244.15 28.731 244.026 29.1179L241.945 34.907H240.874L242.927 29.149C243.034 28.7587 243.096 28.5169 243.113 28.4202C243.189 27.9884 243.134 27.7017 242.941 27.5532C242.748 27.4047 242.386 27.3321 241.856 27.3321C241.443 27.3321 241.095 27.3632 240.812 27.4254C240.533 27.4876 240.251 27.6257 239.968 27.8364C239.568 28.1611 239.176 28.8278 238.786 29.8329L236.957 34.9104H235.889L238.979 26.3961H240.051L239.665 27.4323Z" fill="#A8899D"/>
<path d="M251.471 27.4635L251.853 26.3927H252.921L250.065 34.4373C249.927 34.8207 249.786 35.2076 249.641 35.5944C249.497 35.9847 249.359 36.3129 249.228 36.5823C249.097 36.8517 248.935 37.1004 248.746 37.3318C248.556 37.5633 248.325 37.7774 248.057 37.9708C247.399 38.4579 246.5 38.6997 245.363 38.6997C244.87 38.6997 244.443 38.6617 244.078 38.5822C243.713 38.5062 243.444 38.3335 243.272 38.071C243.12 37.8016 243.075 37.4009 243.144 36.8724C243.199 36.6721 243.299 36.3578 243.451 35.9295H244.546C244.508 36.0607 244.44 36.2852 244.34 36.6099C244.302 36.9726 244.333 37.2144 244.429 37.3387C244.522 37.47 244.674 37.5563 244.884 37.5978C245.094 37.6427 245.377 37.6634 245.725 37.6634C246.541 37.6634 247.137 37.5287 247.509 37.2593C247.729 37.097 247.916 36.8863 248.071 36.6272C248.222 36.3681 248.374 36.0469 248.522 35.6704L249.163 33.8674H249.132C248.825 34.3199 248.446 34.6204 247.991 34.7758C247.537 34.9278 247.023 35.0038 246.448 35.0038C245.962 35.0038 245.556 34.945 245.228 34.8311C244.901 34.7171 244.67 34.4857 244.533 34.1402C244.436 33.8086 244.419 33.3665 244.484 32.8139C244.546 32.5444 244.65 32.1818 244.794 31.7258C244.939 31.2699 245.036 30.9452 245.091 30.7483C245.742 28.8969 246.417 27.6776 247.123 27.0835C247.757 26.5516 248.563 26.2891 249.542 26.2891C250.206 26.2891 250.682 26.3858 250.964 26.5758C251.247 26.7657 251.395 27.0731 251.409 27.4876L251.471 27.4635ZM246.389 30.2509C246.345 30.3856 246.248 30.655 246.1 31.0592C245.952 31.4633 245.842 31.7742 245.769 31.9883C245.697 32.2025 245.638 32.4132 245.594 32.617C245.566 32.9244 245.58 33.1696 245.625 33.3493C245.756 33.7707 246.224 33.9814 247.034 33.9814C247.778 33.9814 248.387 33.781 248.856 33.3803C249.073 33.2007 249.269 32.9658 249.449 32.6722C249.624 32.3821 249.772 32.092 249.889 31.8087C250.007 31.5255 250.155 31.1283 250.341 30.624C250.63 29.7224 250.802 29.1111 250.861 28.7898L250.923 28.4479C250.951 28.0299 250.833 27.7398 250.578 27.574C250.324 27.4082 249.934 27.3253 249.411 27.3253C249.039 27.3253 248.715 27.3598 248.429 27.4324C248.146 27.5049 247.888 27.6465 247.654 27.8607C247.402 28.0887 247.192 28.3719 247.02 28.7104C246.844 29.0558 246.634 29.567 246.389 30.2509Z" fill="#A8899D"/>
<path d="M259.491 26.3927H260.562L257.496 34.9071H256.397L259.491 26.3927ZM260.793 22.7417H261.861L261.361 24.1682H260.29L260.793 22.7417Z" fill="#A8899D"/>
<path d="M266.952 27.4635L268.637 22.7417H269.736L265.354 34.9071H264.286L264.651 33.8708L264.644 33.8397C264.034 34.6169 263.132 35.0072 261.94 35.0072C260.955 35.0072 260.345 34.762 260.111 34.275C259.942 33.9123 259.901 33.4011 259.987 32.7517C260.097 32.2509 260.297 31.6084 260.583 30.8243C260.81 30.1991 261.003 29.6879 261.168 29.2941C261.33 28.9004 261.533 28.5066 261.775 28.1094C262.016 27.7122 262.281 27.3909 262.577 27.1422C262.915 26.8486 263.273 26.6379 263.649 26.5136C264.024 26.3858 264.479 26.3167 265.006 26.2994C266.36 26.2994 267.001 26.6897 266.935 27.4669H266.952V27.4635ZM264.972 27.3322C264.579 27.3322 264.227 27.3702 263.914 27.4427C263.6 27.5153 263.328 27.6914 263.091 27.9678C262.843 28.2303 262.629 28.5584 262.45 28.9487C262.271 29.339 262.054 29.8744 261.799 30.5618C261.54 31.2388 261.341 31.902 261.196 32.541C261.154 32.9728 261.154 33.2664 261.203 33.4149C261.361 33.7948 261.816 33.9848 262.57 33.9848C263.432 33.9848 264.059 33.7637 264.458 33.3182C264.73 33.0384 264.968 32.6861 265.171 32.2578C265.375 31.8329 265.588 31.2975 265.816 30.6551C266.105 29.7743 266.274 29.1836 266.329 28.8831C266.384 28.5791 266.401 28.327 266.381 28.1232C266.298 27.5982 265.829 27.3322 264.972 27.3322Z" fill="#A8899D"/>
<path d="M275.268 29.4875L275.045 30.1196L274.759 30.9452H269.577L269.402 31.4495L269.354 31.5773C269.161 32.1506 269.04 32.5513 269.002 32.7793C268.926 33.211 268.964 33.5185 269.123 33.7084C269.329 33.895 269.825 33.9848 270.607 33.9848C271.541 33.9848 272.161 33.8604 272.468 33.6083C272.699 33.3941 272.929 32.9727 273.15 32.3406H274.245C273.908 33.3388 273.477 34.0262 272.943 34.4027C272.695 34.5823 272.44 34.717 272.182 34.7999C271.923 34.8863 271.655 34.9416 271.376 34.9657C271.097 34.9899 270.752 35.0037 270.339 35.0037C269.681 35.0037 269.15 34.9485 268.744 34.8414C268.341 34.7343 268.062 34.4994 267.917 34.1402C267.821 33.9019 267.81 33.4805 267.883 32.876C267.938 32.6239 268 32.3752 268.075 32.1334C268.148 31.8916 268.244 31.5911 268.365 31.2318C268.485 30.8726 268.558 30.6481 268.589 30.5548C269.202 28.8071 269.85 27.6534 270.532 27.0869C270.911 26.7691 271.324 26.5584 271.775 26.4514C272.227 26.3443 272.75 26.2925 273.346 26.2925C274.49 26.2925 275.2 26.5032 275.468 26.9246C275.644 27.2216 275.675 27.6845 275.558 28.3166C275.485 28.7276 275.389 29.1145 275.268 29.4875ZM274.014 29.8951C274.259 29.0385 274.393 28.5549 274.411 28.4547C274.469 28.1232 274.476 27.8917 274.424 27.757C274.369 27.5843 274.235 27.4669 274.021 27.4151C273.804 27.3598 273.529 27.3322 273.188 27.3322H272.981C272.072 27.3322 271.434 27.5014 271.069 27.8365C270.855 28.0368 270.676 28.2855 270.525 28.5826C270.373 28.8796 270.18 29.3183 269.946 29.8951H274.014Z" fill="#A8899D"/>
<path d="M278.765 27.4323H278.793C279.113 26.9729 279.502 26.6689 279.957 26.5204C280.412 26.3719 280.904 26.2959 281.438 26.2959C282.42 26.2959 283.033 26.5066 283.275 26.928C283.45 27.1698 283.488 27.5705 283.388 28.1266C283.34 28.4029 283.25 28.731 283.126 29.1179L281.046 34.907H279.974L282.027 29.149C282.134 28.7587 282.196 28.5169 282.213 28.4202C282.289 27.9884 282.234 27.7017 282.041 27.5532C281.848 27.4047 281.487 27.3321 280.956 27.3321C280.543 27.3321 280.195 27.3632 279.912 27.4254C279.633 27.4876 279.351 27.6257 279.068 27.8364C278.669 28.1611 278.276 28.8278 277.887 29.8329L276.057 34.9104H274.989L278.08 26.3961H279.151L278.765 27.4323Z" fill="#A8899D"/>
<path d="M283.777 32.3475L285.569 27.4323H284.608L284.973 26.3961H285.948L286.688 24.334H287.76L287.016 26.3961H289.803L289.424 27.4323H286.637L284.766 32.6549C284.749 32.7033 284.718 32.7931 284.673 32.9209C284.628 33.0521 284.601 33.1385 284.587 33.1765C284.573 33.2145 284.556 33.2732 284.532 33.3492C284.497 33.6083 284.542 33.7775 284.659 33.8604C284.78 33.9433 284.987 33.9848 285.279 33.9848C285.834 33.9848 286.234 33.7948 286.478 33.4148C286.527 33.325 286.582 33.211 286.64 33.0729C286.695 32.9347 286.768 32.7447 286.854 32.496C286.94 32.2473 287.012 32.047 287.071 31.8881H288.111C287.708 33.0349 287.302 33.819 286.892 34.2404C286.382 34.7481 285.71 35.0037 284.876 35.0037C284.084 35.0037 283.609 34.8345 283.447 34.4994C283.361 34.3336 283.34 34.0469 283.381 33.6393C283.423 33.4666 283.492 33.2318 283.585 32.9451C283.678 32.6618 283.743 32.458 283.777 32.3475Z" fill="#A8899D"/>
<path d="M291.005 26.3927H292.076L289.01 34.9071H287.911L291.005 26.3927ZM292.307 22.7417H293.375L292.876 24.1682H291.804L292.307 22.7417Z" fill="#A8899D"/>
<path d="M291.732 32.3475L293.523 27.4323H292.562L292.927 26.3961H293.902L294.643 24.334H295.714L294.97 26.3961H297.757L297.378 27.4323H294.591L292.721 32.6549C292.703 32.7033 292.672 32.7931 292.628 32.9209C292.583 33.0521 292.555 33.1385 292.541 33.1765C292.528 33.2145 292.51 33.2732 292.486 33.3492C292.452 33.6083 292.497 33.7775 292.614 33.8604C292.734 33.9433 292.941 33.9848 293.234 33.9848C293.789 33.9848 294.188 33.7948 294.433 33.4148C294.481 33.325 294.536 33.211 294.595 33.0729C294.65 32.9347 294.722 32.7447 294.808 32.496C294.894 32.2473 294.967 32.047 295.025 31.8881H296.066C295.663 33.0349 295.256 33.819 294.846 34.2404C294.336 34.7481 293.665 35.0037 292.831 35.0037C292.039 35.0037 291.563 34.8345 291.401 34.4994C291.315 34.3336 291.291 34.0469 291.336 33.6393C291.377 33.4666 291.446 33.2318 291.539 32.9451C291.632 32.6618 291.697 32.458 291.732 32.3475Z" fill="#A8899D"/>
<path d="M297.881 34.9069H297.512C297.512 34.6962 297.523 34.4199 297.54 34.078C297.557 33.736 297.568 33.4942 297.571 33.3526L297.957 26.3926H299.083L298.556 33.9847H298.584L302.952 26.3926H304.079L298.546 35.7981C298.019 36.6893 297.492 37.3939 296.975 37.9017C296.455 38.4129 295.862 38.6685 295.191 38.6685C295.111 38.6685 295.029 38.6616 294.943 38.6512C294.856 38.6408 294.774 38.6305 294.691 38.6201L295.032 37.6288C295.149 37.6599 295.259 37.6771 295.366 37.6771C295.638 37.6771 295.89 37.5942 296.124 37.425C296.358 37.2557 296.565 37.0485 296.748 36.7963C296.93 36.5442 297.151 36.1884 297.409 35.729C297.667 35.2696 297.829 34.9968 297.881 34.9069Z" fill="#A8899D"/>
<g opacity="0.5">
<path opacity="0.5" d="M192.879 36.3062H188.6V36.8692H192.879V36.3062Z" fill="#A8899D"/>
</g>
<g opacity="0.5">
<path opacity="0.5" d="M258.712 36.3062H254.433V36.8692H258.712V36.3062Z" fill="#A8899D"/>
</g>
</svg>
